STARTFONT 2.1
COMMENT
COMMENT Converted from OpenType font "Lato-Bold.ttf" by "otf2bdf 3.0".
COMMENT
FONT -FreeType-Lato-Bold-R-Normal--50-360-100-100-P-261-ISO10646-1
SIZE 36 100 100
FONTBOUNDINGBOX 93 68 -26 -14
STARTPROPERTIES 19
FOUNDRY "FreeType"
FAMILY_NAME "Lato"
WEIGHT_NAME "Bold"
SLANT "R"
SETWIDTH_NAME "Normal"
ADD_STYLE_NAME ""
PIXEL_SIZE 50
POINT_SIZE 360
RESOLUTION_X 100
RESOLUTION_Y 100
SPACING "P"
AVERAGE_WIDTH 261
CHARSET_REGISTRY "ISO10646"
CHARSET_ENCODING "1"
FONT_ASCENT 49
FONT_DESCENT 10
COPYRIGHT "Copyright (c) 2011-2015 by tyPoland Lukasz Dziedzic (http://www.typoland.com/) with Reserved Font Name "Lato". Licensed under the SIL Open Font License, Version 1.1 (http://scripts.sil.org/OFL). "
_OTF_FONTFILE "Lato-Bold.ttf"
_OTF_PSNAME "Lato-Bold"
ENDPROPERTIES
CHARS 2164
STARTCHAR 0000
ENCODING 0
SWIDTH 0 0
DWIDTH 0 0
BBX 0 0 0 0
BITMAP
ENDCHAR
STARTCHAR 0020
ENCODING 32
SWIDTH 240 0
DWIDTH 12 0
BBX 0 0 0 0
BITMAP
ENDCHAR
STARTCHAR 0021
ENCODING 33
SWIDTH 280 0
DWIDTH 14 0
BBX 8 36 3 0
BITMAP
7E
7E
7E
7E
7E
7E
7E
7E
7E
7E
7E
7E
7E
7E
7E
7E
7E
7E
7E
7E
3E
3C
3C
00
00
00
00
00
3C
7E
FE
FF
FF
FF
7E
3C
ENDCHAR
STARTCHAR 0022
ENCODING 34
SWIDTH 400 0
DWIDTH 20 0
BBX 14 13 3 23
BITMAP
F87C
F87C
F87C
F87C
F87C
F87C
F87C
F87C
F87C
F87C
F078
F078
7038
ENDCHAR
STARTCHAR 0023
ENCODING 35
SWIDTH 580 0
DWIDTH 29 0
BBX 27 36 1 0
BITMAP
007C1E00
007C1F00
00F81F00
00F83F00
00F83E00
00F83E00
00F83E00
01F83E00
01F07E00
01F07C00
3FFFFFE0
3FFFFFE0
7FFFFFE0
7FFFFFE0
7FFFFFC0
03E0F800
03E0F800
03E0F800
03E0F800
07C0F800
07C1F000
FFFFFF80
FFFFFF80
FFFFFF80
FFFFFF80
FFFFFF80
0F83F000
0F83E000
0F83E000
0F83E000
0F83E000
1F03E000
1F07C000
1F07C000
1F07C000
3E03C000
ENDCHAR
STARTCHAR 0024
ENCODING 36
SWIDTH 580 0
DWIDTH 29 0
BBX 25 47 2 -6
BITMAP
00078000
00078000
00078000
00078000
00070000
007FC000
01FFF800
07FFFC00
0FFFFF00
1FFFFF00
3FCF7E00
3F0F1E00
3F0F0000
7E0F0000
7E0F0000
7E0F0000
7E0E0000
7F0E0000
3FDE0000
3FFE0000
1FFE0000
0FFFC000
07FFF800
03FFFC00
007FFE00
001FFF00
001EFF00
001E7F80
001C3F80
001C1F80
003C1F80
003C1F80
003C1F80
383C3F00
7C3C3F00
FF3CFF00
FFFFFE00
7FFFFC00
3FFFF800
0FFFE000
03FF8000
00380000
00780000
00780000
00780000
00780000
00780000
ENDCHAR
STARTCHAR 0025
ENCODING 37
SWIDTH 820 0
DWIDTH 41 0
BBX 37 36 2 0
BITMAP
07E00007E0
1FF8000FC0
3FFC001F80
7FFE001F00
7C3F003F00
F81F007E00
F80F00FC00
F80F80F800
F80F81F800
F80F83F000
F80F07E000
F81F07C000
7C3F0FC000
7FFE1F8000
3FFC3F0000
1FF83E0000
07E07E0000
0000FC0000
0001F83F00
0003F0FFC0
0003E1FFE0
0007E3FFE0
000FC7E3F0
001F87C1F0
001F0780F8
003F0F80F8
007E0F80F8
00FC0F80F8
00F80F80F8
01F80780F8
03F007C0F0
07E007E1F0
07C003FFE0
0FC001FFE0
1F8000FF80
3F00003E00
ENDCHAR
STARTCHAR 0026
ENCODING 38
SWIDTH 720 0
DWIDTH 36 0
BBX 34 36 2 0
BITMAP
001FC00000
007FF00000
01FFFC0000
03FFFE0000
03FFFE0000
07F87F0000
07E03F0000
07E01F0000
07C01E8000
07C0000000
07C0000000
07E0000000
07E0000000
03F0000000
03F8000000
01FC000000
03FE007C00
0FFF007C00
1FFF807C00
3F9FC07C00
7F0FE0FC00
7E07F0F800
FE03F8F800
FC01FDF800
FC00FFF000
FC007FF000
FC003FE000
FE003FE000
FE001FE000
7F003FF000
7FC0FFF800
3FFFFFFC00
1FFFFDFE00
0FFFF0FF00
07FFC07F80
00FE003FC0
ENDCHAR
STARTCHAR 0027
ENCODING 39
SWIDTH 220 0
DWIDTH 11 0
BBX 5 13 3 23
BITMAP
F8
F8
F8
F8
F8
F8
F8
F8
F8
F8
F0
F0
70
ENDCHAR
STARTCHAR 0028
ENCODING 40
SWIDTH 280 0
DWIDTH 14 0
BBX 10 47 2 -8
BITMAP
0300
03C0
07C0
0FC0
0FC0
0F80
1F80
1F00
3F00
3F00
3E00
7E00
7E00
7C00
7C00
FC00
FC00
FC00
F800
F800
F800
F800
F800
F800
F800
F800
F800
F800
F800
FC00
FC00
7C00
7C00
7C00
7E00
7E00
3E00
3F00
3F00
1F00
1F80
0F80
0FC0
07C0
07C0
0380
0200
ENDCHAR
STARTCHAR 0029
ENCODING 41
SWIDTH 280 0
DWIDTH 14 0
BBX 11 47 1 -8
BITMAP
1000
7800
FC00
7C00
7E00
3E00
3F00
3F00
1F00
1F80
1F80
0F80
0FC0
0FC0
07C0
07C0
07C0
07E0
07E0
07E0
07E0
07E0
03E0
03E0
07E0
07E0
07E0
07E0
07E0
07E0
07C0
07C0
0FC0
0FC0
0FC0
0F80
1F80
1F80
1F00
3F00
3E00
7E00
7E00
FC00
7800
3800
1000
ENDCHAR
STARTCHAR 002A
ENCODING 42
SWIDTH 420 0
DWIDTH 21 0
BBX 16 17 3 21
BITMAP
0380
0380
0380
4386
F38E
FBBF
7FFC
1FF0
07C0
1FF0
7FFC
FBBF
F38E
4386
0380
0380
0380
ENDCHAR
STARTCHAR 002B
ENCODING 43
SWIDTH 580 0
DWIDTH 29 0
BBX 25 25 2 4
BITMAP
003E0000
003E0000
003E0000
003E0000
003E0000
003E0000
003E0000
003E0000
003E0000
003E0000
FFFFFF80
FFFFFF80
FFFFFF80
FFFFFF80
FFFFFF80
003E0000
003E0000
003E0000
003E0000
003E0000
003E0000
003E0000
003E0000
003E0000
003E0000
ENDCHAR
STARTCHAR 002C
ENCODING 44
SWIDTH 240 0
DWIDTH 12 0
BBX 8 14 2 -7
BITMAP
3C
7E
FE
FE
FF
7E
3E
0E
1E
1C
38
78
F0
60
ENDCHAR
STARTCHAR 002D
ENCODING 45
SWIDTH 380 0
DWIDTH 19 0
BBX 13 5 3 13
BITMAP
FFF8
FFF8
FFF8
FFF8
FFF8
ENDCHAR
STARTCHAR 002E
ENCODING 46
SWIDTH 240 0
DWIDTH 12 0
BBX 8 8 2 0
BITMAP
3C
7E
FE
FF
FF
FE
7E
3C
ENDCHAR
STARTCHAR 002F
ENCODING 47
SWIDTH 460 0
DWIDTH 23 0
BBX 21 39 1 -2
BITMAP
0000F8
0001F0
0001F0
0001F0
0003E0
0003E0
0007C0
0007C0
0007C0
000F80
000F80
001F00
001F00
001F00
003E00
003E00
007C00
007C00
007C00
00F800
00F800
01F000
01F000
01F000
03E000
03E000
03E000
07C000
07C000
0F8000
0F8000
0F8000
1F0000
1F0000
3E0000
3E0000
3E0000
7C0000
F80000
ENDCHAR
STARTCHAR 0030
ENCODING 48
SWIDTH 580 0
DWIDTH 29 0
BBX 27 36 1 0
BITMAP
003F8000
01FFF000
03FFF800
07FFFC00
0FFFFE00
1FE0FF00
1FC07F00
3F803F80
3F001F80
7F001FC0
7E001FC0
7E000FC0
7E000FC0
7E000FC0
FE000FE0
FE000FE0
FE000FE0
FE000FE0
FE000FE0
FE000FE0
FE000FE0
FE000FE0
7E000FC0
7E000FC0
7E000FC0
7E001FC0
7F001FC0
3F001F80
3F803F80
1FC07F00
1FE0FF00
0FFFFE00
07FFFC00
03FFF800
01FFF000
003F8000
ENDCHAR
STARTCHAR 0031
ENCODING 49
SWIDTH 580 0
DWIDTH 29 0
BBX 23 36 3 0
BITMAP
001F00
003F00
00FF00
01FF00
03FF00
07FF00
0FFF00
1FFF00
7FFF00
FFBF00
7E3F00
3C3F00
183F00
003F00
003F00
003F00
003F00
003F00
003F00
003F00
003F00
003F00
003F00
003F00
003F00
003F00
003F00
003F00
003F00
003F00
003F00
1FFFFE
1FFFFE
1FFFFE
1FFFFE
1FFFFE
ENDCHAR
STARTCHAR 0032
ENCODING 50
SWIDTH 580 0
DWIDTH 29 0
BBX 25 36 2 0
BITMAP
007F8000
03FFE000
07FFF800
0FFFFC00
1FFFFC00
3FC1FE00
3F00FE00
7F007F00
7E003F00
7E003F00
7C003F00
00003F00
00007F00
00007F00
00007E00
0000FE00
0000FC00
0001FC00
0003F800
0007F000
000FE000
001FC000
003F8000
007F0000
00FE0000
01FC0000
03F80000
07F00000
0FE00000
1FC00000
3FBFFF00
7FFFFF80
FFFFFF80
FFFFFF80
FFFFFF80
FFFFFF80
ENDCHAR
STARTCHAR 0033
ENCODING 51
SWIDTH 580 0
DWIDTH 29 0
BBX 25 36 2 0
BITMAP
007F8000
03FFE000
07FFF800
0FFFFC00
1FFFFE00
3FC1FE00
3F807F00
7F007F00
7E003F00
7E003F00
3C003F00
00003F00
00007E00
0000FE00
0003FC00
003FF800
003FE000
003FF000
003FFC00
003FFE00
0001FE00
00007F00
00003F00
00003F80
00003F80
10003F80
FC003F80
FC003F00
FE003F00
7F007F00
7FC1FE00
3FFFFE00
1FFFFC00
0FFFF800
07FFE000
00FF0000
ENDCHAR
STARTCHAR 0034
ENCODING 52
SWIDTH 580 0
DWIDTH 29 0
BBX 28 36 0 0
BITMAP
00007E00
0000FE00
0001FE00
0001FE00
0003FE00
0007FE00
000FFE00
000FFE00
001FBE00
003F3E00
007E3E00
007E3E00
00FC3E00
01F83E00
03F03E00
07F03E00
07E03E00
0FC03E00
1F803E00
3F803E00
3F003E00
7E003E00
FFFFFFF0
FFFFFFF0
7FFFFFF0
7FFFFFF0
7FFFFFE0
00003E00
00003E00
00003E00
00003E00
00003E00
00003E00
00003E00
00003E00
00003E00
ENDCHAR
STARTCHAR 0035
ENCODING 53
SWIDTH 580 0
DWIDTH 29 0
BBX 24 36 2 0
BITMAP
07FFFE
07FFFE
07FFFE
0FFFFE
0FFFFC
0F8000
0F8000
0F8000
0F8000
1F8000
1F8000
1F0000
1FFF00
1FFFE0
1FFFF0
3FFFF8
3FFFFC
0F03FE
0000FE
00007F
00007F
00003F
00003F
00003F
00003F
00003F
00003F
00007F
10007E
3C00FE
7F03FC
FFFFF8
7FFFF0
3FFFE0
0FFF80
01FE00
ENDCHAR
STARTCHAR 0036
ENCODING 54
SWIDTH 580 0
DWIDTH 29 0
BBX 25 36 2 0
BITMAP
0003FC00
0007F800
000FF000
001FE000
001FC000
003F8000
007F0000
00FE0000
00FE0000
01FC0000
03F80000
07F00000
07E00000
0FDFC000
1FFFF000
1FFFFC00
3FFFFE00
7FFFFF00
7FC1FF00
7F007F80
FE003F80
FE001F80
FC001F80
FC001F80
FC001F80
FC001F80
FC001F80
7E003F80
7E003F00
7F007F00
3FC1FE00
1FFFFE00
1FFFFC00
07FFF800
03FFE000
007F0000
ENDCHAR
STARTCHAR 0037
ENCODING 55
SWIDTH 580 0
DWIDTH 29 0
BBX 25 36 2 0
BITMAP
FFFFFF80
FFFFFF80
FFFFFF80
FFFFFF80
7FFFFF80
00001F80
00003F00
00007F00
00007E00
0000FE00
0000FC00
0001FC00
0001F800
0003F800
0003F000
0007F000
0007E000
000FE000
000FC000
001FC000
001F8000
003F8000
003F0000
007F0000
007E0000
00FE0000
00FC0000
01FC0000
01F80000
03F80000
03F80000
07F00000
07F00000
0FE00000
0FC00000
1F800000
ENDCHAR
STARTCHAR 0038
ENCODING 56
SWIDTH 580 0
DWIDTH 29 0
BBX 25 36 2 0
BITMAP
007F0000
03FFE000
0FFFF000
1FFFF800
1FFFFC00
3FC1FE00
3F007E00
7F007F00
7E003F00
7E003F00
7E003F00
3F007F00
3F007E00
3FC1FE00
1FFFFC00
07FFF800
03FFF000
0FFFE000
1FFFF800
3FC1FE00
7F007E00
7E003F00
FE003F80
FC001F80
FC001F80
FC001F80
FC001F80
FE003F80
FE003F80
7F007F00
7FC1FF00
3FFFFE00
1FFFFC00
0FFFF800
03FFF000
00FF8000
ENDCHAR
STARTCHAR 0039
ENCODING 57
SWIDTH 580 0
DWIDTH 29 0
BBX 24 36 2 0
BITMAP
007F00
03FFE0
07FFF0
1FFFF8
1FFFFC
3FC1FE
7F007E
7E003F
FE003F
FC003F
FC001F
FC003F
FC003F
FE003F
FE003F
7F007F
7F81FF
3FFFFE
3FFFFE
1FFFFE
07FFFC
01F9F8
0003F8
0007F0
0007E0
000FE0
001FC0
003F80
007F00
007F00
00FE00
01FC00
03FC00
07F800
0FF000
1FE000
ENDCHAR
STARTCHAR 003A
ENCODING 58
SWIDTH 260 0
DWIDTH 13 0
BBX 8 26 3 0
BITMAP
3C
7E
FE
FF
FF
FE
7E
3C
00
00
00
00
00
00
00
00
00
00
3C
7E
FE
FF
FF
FE
7E
3C
ENDCHAR
STARTCHAR 003B
ENCODING 59
SWIDTH 280 0
DWIDTH 14 0
BBX 8 33 3 -7
BITMAP
3C
7E
FE
FF
FF
FE
7E
3C
00
00
00
00
00
00
00
00
00
00
00
3C
7E
FE
FE
FF
7E
3E
0E
1E
1C
38
78
F0
60
ENDCHAR
STARTCHAR 003C
ENCODING 60
SWIDTH 580 0
DWIDTH 29 0
BBX 20 23 4 5
BITMAP
000030
0000F0
0003F0
000FF0
003FF0
00FFE0
03FF80
0FFE00
3FF800
7FE000
FF8000
FF0000
FFC000
3FF000
0FFC00
03FF00
00FFC0
003FE0
001FF0
0007F0
0001F0
000070
000010
ENDCHAR
STARTCHAR 003D
ENCODING 61
SWIDTH 580 0
DWIDTH 29 0
BBX 23 14 3 10
BITMAP
FFFFFE
FFFFFE
FFFFFE
FFFFFE
FFFFFE
000000
000000
000000
000000
FFFFFE
FFFFFE
FFFFFE
FFFFFE
FFFFFE
ENDCHAR
STARTCHAR 003E
ENCODING 62
SWIDTH 580 0
DWIDTH 29 0
BBX 20 23 5 5
BITMAP
C00000
F00000
FC0000
FF0000
FFC000
7FF000
1FFC00
07FF00
01FFC0
007FE0
001FF0
000FF0
003FF0
00FFC0
03FF00
0FFC00
3FF000
7FC000
FF8000
FE0000
F80000
E00000
800000
ENDCHAR
STARTCHAR 003F
ENCODING 63
SWIDTH 460 0
DWIDTH 23 0
BBX 19 36 2 0
BITMAP
03F800
1FFE00
7FFF80
FFFFC0
FFFFC0
7C1FE0
3007E0
0007E0
0007E0
0007E0
0007E0
000FC0
001FC0
003F80
007F00
01FE00
01FC00
03F000
03E000
03E000
03E000
03E000
03E000
000000
000000
000000
000000
000000
03C000
07E000
07F000
07F000
0FF000
07F000
07E000
03C000
ENDCHAR
STARTCHAR 0040
ENCODING 64
SWIDTH 840 0
DWIDTH 42 0
BBX 38 41 2 -6
BITMAP
0000FF0000
0007FFF000
001FFFFC00
007FFFFE00
00FF00FF80
01F8001FC0
03F00007C0
07C00003E0
0F800001F0
1F000000F0
1F000000F8
3E001FE078
3E00FFF87C
7C01FFF87C
7C03FFF03C
7807F0F03C
780FC1F03C
F81F81F03C
F81F01E03C
F83E01E03C
F83E03E07C
F83E03E07C
F83E03C078
F83E07C0F8
783E07C0F0
783F1FE3F0
7C1FFFFFE0
7C1FFDFFC0
3C0FF8FF80
3E03E07E00
1F00000000
1F00000000
0F80000000
0FC0000000
07F00000C0
03FC0003E0
01FF801FE0
007FFFFFE0
001FFFFF80
0007FFFE00
0000FFE000
ENDCHAR
STARTCHAR 0041
ENCODING 65
SWIDTH 700 0
DWIDTH 35 0
BBX 35 36 0 0
BITMAP
0003F80000
0007F80000
0007FC0000
0007FC0000
000FFE0000
000FFE0000
001FFE0000
001FBF0000
001FBF0000
003F3F8000
003F1F8000
007F1F8000
007E0FC000
007E0FC000
00FC0FE000
00FC07E000
01FC07E000
01F807F000
01F803F000
03F803F000
03F001F800
07F001F800
07FFFFFC00
07FFFFFC00
0FFFFFFC00
0FFFFFFE00
1FFFFFFE00
1FC0007F00
1F80007F00
3F80003F00
3F80003F80
7F00003F80
7F00001FC0
7F00001FC0
FE00000FC0
FC00000FE0
ENDCHAR
STARTCHAR 0042
ENCODING 66
SWIDTH 660 0
DWIDTH 33 0
BBX 27 36 4 0
BITMAP
FFFFC000
FFFFF800
FFFFFE00
FFFFFF00
FFFFFF00
FE00FF80
FE003F80
FE001FC0
FE001FC0
FE001FC0
FE001FC0
FE001FC0
FE003F80
FE003F80
FE00FF00
FFFFFC00
FFFFF800
FFFFF800
FFFFFE00
FFFFFF80
FE007F80
FE001FC0
FE000FC0
FE000FE0
FE000FE0
FE000FE0
FE000FE0
FE000FE0
FE001FC0
FE003FC0
FE007F80
FFFFFF80
FFFFFF00
FFFFFE00
FFFFF800
FFFFC000
ENDCHAR
STARTCHAR 0043
ENCODING 67
SWIDTH 660 0
DWIDTH 33 0
BBX 30 36 2 0
BITMAP
0007FC00
003FFFC0
00FFFFF0
01FFFFF8
07FFFFFC
0FFC07F8
0FF000F0
1FE00060
3FC00000
3F800000
7F000000
7F000000
7F000000
FE000000
FE000000
FE000000
FE000000
FE000000
FE000000
FE000000
FE000000
FE000000
FE000000
7F000000
7F000000
7F800000
3F800000
3FC00000
1FE00070
1FF000F8
0FFC03FC
07FFFFFC
03FFFFF8
00FFFFF0
003FFFC0
0007FC00
ENDCHAR
STARTCHAR 0044
ENCODING 68
SWIDTH 760 0
DWIDTH 38 0
BBX 32 36 4 0
BITMAP
FFFFC000
FFFFFC00
FFFFFF00
FFFFFF80
FFFFFFC0
FE007FE0
FE000FF0
FE0007F8
FE0003FC
FE0001FC
FE0000FE
FE0000FE
FE0000FE
FE00007F
FE00007F
FE00007F
FE00007F
FE00007F
FE00007F
FE00007F
FE00007F
FE00007F
FE00007F
FE0000FE
FE0000FE
FE0000FE
FE0001FC
FE0003FC
FE0007F8
FE000FF0
FE007FF0
FFFFFFE0
FFFFFF80
FFFFFF00
FFFFFC00
FFFFE000
ENDCHAR
STARTCHAR 0045
ENCODING 69
SWIDTH 580 0
DWIDTH 29 0
BBX 23 36 4 0
BITMAP
FFFFFE
FFFFFE
FFFFFE
FFFFFE
FFFFFE
FE0000
FE0000
FE0000
FE0000
FE0000
FE0000
FE0000
FE0000
FE0000
FE0000
FFFFE0
FFFFE0
FFFFE0
FFFFE0
FFFFE0
FE0000
FE0000
FE0000
FE0000
FE0000
FE0000
FE0000
FE0000
FE0000
FE0000
FE0000
FFFFFE
FFFFFE
FFFFFE
FFFFFE
FFFFFE
ENDCHAR
STARTCHAR 0046
ENCODING 70
SWIDTH 560 0
DWIDTH 28 0
BBX 23 36 4 0
BITMAP
FFFFFE
FFFFFE
FFFFFE
FFFFFE
FFFFFE
FE0000
FE0000
FE0000
FE0000
FE0000
FE0000
FE0000
FE0000
FE0000
FE0000
FE0000
FFFFF0
FFFFF0
FFFFF0
FFFFF0
FFFFF0
FE0000
FE0000
FE0000
FE0000
FE0000
FE0000
FE0000
FE0000
FE0000
FE0000
FE0000
FE0000
FE0000
FE0000
FE0000
ENDCHAR
STARTCHAR 0047
ENCODING 71
SWIDTH 720 0
DWIDTH 36 0
BBX 32 36 2 0
BITMAP
0003FF00
003FFFE0
00FFFFF8
01FFFFFE
03FFFFFF
0FFE01FE
0FF0007C
1FE0001C
3FC00000
3F800000
7F000000
7F000000
7F000000
FE000000
FE000000
FE000000
FE000000
FE000000
FE000FFF
FE000FFF
FE000FFF
FE000FFF
FE000FFF
7F00003F
7F00003F
7F80003F
3F80003F
3FC0003F
1FE0003F
0FF8003F
07FE01FF
03FFFFFF
01FFFFFF
007FFFFC
001FFFF0
0003FF00
ENDCHAR
STARTCHAR 0048
ENCODING 72
SWIDTH 780 0
DWIDTH 39 0
BBX 31 36 4 0
BITMAP
FE0000FE
FE0000FE
FE0000FE
FE0000FE
FE0000FE
FE0000FE
FE0000FE
FE0000FE
FE0000FE
FE0000FE
FE0000FE
FE0000FE
FE0000FE
FE0000FE
FE0000FE
FFFFFFFE
FFFFFFFE
FFFFFFFE
FFFFFFFE
FFFFFFFE
FE0000FE
FE0000FE
FE0000FE
FE0000FE
FE0000FE
FE0000FE
FE0000FE
FE0000FE
FE0000FE
FE0000FE
FE0000FE
FE0000FE
FE0000FE
FE0000FE
FE0000FE
FE0000FE
ENDCHAR
STARTCHAR 0049
ENCODING 73
SWIDTH 300 0
DWIDTH 15 0
BBX 7 36 4 0
BITMAP
FE
FE
FE
FE
FE
FE
FE
FE
FE
FE
FE
FE
FE
FE
FE
FE
FE
FE
FE
FE
FE
FE
FE
FE
FE
FE
FE
FE
FE
FE
FE
FE
FE
FE
FE
FE
ENDCHAR
STARTCHAR 004A
ENCODING 74
SWIDTH 420 0
DWIDTH 21 0
BBX 17 36 1 0
BITMAP
003F80
003F80
003F80
003F80
003F80
003F80
003F80
003F80
003F80
003F80
003F80
003F80
003F80
003F80
003F80
003F80
003F80
003F80
003F80
003F80
003F80
003F80
003F80
003F80
003F80
003F80
003F80
003F00
007F00
00FF00
01FE00
FFFE00
FFFC00
FFF800
FFE000
FF8000
ENDCHAR
STARTCHAR 004B
ENCODING 75
SWIDTH 680 0
DWIDTH 34 0
BBX 31 36 4 0
BITMAP
FE0003FC
FE0007F8
FE000FF0
FE001FE0
FE003FC0
FE003F80
FE007F00
FE00FF00
FE01FE00
FE03FC00
FE03F800
FE07F000
FE0FF000
FE1FE000
FE3FC000
FFFF8000
FFFF0000
FFFF8000
FFFFC000
FFFFC000
FE1FE000
FE0FF000
FE07F800
FE03F800
FE03FC00
FE01FE00
FE00FF00
FE007F00
FE007F80
FE003FC0
FE001FE0
FE000FE0
FE000FF0
FE0007F8
FE0003FC
FE0001FE
ENDCHAR
STARTCHAR 004C
ENCODING 76
SWIDTH 520 0
DWIDTH 26 0
BBX 21 36 4 0
BITMAP
FE0000
FE0000
FE0000
FE0000
FE0000
FE0000
FE0000
FE0000
FE0000
FE0000
FE0000
FE0000
FE0000
FE0000
FE0000
FE0000
FE0000
FE0000
FE0000
FE0000
FE0000
FE0000
FE0000
FE0000
FE0000
FE0000
FE0000
FE0000
FE0000
FE0000
FE0000
FFFFF8
FFFFF8
FFFFF8
FFFFF8
FFFFF8
ENDCHAR
STARTCHAR 004D
ENCODING 77
SWIDTH 940 0
DWIDTH 47 0
BBX 39 36 4 0
BITMAP
FE000000FE
FF000000FE
FF000001FE
FF800001FE
FF800003FE
FFC00003FE
FFC00007FE
FFE0000FFE
FFE0000FFE
FFF0001FFE
FFF0001FFE
FDF8003FFE
FDFC003F7E
FCFC007F7E
FCFE007E7E
FC7E00FC7E
FC3F00FC7E
FC3F01F87E
FC1F81F87E
FC1F83F07E
FC0FC3F07E
FC0FC7E07E
FC07E7E07E
FC07EFC07E
FC03FFC07E
FC03FF807E
FC01FF807E
FC01FF007E
FC00FE007E
FC00FE007E
FC007C007E
FC0018007E
FC0000007E
FC0000007E
FC0000007E
FC0000007E
ENDCHAR
STARTCHAR 004E
ENCODING 78
SWIDTH 780 0
DWIDTH 39 0
BBX 31 36 4 0
BITMAP
F800007E
FC00007E
FE00007E
FF00007E
FF00007E
FF80007E
FFC0007E
FFE0007E
FFF0007E
FFF0007E
FFF8007E
FFFC007E
FDFE007E
FCFF007E
FCFF007E
FC7F807E
FC3FC07E
FC1FE07E
FC0FE07E
FC0FF07E
FC07F87E
FC03FC7E
FC01FE7E
FC00FE7E
FC00FF7E
FC007FFE
FC003FFE
FC001FFE
FC000FFE
FC000FFE
FC0007FE
FC0003FE
FC0001FE
FC0000FE
FC0000FE
FC00007E
ENDCHAR
STARTCHAR 004F
ENCODING 79
SWIDTH 800 0
DWIDTH 40 0
BBX 37 36 2 0
BITMAP
0003FE0000
003FFFC000
00FFFFF000
01FFFFFC00
03FFFFFE00
07FE03FF00
0FF000FF80
1FE0003F80
3FC0001FC0
3F80001FE0
7F00000FE0
7F00000FE0
7F000007F0
FE000007F0
FE000007F0
FE000007F0
FE000003F0
FE000003F0
FE000003F8
FE000003F0
FE000007F0
FE000007F0
FE000007F0
7F000007F0
7F00000FE0
7F00000FE0
3F80001FE0
3FC0001FC0
1FE0003F80
0FF000FF80
07FC03FF00
03FFFFFE00
01FFFFFC00
00FFFFF000
003FFFC000
0003FE0000
ENDCHAR
STARTCHAR 0050
ENCODING 80
SWIDTH 620 0
DWIDTH 31 0
BBX 26 36 4 0
BITMAP
FFFF8000
FFFFF000
FFFFFC00
FFFFFE00
FFFFFF00
FE01FF00
FE007F80
FE003F80
FE001FC0
FE001FC0
FE001FC0
FE001FC0
FE001FC0
FE001FC0
FE003F80
FE003F80
FE007F80
FE01FF00
FFFFFF00
FFFFFE00
FFFFF800
FFFFF000
FFFF8000
FE000000
FE000000
FE000000
FE000000
FE000000
FE000000
FE000000
FE000000
FE000000
FE000000
FE000000
FE000000
FE000000
ENDCHAR
STARTCHAR 0051
ENCODING 81
SWIDTH 800 0
DWIDTH 40 0
BBX 38 42 2 -6
BITMAP
0003FE0000
003FFFC000
00FFFFF000
01FFFFF800
03FFFFFE00
07FE03FF00
0FF000FF80
1FE0003F80
3FC0001FC0
3F80001FE0
7F00000FE0
7F00000FE0
7F000007F0
FE000007F0
FE000007F0
FE000007F0
FE000003F0
FE000003F8
FE000003F8
FE000003F8
FE000007F0
FE000007F0
FE000007F0
7F000007F0
7F00000FF0
7F00000FE0
3F80001FE0
3FC0001FC0
1FE0003FC0
0FF000FF80
07FE03FF00
03FFFFFE00
01FFFFFC00
00FFFFFC00
003FFFFE00
0003FEFF00
0000007F80
0000003FC0
0000001FC0
0000001FE0
0000000FF0
00000007FC
ENDCHAR
STARTCHAR 0052
ENCODING 82
SWIDTH 640 0
DWIDTH 32 0
BBX 28 36 4 0
BITMAP
FFFF0000
FFFFE000
FFFFF800
FFFFFC00
FFFFFE00
FE01FF00
FE007F00
FE007F80
FE003F80
FE003F80
FE003F80
FE003F80
FE003F80
FE003F80
FE007F00
FE00FF00
FE03FE00
FFFFFC00
FFFFF800
FFFFF000
FFFF8000
FFFFC000
FE1FE000
FE0FF000
FE07F000
FE03F800
FE03FC00
FE01FC00
FE00FE00
FE00FF00
FE007F80
FE003F80
FE003FC0
FE001FE0
FE000FE0
FE000FF0
ENDCHAR
STARTCHAR 0053
ENCODING 83
SWIDTH 540 0
DWIDTH 27 0
BBX 25 36 1 0
BITMAP
003FC000
01FFF800
07FFFE00
0FFFFF00
0FFFFE00
1FE0FE00
3F801C00
3F000800
3F000000
3F000000
3F000000
3F800000
3FC00000
3FF00000
3FFE0000
1FFF8000
0FFFF000
07FFF800
03FFFC00
00FFFE00
001FFF00
0003FF00
0000FF00
00003F80
00003F80
00003F80
00003F00
00003F00
38003F00
7E007F00
7F81FE00
FFFFFC00
7FFFF800
1FFFF000
07FFE000
00FF0000
ENDCHAR
STARTCHAR 0054
ENCODING 84
SWIDTH 600 0
DWIDTH 30 0
BBX 28 36 1 0
BITMAP
FFFFFFF0
FFFFFFF0
FFFFFFF0
FFFFFFF0
FFFFFFF0
001F8000
001F8000
001F8000
001F8000
001F8000
001F8000
001F8000
001F8000
001F8000
001F8000
001F8000
001F8000
001F8000
001F8000
001F8000
001F8000
001F8000
001F8000
001F8000
001F8000
001F8000
001F8000
001F8000
001F8000
001F8000
001F8000
001F8000
001F8000
001F8000
001F8000
001F8000
ENDCHAR
STARTCHAR 0055
ENCODING 85
SWIDTH 740 0
DWIDTH 37 0
BBX 30 36 4 0
BITMAP
FC0001FC
FC0001FC
FC0001FC
FC0001FC
FC0001FC
FC0001FC
FC0001FC
FC0001FC
FC0001FC
FC0001FC
FC0001FC
FC0001FC
FC0001FC
FC0001FC
FC0001FC
FC0001FC
FC0001FC
FC0001FC
FC0001FC
FC0001FC
FC0001FC
FC0001FC
FC0001FC
FC0001F8
FE0003F8
FE0003F8
FF0007F8
7F0007F0
7FC00FF0
3FF03FE0
3FFFFFE0
1FFFFFC0
0FFFFF80
03FFFF00
01FFFC00
003FE000
ENDCHAR
STARTCHAR 0056
ENCODING 86
SWIDTH 700 0
DWIDTH 35 0
BBX 35 36 0 0
BITMAP
FE00000FE0
FE00001FC0
7F00001FC0
7F00001FC0
3F80003F80
3F80003F80
3F80007F00
1FC0007F00
1FC0007F00
0FC000FE00
0FE000FE00
0FE001FC00
07F001FC00
07F001FC00
03F003F800
03F803F800
03F803F000
01FC07F000
01FC07F000
00FC0FE000
00FE0FE000
00FE0FC000
007E1FC000
007F1F8000
003F1F8000
003FBF8000
003FBF0000
001FBF0000
001FFE0000
000FFE0000
000FFE0000
0007FC0000
0007FC0000
0007F80000
0003F80000
0003F80000
ENDCHAR
STARTCHAR 0057
ENCODING 87
SWIDTH 1060 0
DWIDTH 53 0
BBX 52 36 0 0
BITMAP
FF0000F80007F0
7F0001FC0007F0
7F8001FC000FE0
3F8001FC000FE0
3F8003FE000FE0
3F8003FE001FC0
3FC003FE001FC0
1FC007FF001FC0
1FC007FF001F80
1FE007FF003F80
0FE00FDF803F80
0FE00FDF803F80
0FE00F9F807F00
07F01F8FC07F00
07F01F8FC07F00
07F01F0FC07E00
03F83F0FE0FE00
03F83F07E0FE00
03F83E07E0FC00
03F87E07F1FC00
01FC7E03F1FC00
01FC7E03F1F800
01FCFC03F9F800
00FEFC01FBF800
00FEFC01FBF800
00FFF801FBF000
007FF800FFF000
007FF800FFF000
007FF000FFE000
003FF0007FE000
003FF0007FE000
003FE0007FC000
001FE0003FC000
001FE0003FC000
001FC0003F8000
001FC0001F8000
ENDCHAR
STARTCHAR 0058
ENCODING 88
SWIDTH 680 0
DWIDTH 34 0
BBX 33 36 0 0
BITMAP
7F80003F80
3F80007F00
3FC000FE00
1FC000FE00
1FE001FC00
0FF003F800
07F003F800
07F807F000
03FC0FE000
01FC0FE000
01FE1FC000
00FE1F8000
007F3F8000
007FFF0000
003FFE0000
001FFE0000
001FFC0000
000FF80000
000FFC0000
001FFE0000
003FFE0000
003F7F0000
007F7F8000
00FE3F8000
00FE1FC000
01FC1FE000
03F80FE000
03F80FF000
07F007F800
0FE003F800
0FE003FC00
1FC001FE00
3FC001FE00
3F8000FF00
7F00007F00
FF00007F80
ENDCHAR
STARTCHAR 0059
ENCODING 89
SWIDTH 640 0
DWIDTH 32 0
BBX 33 36 0 0
BITMAP
FE00007F80
7F00007F00
7F0000FE00
3F8001FE00
3F8001FC00
1FC003F800
0FE003F800
0FE007F000
07F007F000
07F00FE000
03F80FE000
03F81FC000
01FC1F8000
00FC3F8000
00FE3F0000
007E7F0000
007F7E0000
003FFC0000
001FFC0000
001FF80000
000FF80000
000FF00000
0007F00000
0007F00000
0007F00000
0007F00000
0007F00000
0007F00000
0007F00000
0007F00000
0007F00000
0007F00000
0007F00000
0007F00000
0007F00000
0007F00000
ENDCHAR
STARTCHAR 005A
ENCODING 90
SWIDTH 600 0
DWIDTH 30 0
BBX 28 36 1 0
BITMAP
7FFFFFF0
7FFFFFF0
7FFFFFF0
7FFFFFF0
7FFFFFE0
00001FE0
00003FC0
00007F80
00007F80
0000FF00
0001FE00
0001FC00
0003FC00
0007F800
0007F000
000FF000
001FE000
003FC000
003FC000
007F8000
00FF0000
00FE0000
01FE0000
03FC0000
03F80000
07F80000
0FF00000
1FE00000
1FC00000
3FC00000
7F800000
7FFFFFF0
FFFFFFF0
FFFFFFF0
FFFFFFF0
FFFFFFF0
ENDCHAR
STARTCHAR 005B
ENCODING 91
SWIDTH 320 0
DWIDTH 16 0
BBX 10 46 4 -8
BITMAP
FFC0
FFC0
FFC0
FFC0
F800
F800
F800
F800
F800
F800
F800
F800
F800
F800
F800
F800
F800
F800
F800
F800
F800
F800
F800
F800
F800
F800
F800
F800
F800
F800
F800
F800
F800
F800
F800
F800
F800
F800
F800
F800
F800
F800
FFC0
FFC0
FFC0
FFC0
ENDCHAR
STARTCHAR 005C
ENCODING 92
SWIDTH 460 0
DWIDTH 23 0
BBX 21 39 1 -2
BITMAP
F80000
7C0000
7C0000
3E0000
3E0000
1F0000
1F0000
1F0000
0F8000
0F8000
07C000
07C000
07C000
03E000
03E000
03E000
01F000
01F000
00F800
00F800
00F800
007C00
007C00
003E00
003E00
003E00
001F00
001F00
000F80
000F80
000F80
0007C0
0007C0
0003C0
0003E0
0003E0
0001F0
0001F0
0000F8
ENDCHAR
STARTCHAR 005D
ENCODING 93
SWIDTH 320 0
DWIDTH 16 0
BBX 11 46 1 -8
BITMAP
FFE0
FFE0
FFE0
7FE0
07E0
07E0
07E0
07E0
07E0
07E0
07E0
07E0
07E0
07E0
07E0
07E0
07E0
07E0
07E0
07E0
07E0
07E0
07E0
07E0
07E0
07E0
07E0
07E0
07E0
07E0
07E0
07E0
07E0
07E0
07E0
07E0
07E0
07E0
07E0
07E0
07E0
07E0
7FE0
FFE0
FFE0
FFE0
ENDCHAR
STARTCHAR 005E
ENCODING 94
SWIDTH 580 0
DWIDTH 29 0
BBX 25 19 2 17
BITMAP
003E0000
003E0000
007F0000
007F0000
00FF8000
00FF8000
01F7C000
03F7C000
03E3E000
07E3E000
07C1F000
0FC1F800
0F80F800
1F80FC00
1F807C00
3F007E00
3F003E00
7E003F00
FC001F80
ENDCHAR
STARTCHAR 005F
ENCODING 95
SWIDTH 460 0
DWIDTH 23 0
BBX 20 4 2 -7
BITMAP
FFFFF0
FFFFF0
FFFFF0
FFFFF0
ENDCHAR
STARTCHAR 0060
ENCODING 96
SWIDTH 400 0
DWIDTH 20 0
BBX 12 7 2 29
BITMAP
FE00
7F00
3F80
1F80
0FC0
07E0
03F0
ENDCHAR
STARTCHAR 0061
ENCODING 97
SWIDTH 500 0
DWIDTH 25 0
BBX 22 26 1 0
BITMAP
00FE00
07FFC0
1FFFE0
3FFFF0
7FFFF0
3F03F8
1C01F8
0001F8
0000FC
0000FC
0000FC
003FFC
03FFFC
0FFFFC
3FFFFC
7FC0FC
7F00FC
FE00FC
FC00FC
FC01FC
FC03FC
7E0FFC
7FFFFC
3FFEFC
1FFC7C
07E07C
ENDCHAR
STARTCHAR 0062
ENCODING 98
SWIDTH 560 0
DWIDTH 28 0
BBX 24 37 3 0
BITMAP
FC0000
FC0000
FC0000
FC0000
FC0000
FC0000
FC0000
FC0000
FC0000
FC0000
FC0000
FC1F80
FC7FE0
FDFFF0
FFFFF8
FFFFFC
FF83FC
FF00FE
FE00FE
FC007E
FC007E
FC007F
FC007F
FC007F
FC007F
FC007F
FC007E
FC007E
FC00FE
FC00FE
FE01FC
FF03FC
FFFFF8
FFFFF0
FDFFE0
FCFFC0
F83F00
ENDCHAR
STARTCHAR 0063
ENCODING 99
SWIDTH 480 0
DWIDTH 24 0
BBX 21 26 2 0
BITMAP
00FF00
03FFC0
0FFFF0
1FFFF8
3FFFF8
3FC1F0
7F0060
7E0000
FE0000
FC0000
FC0000
FC0000
FC0000
FC0000
FC0000
FC0000
FC0000
FE0000
7E0000
7F0070
3FC1F0
3FFFF8
1FFFF0
0FFFE0
07FFC0
00FE00
ENDCHAR
STARTCHAR 0064
ENCODING 100
SWIDTH 560 0
DWIDTH 28 0
BBX 23 37 2 0
BITMAP
00007E
00007E
00007E
00007E
00007E
00007E
00007E
00007E
00007E
00007E
00007E
01FC7E
07FF7E
0FFFFE
1FFFFE
3FFFFE
3FC1FE
7F00FE
7E007E
FE007E
FE007E
FC007E
FC007E
FC007E
FC007E
FC007E
FC007E
FC007E
FE007E
FE007E
7F00FE
7F83FE
3FFFFE
3FFFBE
1FFF3E
0FFE3E
03F83E
ENDCHAR
STARTCHAR 0065
ENCODING 101
SWIDTH 540 0
DWIDTH 27 0
BBX 23 26 2 0
BITMAP
00FF00
03FFC0
0FFFE0
1FFFF0
3FFFF8
3F81FC
7F00FC
7E007E
FC007E
FC003E
FFFFFE
FFFFFE
FFFFFE
FFFFFE
FC0000
FC0000
FC0000
FE0000
7E0000
7F0038
3FC0FC
3FFFFE
1FFFFC
0FFFF8
03FFE0
00FF00
ENDCHAR
STARTCHAR 0066
ENCODING 102
SWIDTH 360 0
DWIDTH 18 0
BBX 17 36 1 0
BITMAP
003F00
01FF80
03FF80
07FF80
07FF00
0FF000
0FC000
0FC000
0FC000
0FC000
FFFF80
FFFF80
FFFF80
FFFF80
7FFF80
0FC000
0FC000
0FC000
0FC000
0FC000
0FC000
0FC000
0FC000
0FC000
0FC000
0FC000
0FC000
0FC000
0FC000
0FC000
0FC000
0FC000
0FC000
0FC000
0FC000
0FC000
ENDCHAR
STARTCHAR 0067
ENCODING 103
SWIDTH 520 0
DWIDTH 26 0
BBX 25 35 1 -9
BITMAP
00FE0000
07FF8000
0FFFFF80
1FFFFF80
3FFFFF80
3F83FF00
7F01F800
7E00F800
7E00F800
7E00F800
7E00F800
3F01F800
3F83F800
1FFFF000
0FFFE000
07FFC000
0FFE0000
1F000000
3E000000
3F800000
3FFFC000
3FFFF800
1FFFFE00
0FFFFE00
1FFFFF00
7E007F00
7C003F00
FC003F00
FC003F00
FF00FE00
7FFFFE00
7FFFFC00
3FFFF800
0FFFE000
01FF0000
ENDCHAR
STARTCHAR 0068
ENCODING 104
SWIDTH 560 0
DWIDTH 28 0
BBX 22 37 3 0
BITMAP
FC0000
FC0000
FC0000
FC0000
FC0000
FC0000
FC0000
FC0000
FC0000
FC0000
FC0000
FC1F80
FCFFE0
FDFFF0
FFFFF8
FFFFF8
FF83FC
FF01FC
FE00FC
FC00FC
FC00FC
FC00FC
FC00FC
FC00FC
FC00FC
FC00FC
FC00FC
FC00FC
FC00FC
FC00FC
FC00FC
FC00FC
FC00FC
FC00FC
FC00FC
FC00FC
FC00FC
ENDCHAR
STARTCHAR 0069
ENCODING 105
SWIDTH 260 0
DWIDTH 13 0
BBX 8 37 2 0
BITMAP
3C
7E
7F
FF
FF
7F
7E
3C
00
00
00
7E
7E
7E
7E
7E
7E
7E
7E
7E
7E
7E
7E
7E
7E
7E
7E
7E
7E
7E
7E
7E
7E
7E
7E
7E
7E
ENDCHAR
STARTCHAR 006A
ENCODING 106
SWIDTH 260 0
DWIDTH 13 0
BBX 12 46 -2 -9
BITMAP
03C0
07E0
07F0
0FF0
0FF0
07F0
07E0
03C0
0000
0000
0000
07E0
07E0
07E0
07E0
07E0
07E0
07E0
07E0
07E0
07E0
07E0
07E0
07E0
07E0
07E0
07E0
07E0
07E0
07E0
07E0
07E0
07E0
07E0
07E0
07E0
07E0
07E0
07E0
07E0
0FE0
FFE0
FFC0
FFC0
FF80
FE00
ENDCHAR
STARTCHAR 006B
ENCODING 107
SWIDTH 540 0
DWIDTH 27 0
BBX 24 37 3 0
BITMAP
FC0000
FC0000
FC0000
FC0000
FC0000
FC0000
FC0000
FC0000
FC0000
FC0000
FC0000
FC00FE
FC01FC
FC03F8
FC03F0
FC07F0
FC0FE0
FC1FC0
FC3F80
FC3F00
FC7E00
FFFE00
FFFC00
FFFE00
FFFE00
FC7F00
FC3F80
FC3F80
FC1FC0
FC0FE0
FC0FE0
FC07F0
FC03F8
FC03F8
FC01FC
FC00FE
FC007F
ENDCHAR
STARTCHAR 006C
ENCODING 108
SWIDTH 240 0
DWIDTH 12 0
BBX 6 37 3 0
BITMAP
FC
FC
FC
FC
FC
FC
FC
FC
FC
FC
FC
FC
FC
FC
FC
FC
FC
FC
FC
FC
FC
FC
FC
FC
FC
FC
FC
FC
FC
FC
FC
FC
FC
FC
FC
FC
FC
ENDCHAR
STARTCHAR 006D
ENCODING 109
SWIDTH 840 0
DWIDTH 42 0
BBX 36 26 3 0
BITMAP
F83E00FC00
F8FF83FF80
FDFFC7FFC0
FFFFCFFFC0
FFFFFFFFE0
FF87FF0FE0
FE03FC07F0
FC01FC03F0
FC01F803F0
FC01F803F0
FC01F803F0
FC01F803F0
FC01F803F0
FC01F803F0
FC01F803F0
FC01F803F0
FC01F803F0
FC01F803F0
FC01F803F0
FC01F803F0
FC01F803F0
FC01F803F0
FC01F803F0
FC01F803F0
FC01F803F0
FC01F803F0
ENDCHAR
STARTCHAR 006E
ENCODING 110
SWIDTH 560 0
DWIDTH 28 0
BBX 22 26 3 0
BITMAP
F83F80
F8FFE0
FFFFF0
FFFFF8
FFFFF8
FF83FC
FF01FC
FE00FC
FC00FC
FC00FC
FC00FC
FC00FC
FC00FC
FC00FC
FC00FC
FC00FC
FC00FC
FC00FC
FC00FC
FC00FC
FC00FC
FC00FC
FC00FC
FC00FC
FC00FC
FC00FC
ENDCHAR
STARTCHAR 006F
ENCODING 111
SWIDTH 580 0
DWIDTH 29 0
BBX 25 26 2 0
BITMAP
00FF0000
03FFE000
0FFFF000
1FFFFC00
3FFFFC00
3FC1FE00
7F007F00
7E007F00
FE003F00
FC003F80
FC003F80
FC001F80
FC001F80
FC001F80
FC001F80
FC003F80
FC003F80
FE003F00
7E007F00
7F007F00
3FC1FE00
3FFFFC00
1FFFFC00
0FFFF000
03FFE000
00FF0000
ENDCHAR
STARTCHAR 0070
ENCODING 112
SWIDTH 560 0
DWIDTH 28 0
BBX 24 34 3 -8
BITMAP
F83F80
F8FFE0
FDFFF0
FFFFF8
FFFFFC
FF83FC
FF00FE
FE00FE
FC007E
FC007E
FC007F
FC007F
FC007F
FC007F
FC007F
FC007E
FC007E
FC00FE
FC00FE
FE01FC
FF03FC
FFFFF8
FFFFF0
FFFFE0
FCFFC0
FC7F00
FC0000
FC0000
FC0000
FC0000
FC0000
FC0000
FC0000
FC0000
ENDCHAR
STARTCHAR 0071
ENCODING 113
SWIDTH 560 0
DWIDTH 28 0
BBX 23 34 2 -8
BITMAP
01FC3E
07FF3E
0FFFBE
1FFFFE
3FFFFE
3FC1FE
7F00FE
7E007E
FE007E
FE007E
FC007E
FC007E
FC007E
FC007E
FC007E
FC007E
FC007E
FE007E
FE007E
7F00FE
7F83FE
3FFFFE
3FFFFE
1FFF7E
0FFE7E
03F07E
00007E
00007E
00007E
00007E
00007E
00007E
00007E
00007E
ENDCHAR
STARTCHAR 0072
ENCODING 114
SWIDTH 380 0
DWIDTH 19 0
BBX 15 26 3 0
BITMAP
F83E
F8FE
FDFE
FFFE
FFFE
FFFE
FF80
FF00
FE00
FE00
FC00
FC00
FC00
FC00
FC00
FC00
FC00
FC00
FC00
FC00
FC00
FC00
FC00
FC00
FC00
FC00
ENDCHAR
STARTCHAR 0073
ENCODING 115
SWIDTH 440 0
DWIDTH 22 0
BBX 19 26 1 0
BITMAP
01FC00
0FFF00
1FFFC0
3FFFE0
3FFFC0
7F03C0
7E0000
7E0000
7E0000
7F0000
3FC000
3FF800
1FFF00
07FF80
00FFC0
001FE0
0007E0
0003E0
0003E0
3007E0
7E0FE0
7FFFE0
FFFFC0
7FFF80
1FFF00
03F800
ENDCHAR
STARTCHAR 0074
ENCODING 116
SWIDTH 380 0
DWIDTH 19 0
BBX 17 34 1 0
BITMAP
03C000
07C000
07C000
07C000
07C000
0FC000
0FC000
0FC000
3FFF80
FFFF80
FFFF80
FFFF80
FFFF80
0FC000
0FC000
0FC000
0FC000
0FC000
0FC000
0FC000
0FC000
0FC000
0FC000
0FC000
0FC000
0FC000
0FC000
0FC000
0FE200
0FFF00
0FFF80
07FF80
03FF00
00FC00
ENDCHAR
STARTCHAR 0075
ENCODING 117
SWIDTH 560 0
DWIDTH 28 0
BBX 22 26 3 0
BITMAP
FC00FC
FC00FC
FC00FC
FC00FC
FC00FC
FC00FC
FC00FC
FC00FC
FC00FC
FC00FC
FC00FC
FC00FC
FC00FC
FC00FC
FC00FC
FC00FC
FC00FC
FC00FC
FC00FC
FE01FC
FF07FC
7FFFFC
7FFFFC
3FFE7C
1FFC7C
07F07C
ENDCHAR
STARTCHAR 0076
ENCODING 118
SWIDTH 520 0
DWIDTH 26 0
BBX 26 26 0 0
BITMAP
FE000FC0
7E001FC0
7F001F80
3F001F80
3F003F00
3F803F00
1F803F00
1F807E00
0FC07E00
0FC07C00
0FC0FC00
07E0FC00
07E1F800
03E1F800
03F1F800
03F3F000
01F3F000
01FBE000
01FBE000
00FFE000
00FFC000
007FC000
007F8000
007F8000
003F8000
003F0000
ENDCHAR
STARTCHAR 0077
ENCODING 119
SWIDTH 800 0
DWIDTH 40 0
BBX 40 26 0 0
BITMAP
FE003E003F
7E007E007E
7F007F007E
3F00FF007E
3F00FF00FC
3F00FF80FC
3F80FF80FC
1F81FF80F8
1F81FF81F8
1F81F7C1F8
0FC3E7C1F0
0FC3E7C3F0
0FC3E3E3F0
07C7C3E3E0
07E7C3E3E0
07E7C3E7E0
03EF81F7E0
03EF81F7C0
03FF81F7C0
01FF00FFC0
01FF00FF80
01FF00FF80
01FE007F80
00FE007F00
00FE007F00
00FC003F00
ENDCHAR
STARTCHAR 0078
ENCODING 120
SWIDTH 520 0
DWIDTH 26 0
BBX 26 26 0 0
BITMAP
FF001FC0
7F003F80
3F803F00
1FC07E00
1FC0FE00
0FE0FC00
07E1F800
07F3F800
03FBF000
01FFE000
01FFE000
00FFC000
007F8000
00FFC000
00FFC000
01FFE000
03FFF000
03F3F000
07E3F800
0FE1FC00
0FC0FC00
1FC0FE00
3F807F00
3F007F00
7F003F80
FE001FC0
ENDCHAR
STARTCHAR 0079
ENCODING 121
SWIDTH 520 0
DWIDTH 26 0
BBX 26 34 0 -8
BITMAP
FE000FC0
7E000FC0
7F001F80
3F001F80
3F803F00
1F803F00
1FC03F00
1FC07E00
0FC07E00
0FE0FC00
07E0FC00
07F0F800
03F1F800
03F1F800
01FBF000
01FBF000
01FBE000
00FFE000
00FFC000
007FC000
007FC000
003F8000
003F8000
003F0000
003F0000
003E0000
007E0000
007E0000
00FC0000
00FC0000
01F80000
01F80000
03F00000
03F00000
ENDCHAR
STARTCHAR 007A
ENCODING 122
SWIDTH 460 0
DWIDTH 23 0
BBX 20 26 1 0
BITMAP
7FFFF0
7FFFF0
7FFFF0
7FFFF0
7FFFF0
0007E0
000FC0
001FC0
001F80
003F00
007E00
00FE00
00FC00
01F800
03F000
07F000
07E000
0FC000
1F8000
3F8000
3F0000
7FFFF0
FFFFF0
FFFFF0
FFFFF0
FFFFF0
ENDCHAR
STARTCHAR 007B
ENCODING 123
SWIDTH 300 0
DWIDTH 15 0
BBX 13 46 1 -8
BITMAP
00F8
03F8
0FF8
0FF8
1F80
1F00
3F00
3F00
3F00
3F00
3F00
1F00
1F00
1F00
1F00
1F80
1F80
1F80
1F80
1F00
3F00
FE00
FC00
FC00
FE00
3F00
1F00
1F80
1F80
1F80
1F80
1F00
1F00
1F00
1F00
3F00
3F00
3F00
3F00
3F00
1F00
1F80
0FF8
0FF8
03F8
00F8
ENDCHAR
STARTCHAR 007C
ENCODING 124
SWIDTH 260 0
DWIDTH 13 0
BBX 5 47 4 -8
BITMAP
F8
F8
F8
F8
F8
F8
F8
F8
F8
F8
F8
F8
F8
F8
F8
F8
F8
F8
F8
F8
F8
F8
F8
F8
F8
F8
F8
F8
F8
F8
F8
F8
F8
F8
F8
F8
F8
F8
F8
F8
F8
F8
F8
F8
F8
F8
F8
ENDCHAR
STARTCHAR 007D
ENCODING 125
SWIDTH 300 0
DWIDTH 15 0
BBX 13 46 1 -8
BITMAP
F800
FF00
FF80
7FC0
0FC0
07E0
07E0
03E0
03E0
07E0
07E0
07E0
07E0
07C0
07C0
07C0
07C0
07C0
07C0
07C0
07E0
03F8
01F8
01F8
03F8
07E0
07C0
07C0
07C0
07C0
07C0
07C0
07C0
07C0
07E0
07E0
07E0
03E0
03E0
07E0
07E0
0FC0
7FC0
FF80
FF00
F800
ENDCHAR
STARTCHAR 007E
ENCODING 126
SWIDTH 580 0
DWIDTH 29 0
BBX 24 10 3 10
BITMAP
00001F
00001F
0FC03E
3FF87E
7FFFFE
7FFFFC
FFFFFC
FC3FF8
F807E0
F80000
ENDCHAR
STARTCHAR 00A0
ENCODING 160
SWIDTH 240 0
DWIDTH 12 0
BBX 0 0 0 0
BITMAP
ENDCHAR
STARTCHAR 00A1
ENCODING 161
SWIDTH 280 0
DWIDTH 14 0
BBX 8 34 3 -8
BITMAP
3C
7E
FE
FF
FE
FE
7E
3C
00
00
00
00
3C
7C
7C
7C
7C
7E
7E
7E
7E
7E
7E
7E
7E
7E
7E
7E
7E
7E
7E
7E
7E
7E
ENDCHAR
STARTCHAR 00A2
ENCODING 162
SWIDTH 580 0
DWIDTH 29 0
BBX 23 37 3 -5
BITMAP
000780
000780
000780
000780
000780
000700
007F80
03FFF0
07FFFC
0FFFFE
1FFFFC
3F8F38
7F0F00
7E0F00
7E0F00
FE0F00
FC0F00
FC0E00
FC0E00
FC1E00
FC1E00
FC1E00
FC1E00
7E1E00
7E1E00
7F1E08
3F9E3C
1FFFFE
0FFFFE
07FFFC
03FFF0
007FC0
003C00
003C00
003C00
003C00
003800
ENDCHAR
STARTCHAR 00A3
ENCODING 163
SWIDTH 580 0
DWIDTH 29 0
BBX 27 36 1 0
BITMAP
000FF000
003FFC00
00FFFE00
01FFFF00
01FFFF80
03FC3FC0
03F00FC0
07F00700
07E00000
07E00000
07E00000
07E00000
07E00000
07E00000
07E00000
07E00000
07E00000
7FFFF800
FFFFF800
FFFFF800
FFFFF800
07E00000
07E00000
07E00000
07E00000
07E00000
07E00000
07E00000
07E00000
0FC00000
0FC00000
1FFFFFE0
FFFFFFE0
FFFFFFE0
FFFFFFE0
FFFFFFC0
ENDCHAR
STARTCHAR 00A4
ENCODING 164
SWIDTH 580 0
DWIDTH 29 0
BBX 23 24 3 4
BITMAP
300018
78003C
FC7C7E
FFFFFC
7FFFF8
3FFFF8
1FFFF0
1F83F0
1F01F0
3E00F0
3E00F8
3E00F8
3E00F8
3E00F0
1F01F0
1F83F0
1FFFF0
3FFFF8
3FFFFC
7FFFFE
FC7C7E
78003C
300018
200000
ENDCHAR
STARTCHAR 00A5
ENCODING 165
SWIDTH 580 0
DWIDTH 29 0
BBX 29 36 0 0
BITMAP
FE0003F8
7F0007F0
3F0007E0
3F800FE0
1F800FC0
1FC01FC0
0FC01F80
0FC03F80
07E03F00
07E03F00
03F07E00
03F07E00
01F8FC00
01F8FC00
00FDF800
00FDF800
007DF000
007FF000
003FE000
003FE000
1FFFFFC0
1FFFFFC0
1FFFFFC0
001FC000
001FC000
001FC000
1FFFFFC0
1FFFFFC0
1FFFFFC0
001FC000
001FC000
001FC000
001FC000
001FC000
001FC000
001FC000
ENDCHAR
STARTCHAR 00A6
ENCODING 166
SWIDTH 260 0
DWIDTH 13 0
BBX 5 47 4 -8
BITMAP
F8
F8
F8
F8
F8
F8
F8
F8
F8
F8
F8
F8
F8
F8
F8
F8
F8
F8
F8
F8
00
00
00
00
00
00
00
F8
F8
F8
F8
F8
F8
F8
F8
F8
F8
F8
F8
F8
F8
F8
F8
F8
F8
F8
F8
ENDCHAR
STARTCHAR 00A7
ENCODING 167
SWIDTH 500 0
DWIDTH 25 0
BBX 21 40 2 -4
BITMAP
00FE00
07FF80
0FFFE0
1FFFF0
1FFFE0
3F83E0
3F0040
3E0000
3E0000
3F0000
3F8000
1FF000
1FFC00
0FFF00
1FFFC0
3FFFE0
7E7FF0
7C0FF8
FC03F8
FC01F8
FC00F8
FF00F8
7FC1F8
7FF1F0
3FFFE0
0FFFC0
03FFC0
00FFC0
001FE0
0007E0
0003F0
0003F0
0003F0
3803E0
3E07E0
7FFFE0
FFFFC0
3FFF80
1FFF00
03F800
ENDCHAR
STARTCHAR 00A8
ENCODING 168
SWIDTH 400 0
DWIDTH 20 0
BBX 17 7 2 29
BITMAP
781E00
FC3F00
FC3F00
FC3F80
FC3F00
FC3F00
781E00
ENDCHAR
STARTCHAR 00A9
ENCODING 169
SWIDTH 820 0
DWIDTH 41 0
BBX 37 36 2 0
BITMAP
0003FE0000
001FFFC000
007FFFF000
00FE03F800
03F0007E00
07C0001F00
0F80FC0F80
0F07FF87C0
1E0FFFC3C0
3C1FFFE1E0
3C3FFFE0E0
787F83C0F0
787E000070
70FC000070
F0FC000078
F0F8000038
F0F8000038
F0F8000038
F0F8000038
F0F8000038
F0FC000038
F0FC000078
707E008070
707F03C070
783FFFE0F0
383FFFE0E0
3C1FFFC1E0
1E07FF83C0
0F01FC03C0
0F80000F80
07C0001F00
03F0007E00
00FE03FC00
007FFFF000
001FFFC000
0003FE0000
ENDCHAR
STARTCHAR 00AA
ENCODING 170
SWIDTH 360 0
DWIDTH 18 0
BBX 14 16 2 20
BITMAP
0FC0
3FF0
7FF8
7FF8
3878
007C
007C
07FC
3FFC
7FFC
F87C
F07C
F8FC
FFFC
7FBC
3E3C
ENDCHAR
STARTCHAR 00AB
ENCODING 171
SWIDTH 460 0
DWIDTH 23 0
BBX 18 21 2 3
BITMAP
020200
038380
07C7C0
078780
0F8F80
1F1F00
1F1F00
3E3E00
7C7C00
7C7C00
F8F800
7C7C00
7C7C00
3E3E00
1F1F00
1F1F00
0F8F80
0F8F80
07C7C0
038380
020200
ENDCHAR
STARTCHAR 00AC
ENCODING 172
SWIDTH 580 0
DWIDTH 29 0
BBX 22 12 3 7
BITMAP
FFFFFC
FFFFFC
FFFFFC
FFFFFC
FFFFFC
00007C
00007C
00007C
00007C
00007C
00007C
00007C
ENDCHAR
STARTCHAR 00AD
ENCODING 173
SWIDTH 380 0
DWIDTH 19 0
BBX 13 5 3 13
BITMAP
FFF8
FFF8
FFF8
FFF8
FFF8
ENDCHAR
STARTCHAR 00AE
ENCODING 174
SWIDTH 820 0
DWIDTH 41 0
BBX 37 36 2 0
BITMAP
0003FE0000
001FFFC000
007FFFF000
00FE03F800
03F0007E00
07C0001F00
0FBFFE0F80
0F3FFF87C0
1E3FFFC3C0
3C3FFFE1E0
3C3F07E0E0
783F03E0F0
783F03F070
703F03E070
F03F03E078
F03F03E038
F03F07E038
F03FFFC038
F03FFF8038
F03FFE0038
F03FFF0038
F03F3F8078
703F1F8070
703F0FC070
783F0FC0F0
383F07E0E0
3C3F07F1E0
1E3F03F3C0
0F3F01FBC0
0F80000F80
07C0001F00
03F0007E00
00FE03FC00
007FFFF000
001FFFC000
0003FE0000
ENDCHAR
STARTCHAR 00AF
ENCODING 175
SWIDTH 400 0
DWIDTH 20 0
BBX 14 4 3 30
BITMAP
FFFC
FFFC
FFFC
FFFC
ENDCHAR
STARTCHAR 00B0
ENCODING 176
SWIDTH 420 0
DWIDTH 21 0
BBX 17 17 2 19
BITMAP
07E000
1FF800
3FFE00
7FFE00
7C3F00
F80F00
F00F80
F00780
F00780
F00780
F00F80
F80F00
7C3F00
7FFE00
3FFE00
1FF800
07E000
ENDCHAR
STARTCHAR 00B1
ENCODING 177
SWIDTH 580 0
DWIDTH 29 0
BBX 25 29 2 2
BITMAP
003E0000
003E0000
003E0000
003E0000
003E0000
003E0000
003E0000
003E0000
003E0000
FFFFFF80
FFFFFF80
FFFFFF80
FFFFFF80
FFFFFF80
003E0000
003E0000
003E0000
003E0000
003E0000
003E0000
003E0000
003E0000
00000000
00000000
FFFFFF80
FFFFFF80
FFFFFF80
FFFFFF80
FFFFFF80
ENDCHAR
STARTCHAR 00B2
ENCODING 178
SWIDTH 340 0
DWIDTH 17 0
BBX 14 19 1 23
BITMAP
07C0
1FF0
3FF8
7FF8
7CF8
787C
9078
0078
00F8
01F0
01E0
03C0
0780
0F80
1F00
7FFC
7FFC
FFFC
FFFC
ENDCHAR
STARTCHAR 00B3
ENCODING 179
SWIDTH 340 0
DWIDTH 17 0
BBX 14 19 1 23
BITMAP
07C0
1FF0
3FF8
7FF8
7C78
7878
0078
00F8
03F0
03E0
03F8
0078
007C
F87C
787C
7FF8
3FF8
3FF0
0FC0
ENDCHAR
STARTCHAR 00B4
ENCODING 180
SWIDTH 400 0
DWIDTH 20 0
BBX 12 7 7 29
BITMAP
0FF0
1FC0
1F80
3F00
7E00
7E00
FC00
ENDCHAR
STARTCHAR 00B5
ENCODING 181
SWIDTH 660 0
DWIDTH 33 0
BBX 27 34 4 -8
BITMAP
FC00FC00
FC00FC00
FC00FC00
FC00FC00
FC00FC00
FC00FC00
FC00FC00
FC00FC00
FC00FC00
FC00FC00
FC00FC00
FC00FC00
FC00FC00
FC00FC00
FC00FC00
FC00FC00
FC00FC00
FC00FC00
FE01FE00
FE03FE00
FF07FF00
FFFFFFE0
FFFF3FE0
FFFE3FE0
FFFC1FE0
FCF807C0
FC000000
FC000000
FC000000
FC000000
FC000000
FC000000
FC000000
7C000000
ENDCHAR
STARTCHAR 00B6
ENCODING 182
SWIDTH 740 0
DWIDTH 37 0
BBX 33 41 2 -5
BITMAP
01FFFFFF80
07FFFFFF80
1FFFFFFF80
3FFFFFFF80
7FFFFFFF80
7FFF03F000
FFFF03F000
FFFF03F000
FFFF03F000
FFFF03F000
FFFF03F000
FFFF03F000
FFFF03F000
FFFF03F000
7FFF03F000
7FFF03F000
3FFF03F000
1FFF03F000
07FF03F000
01FF03F000
001F03F000
001F03F000
001F03F000
001F03F000
001F03F000
001F03F000
001F03F000
001F03F000
001F03F000
001F03F000
001F03F000
001F03F000
001F03F000
001F03F000
001F03F000
001F03F000
001F03F000
001F03F000
001F03F000
001F03F000
001F03F000
ENDCHAR
STARTCHAR 00B7
ENCODING 183
SWIDTH 280 0
DWIDTH 14 0
BBX 10 9 2 10
BITMAP
1E00
7F00
7F80
FF80
FFC0
FF80
7F80
7F00
1E00
ENDCHAR
STARTCHAR 00B8
ENCODING 184
SWIDTH 400 0
DWIDTH 20 0
BBX 10 10 6 -9
BITMAP
3C00
3C00
3800
7F00
7F80
0F80
0FC0
FF80
FF80
FE00
ENDCHAR
STARTCHAR 00B9
ENCODING 185
SWIDTH 340 0
DWIDTH 17 0
BBX 12 19 2 23
BITMAP
0380
0780
1F80
3F80
7F80
FF80
7780
2780
0780
0780
0780
0780
0780
0780
0780
0780
3FF0
3FF0
3FF0
ENDCHAR
STARTCHAR 00BA
ENCODING 186
SWIDTH 400 0
DWIDTH 20 0
BBX 16 16 2 20
BITMAP
07E0
1FF8
3FFC
7FFE
FC3F
F81F
F81F
F81F
F81F
F81F
F81F
7C3F
7FFE
3FFC
1FF8
07E0
ENDCHAR
STARTCHAR 00BB
ENCODING 187
SWIDTH 460 0
DWIDTH 23 0
BBX 17 21 3 3
BITMAP
202000
F0F000
F0F000
F8F800
7C7C00
7C7C00
3E3E00
1F1F00
1F1F00
0F8F80
0F8F80
0F8F80
1F1F00
1F1F00
3E3E00
7C7C00
7C7C00
F8F800
F0F000
F0F000
202000
ENDCHAR
STARTCHAR 00BC
ENCODING 188
SWIDTH 740 0
DWIDTH 37 0
BBX 33 37 2 0
BITMAP
0380000000
0780007C00
1F8000F800
3F8000F000
7F8001F000
FF8003E000
778003C000
278007C000
0780078000
07800F8000
07801F0000
07801E0000
07803E0000
07803C0000
07807C0000
0780F80000
3FF0F00000
3FF1F00000
3FF3E01E00
0003E03E00
0007C07E00
0007807E00
000F80FE00
001F01FE00
001E01FE00
003E03DE00
003C079E00
007C0F1E00
00F80F1E00
00F01E1E00
01F03FFF80
03E01FFF80
03E01FFF80
07C0001E00
0780001E00
0F80001E00
1F00001E00
ENDCHAR
STARTCHAR 00BD
ENCODING 189
SWIDTH 740 0
DWIDTH 37 0
BBX 33 37 2 0
BITMAP
0380000000
078000F800
1F8001F000
3F8001E000
7F8003E000
FF8007C000
7780078000
27800F8000
07800F0000
07801F0000
07803E0000
07803C0000
07807C0000
0780780000
0780F80000
0781F00000
3FF1E00000
3FF3E00000
3FF7C0F800
0007C3FE00
000F87FF00
000F0FFF00
001F0F9F00
003E0F0F80
003C120F00
007C000F00
0078001F00
00F8003E00
01F0003C00
01E0007800
03E000F000
07C001F000
07C003E000
0F800FFF80
0F000FFF80
1F001FFF80
3E001FFF80
ENDCHAR
STARTCHAR 00BE
ENCODING 190
SWIDTH 740 0
DWIDTH 37 0
BBX 33 37 2 0
BITMAP
07C0000000
1FF0003E00
3FF8007C00
7FF8007800
7C7800F800
787801F000
007801E000
00F803E000
03F003C000
03E007C000
03F80F8000
00780F0000
007C1F0000
F87C1E0000
787C3E0000
7FF87C0000
3FF8780000
3FF0F80000
0FC1F01E00
0001F03E00
0003E07E00
0003C07E00
0007C0FE00
000F81FE00
000F01FE00
001F03DE00
001E079E00
003E0F1E00
007C0F1E00
00781E1E00
00F83FFF80
01F01FFF80
01F01FFF80
03E0001E00
03C0001E00
07C0001E00
0F80001E00
ENDCHAR
STARTCHAR 00BF
ENCODING 191
SWIDTH 460 0
DWIDTH 23 0
BBX 19 35 2 -9
BITMAP
007000
00FC00
01FC00
01FC00
01FC00
01FC00
00FC00
007000
000000
000000
000000
000000
00F800
00F800
00F800
00F800
00F800
01F800
03F800
0FF000
1FE000
3F8000
7F0000
FE0000
FC0000
FC0000
FC0000
FC0000
FC0180
FF07C0
7FFFE0
7FFFE0
3FFFC0
0FFF00
03F800
ENDCHAR
STARTCHAR 00C0
ENCODING 192
SWIDTH 700 0
DWIDTH 35 0
BBX 35 47 0 0
BITMAP
01FE000000
00FF000000
003F800000
001FC00000
000FE00000
0007E00000
0003F00000
0001F80000
0000000000
0000000000
0000000000
0003F80000
0007F80000
0007FC0000
0007FC0000
000FFE0000
000FFE0000
001FFE0000
001FBF0000
001FBF0000
003F3F8000
003F1F8000
007F1F8000
007E0FC000
007E0FC000
00FC0FE000
00FC07E000
01FC07E000
01F807F000
01F803F000
03F803F000
03F001F800
07F001F800
07FFFFFC00
07FFFFFC00
0FFFFFFC00
0FFFFFFE00
1FFFFFFE00
1FC0007F00
1F80007F00
3F80003F00
3F80003F80
7F00003F80
7F00001FC0
7F00001FC0
FE00000FC0
FC00000FE0
ENDCHAR
STARTCHAR 00C1
ENCODING 193
SWIDTH 700 0
DWIDTH 35 0
BBX 35 47 0 0
BITMAP
00001FF000
00003FC000
00007F8000
00007F0000
0000FE0000
0001FC0000
0003F80000
0007F00000
0000000000
0000000000
0000000000
0003F80000
0007F80000
0007FC0000
0007FC0000
000FFE0000
000FFE0000
001FFE0000
001FBF0000
001FBF0000
003F3F8000
003F1F8000
007F1F8000
007E0FC000
007E0FC000
00FC0FE000
00FC07E000
01FC07E000
01F807F000
01F803F000
03F803F000
03F001F800
07F001F800
07FFFFFC00
07FFFFFC00
0FFFFFFC00
0FFFFFFE00
1FFFFFFE00
1FC0007F00
1F80007F00
3F80003F00
3F80003F80
7F00003F80
7F00001FC0
7F00001FC0
FE00000FC0
FC00000FE0
ENDCHAR
STARTCHAR 00C2
ENCODING 194
SWIDTH 700 0
DWIDTH 35 0
BBX 35 46 0 0
BITMAP
0003F00000
0007F80000
000FFC0000
001FFE0000
003F3F0000
003E1F8000
00FC0FC000
0000000000
0000000000
0000000000
0003F80000
0007F80000
0007FC0000
0007FC0000
000FFE0000
000FFE0000
001FFE0000
001FBF0000
001FBF0000
003F3F8000
003F1F8000
007F1F8000
007E0FC000
007E0FC000
00FC0FE000
00FC07E000
01FC07E000
01F807F000
01F803F000
03F803F000
03F001F800
07F001F800
07FFFFFC00
07FFFFFC00
0FFFFFFC00
0FFFFFFE00
1FFFFFFE00
1FC0007F00
1F80007F00
3F80003F00
3F80003F80
7F00003F80
7F00001FC0
7F00001FC0
FE00000FC0
FC00000FE0
ENDCHAR
STARTCHAR 00C3
ENCODING 195
SWIDTH 700 0
DWIDTH 35 0
BBX 35 45 0 0
BITMAP
001F03C000
003F83C000
007FE7C000
007FFF8000
0078FF8000
00F07F0000
00F01E0000
0000000000
0000000000
0003F80000
0007F80000
0007FC0000
0007FC0000
000FFE0000
000FFE0000
001FFE0000
001FBF0000
001FBF0000
003F3F8000
003F1F8000
007F1F8000
007E0FC000
007E0FC000
00FC0FE000
00FC07E000
01FC07E000
01F807F000
01F803F000
03F803F000
03F001F800
07F001F800
07FFFFFC00
07FFFFFC00
0FFFFFFC00
0FFFFFFE00
1FFFFFFE00
1FC0007F00
1F80007F00
3F80003F00
3F80003F80
7F00003F80
7F00001FC0
7F00001FC0
FE00000FC0
FC00000FE0
ENDCHAR
STARTCHAR 00C4
ENCODING 196
SWIDTH 700 0
DWIDTH 35 0
BBX 35 45 0 0
BITMAP
0038070000
007C0F8000
00FE1FC000
00FE1FC000
00FE1FC000
007C0F8000
0038070000
0000000000
0000000000
0003F80000
0007F80000
0007FC0000
0007FC0000
000FFE0000
000FFE0000
001FFE0000
001FBF0000
001FBF0000
003F3F8000
003F1F8000
007F1F8000
007E0FC000
007E0FC000
00FC0FE000
00FC07E000
01FC07E000
01F807F000
01F803F000
03F803F000
03F001F800
07F001F800
07FFFFFC00
07FFFFFC00
0FFFFFFC00
0FFFFFFE00
1FFFFFFE00
1FC0007F00
1F80007F00
3F80003F00
3F80003F80
7F00003F80
7F00001FC0
7F00001FC0
FE00000FC0
FC00000FE0
ENDCHAR
STARTCHAR 00C5
ENCODING 197
SWIDTH 700 0
DWIDTH 35 0
BBX 35 48 0 0
BITMAP
0001E00000
0007F80000
000FF80000
000F3C0000
000E1C0000
000E1C0000
000E1C0000
000F3C0000
0007F80000
0001E00000
0000000000
0000000000
0003F80000
0007F80000
0007FC0000
0007FC0000
000FFE0000
000FFE0000
001FFE0000
001FBF0000
001FBF0000
003F3F8000
003F1F8000
007F1F8000
007E0FC000
007E0FC000
00FC0FE000
00FC07E000
01FC07E000
01F807F000
01F803F000
03F803F000
03F001F800
07F001F800
07FFFFFC00
07FFFFFC00
0FFFFFFC00
0FFFFFFE00
1FFFFFFE00
1FC0007F00
1F80007F00
3F80003F00
3F80003F80
7F00003F80
7F00001FC0
7F00001FC0
FE00000FC0
FC00000FE0
ENDCHAR
STARTCHAR 00C6
ENCODING 198
SWIDTH 940 0
DWIDTH 47 0
BBX 45 36 0 0
BITMAP
00003FFFFFF8
00007FFFFFF8
00007FFFFFF8
0000FFFFFFF8
0000FFFFFFF8
0001FFE00000
0001F7F00000
0003F7F00000
0003F7F00000
0007E3F00000
000FE3F00000
000FC3F00000
001FC3F00000
001F83F00000
003F83F80000
003F03FFFF80
007F03FFFF80
007E01FFFF80
00FE01FFFF80
00FC01FFFF80
01FC01F80000
01F801F80000
03FFFFFC0000
03FFFFFC0000
07FFFFFC0000
07FFFFFC0000
0FFFFFFC0000
0FC000FC0000
1FC000FC0000
1FC000FC0000
3F8000FC0000
3F8000FFFFF8
7F0000FFFFF8
7F0000FFFFF8
FE00007FFFF8
FC00007FFFF8
ENDCHAR
STARTCHAR 00C7
ENCODING 199
SWIDTH 660 0
DWIDTH 33 0
BBX 30 45 2 -9
BITMAP
0007FC00
003FFFC0
00FFFFF0
01FFFFF8
07FFFFFC
0FFC07F8
0FF000F0
1FE00060
3FC00000
3F800000
7F000000
7F000000
7F000000
FE000000
FE000000
FE000000
FE000000
FE000000
FE000000
FE000000
FE000000
FE000000
FE000000
7F000000
7F000000
7F800000
3F800000
3FC00020
1FE00078
1FF801F8
0FFFFFFC
07FFFFFC
03FFFFF8
01FFFFE0
007FFFC0
000FFE00
0001E000
0001E000
0001FC00
0003FC00
00003E00
00003E00
0003FE00
0007FC00
0003F000
ENDCHAR
STARTCHAR 00C8
ENCODING 200
SWIDTH 580 0
DWIDTH 29 0
BBX 23 47 4 0
BITMAP
7F8000
3FC000
0FE000
07F000
03F800
01F800
00FC00
007E00
000000
000000
000000
FFFFFE
FFFFFE
FFFFFE
FFFFFE
FFFFFE
FE0000
FE0000
FE0000
FE0000
FE0000
FE0000
FE0000
FE0000
FE0000
FE0000
FFFFE0
FFFFE0
FFFFE0
FFFFE0
FFFFE0
FE0000
FE0000
FE0000
FE0000
FE0000
FE0000
FE0000
FE0000
FE0000
FE0000
FE0000
FFFFFE
FFFFFE
FFFFFE
FFFFFE
FFFFFE
ENDCHAR
STARTCHAR 00C9
ENCODING 201
SWIDTH 580 0
DWIDTH 29 0
BBX 23 47 4 0
BITMAP
0007FC
000FF0
001FE0
001FC0
003F80
007F00
00FE00
01FC00
000000
000000
000000
FFFFFE
FFFFFE
FFFFFE
FFFFFE
FFFFFE
FE0000
FE0000
FE0000
FE0000
FE0000
FE0000
FE0000
FE0000
FE0000
FE0000
FFFFE0
FFFFE0
FFFFE0
FFFFE0
FFFFE0
FE0000
FE0000
FE0000
FE0000
FE0000
FE0000
FE0000
FE0000
FE0000
FE0000
FE0000
FFFFFE
FFFFFE
FFFFFE
FFFFFE
FFFFFE
ENDCHAR
STARTCHAR 00CA
ENCODING 202
SWIDTH 580 0
DWIDTH 29 0
BBX 23 46 4 0
BITMAP
007E00
00FF00
01FF80
03FFC0
07E7E0
07C3F0
1F81F8
000000
000000
000000
FFFFFE
FFFFFE
FFFFFE
FFFFFE
FFFFFE
FE0000
FE0000
FE0000
FE0000
FE0000
FE0000
FE0000
FE0000
FE0000
FE0000
FFFFE0
FFFFE0
FFFFE0
FFFFE0
FFFFE0
FE0000
FE0000
FE0000
FE0000
FE0000
FE0000
FE0000
FE0000
FE0000
FE0000
FE0000
FFFFFE
FFFFFE
FFFFFE
FFFFFE
FFFFFE
ENDCHAR
STARTCHAR 00CB
ENCODING 203
SWIDTH 580 0
DWIDTH 29 0
BBX 23 45 4 0
BITMAP
0700E0
0F81F0
1FC3F8
1FC3F8
1FC3F8
0F81F0
0700E0
000000
000000
FFFFFE
FFFFFE
FFFFFE
FFFFFE
FFFFFE
FE0000
FE0000
FE0000
FE0000
FE0000
FE0000
FE0000
FE0000
FE0000
FE0000
FFFFE0
FFFFE0
FFFFE0
FFFFE0
FFFFE0
FE0000
FE0000
FE0000
FE0000
FE0000
FE0000
FE0000
FE0000
FE0000
FE0000
FE0000
FFFFFE
FFFFFE
FFFFFE
FFFFFE
FFFFFE
ENDCHAR
STARTCHAR 00CC
ENCODING 204
SWIDTH 300 0
DWIDTH 15 0
BBX 14 47 -3 0
BITMAP
FF00
7F80
1FC0
0FE0
07F0
03F0
01F8
00FC
0000
0000
0000
01FC
01FC
01FC
01FC
01FC
01FC
01FC
01FC
01FC
01FC
01FC
01FC
01FC
01FC
01FC
01FC
01FC
01FC
01FC
01FC
01FC
01FC
01FC
01FC
01FC
01FC
01FC
01FC
01FC
01FC
01FC
01FC
01FC
01FC
01FC
01FC
ENDCHAR
STARTCHAR 00CD
ENCODING 205
SWIDTH 300 0
DWIDTH 15 0
BBX 15 47 3 0
BITMAP
03FE
07F8
0FF0
0FE0
1FC0
3F80
7F00
FE00
0000
0000
0000
7F00
7F00
7F00
7F00
7F00
7F00
7F00
7F00
7F00
7F00
7F00
7F00
7F00
7F00
7F00
7F00
7F00
7F00
7F00
7F00
7F00
7F00
7F00
7F00
7F00
7F00
7F00
7F00
7F00
7F00
7F00
7F00
7F00
7F00
7F00
7F00
ENDCHAR
STARTCHAR 00CE
ENCODING 206
SWIDTH 300 0
DWIDTH 15 0
BBX 18 46 -1 0
BITMAP
03F000
07F800
0FFC00
1FFE00
3F3F00
3E1F80
FC0FC0
000000
000000
000000
07F000
07F000
07F000
07F000
07F000
07F000
07F000
07F000
07F000
07F000
07F000
07F000
07F000
07F000
07F000
07F000
07F000
07F000
07F000
07F000
07F000
07F000
07F000
07F000
07F000
07F000
07F000
07F000
07F000
07F000
07F000
07F000
07F000
07F000
07F000
07F000
ENDCHAR
STARTCHAR 00CF
ENCODING 207
SWIDTH 300 0
DWIDTH 15 0
BBX 18 45 -1 0
BITMAP
380700
7C0F80
FE1FC0
FE1FC0
FE1FC0
7C0F80
380700
000000
000000
07F000
07F000
07F000
07F000
07F000
07F000
07F000
07F000
07F000
07F000
07F000
07F000
07F000
07F000
07F000
07F000
07F000
07F000
07F000
07F000
07F000
07F000
07F000
07F000
07F000
07F000
07F000
07F000
07F000
07F000
07F000
07F000
07F000
07F000
07F000
07F000
ENDCHAR
STARTCHAR 00D0
ENCODING 208
SWIDTH 780 0
DWIDTH 39 0
BBX 37 36 0 0
BITMAP
0FFFFE0000
0FFFFFC000
0FFFFFF000
0FFFFFFC00
0FFFFFFE00
0FE003FF00
0FE000FF80
0FE0003FC0
0FE0001FC0
0FE0001FE0
0FE0000FE0
0FE0000FF0
0FE00007F0
0FE00007F0
0FE00007F0
0FE00003F0
FFFFC003F8
FFFFC003F8
FFFFC003F8
FFFFC003F8
0FE00003F0
0FE00007F0
0FE00007F0
0FE00007F0
0FE0000FF0
0FE0000FE0
0FE0001FE0
0FE0001FC0
0FE0003FC0
0FE000FF80
0FE003FF00
0FFFFFFE00
0FFFFFFC00
0FFFFFF000
0FFFFFC000
0FFFFE0000
ENDCHAR
STARTCHAR 00D1
ENCODING 209
SWIDTH 780 0
DWIDTH 39 0
BBX 31 45 4 0
BITMAP
007C0F00
00FE0F00
01FF9F00
01FFFE00
01E3FE00
03C1FC00
03C07800
00000000
00000000
F800007E
FC00007E
FE00007E
FF00007E
FF00007E
FF80007E
FFC0007E
FFE0007E
FFF0007E
FFF0007E
FFF8007E
FFFC007E
FDFE007E
FCFF007E
FCFF007E
FC7F807E
FC3FC07E
FC1FE07E
FC0FE07E
FC0FF07E
FC07F87E
FC03FC7E
FC01FE7E
FC00FE7E
FC00FF7E
FC007FFE
FC003FFE
FC001FFE
FC000FFE
FC000FFE
FC0007FE
FC0003FE
FC0001FE
FC0000FE
FC0000FE
FC00007E
ENDCHAR
STARTCHAR 00D2
ENCODING 210
SWIDTH 800 0
DWIDTH 40 0
BBX 37 47 2 0
BITMAP
00FF000000
007F800000
001FC00000
000FE00000
0007F00000
0003F00000
0001F80000
0000FC0000
0000000000
0000000000
0000000000
0003FE0000
003FFFC000
00FFFFF000
01FFFFFC00
03FFFFFE00
07FE03FF00
0FF000FF80
1FE0003F80
3FC0001FC0
3F80001FE0
7F00000FE0
7F00000FE0
7F000007F0
FE000007F0
FE000007F0
FE000007F0
FE000003F0
FE000003F0
FE000003F8
FE000003F0
FE000007F0
FE000007F0
FE000007F0
7F000007F0
7F00000FE0
7F00000FE0
3F80001FE0
3FC0001FC0
1FE0003F80
0FF000FF80
07FC03FF00
03FFFFFE00
01FFFFFC00
00FFFFF000
003FFFC000
0003FE0000
ENDCHAR
STARTCHAR 00D3
ENCODING 211
SWIDTH 800 0
DWIDTH 40 0
BBX 37 47 2 0
BITMAP
00000FF800
00001FE000
00003FC000
00003F8000
00007F0000
0000FE0000
0001FC0000
0003F80000
0000000000
0000000000
0000000000
0003FE0000
003FFFC000
00FFFFF000
01FFFFFC00
03FFFFFE00
07FE03FF00
0FF000FF80
1FE0003F80
3FC0001FC0
3F80001FE0
7F00000FE0
7F00000FE0
7F000007F0
FE000007F0
FE000007F0
FE000007F0
FE000003F0
FE000003F0
FE000003F8
FE000003F0
FE000007F0
FE000007F0
FE000007F0
7F000007F0
7F00000FE0
7F00000FE0
3F80001FE0
3FC0001FC0
1FE0003F80
0FF000FF80
07FC03FF00
03FFFFFE00
01FFFFFC00
00FFFFF000
003FFFC000
0003FE0000
ENDCHAR
STARTCHAR 00D4
ENCODING 212
SWIDTH 800 0
DWIDTH 40 0
BBX 37 46 2 0
BITMAP
0001F80000
0003FC0000
0007FE0000
000FFF0000
001F9F8000
001F0FC000
007E07E000
0000000000
0000000000
0000000000
0003FE0000
003FFFC000
00FFFFF000
01FFFFFC00
03FFFFFE00
07FE03FF00
0FF000FF80
1FE0003F80
3FC0001FC0
3F80001FE0
7F00000FE0
7F00000FE0
7F000007F0
FE000007F0
FE000007F0
FE000007F0
FE000003F0
FE000003F0
FE000003F8
FE000003F0
FE000007F0
FE000007F0
FE000007F0
7F000007F0
7F00000FE0
7F00000FE0
3F80001FE0
3FC0001FC0
1FE0003F80
0FF000FF80
07FC03FF00
03FFFFFE00
01FFFFFC00
00FFFFF000
003FFFC000
0003FE0000
ENDCHAR
STARTCHAR 00D5
ENCODING 213
SWIDTH 800 0
DWIDTH 40 0
BBX 37 45 2 0
BITMAP
000F81E000
001FC1E000
003FF3E000
003FFFC000
003C7FC000
00783F8000
00780F0000
0000000000
0000000000
0003FE0000
003FFFC000
00FFFFF000
01FFFFFC00
03FFFFFE00
07FE03FF00
0FF000FF80
1FE0003F80
3FC0001FC0
3F80001FE0
7F00000FE0
7F00000FE0
7F000007F0
FE000007F0
FE000007F0
FE000007F0
FE000003F0
FE000003F0
FE000003F8
FE000003F0
FE000007F0
FE000007F0
FE000007F0
7F000007F0
7F00000FE0
7F00000FE0
3F80001FE0
3FC0001FC0
1FE0003F80
0FF000FF80
07FC03FF00
03FFFFFE00
01FFFFFC00
00FFFFF000
003FFFC000
0003FE0000
ENDCHAR
STARTCHAR 00D6
ENCODING 214
SWIDTH 800 0
DWIDTH 40 0
BBX 37 45 2 0
BITMAP
001C038000
003E07C000
007F0FE000
007F0FE000
007F0FE000
003E07C000
001C038000
0000000000
0000000000
0003FE0000
003FFFC000
00FFFFF000
01FFFFFC00
03FFFFFE00
07FE03FF00
0FF000FF80
1FE0003F80
3FC0001FC0
3F80001FE0
7F00000FE0
7F00000FE0
7F000007F0
FE000007F0
FE000007F0
FE000007F0
FE000003F0
FE000003F0
FE000003F8
FE000003F0
FE000007F0
FE000007F0
FE000007F0
7F000007F0
7F00000FE0
7F00000FE0
3F80001FE0
3FC0001FC0
1FE0003F80
0FF000FF80
07FC03FF00
03FFFFFE00
01FFFFFC00
00FFFFF000
003FFFC000
0003FE0000
ENDCHAR
STARTCHAR 00D7
ENCODING 215
SWIDTH 580 0
DWIDTH 29 0
BBX 23 23 3 5
BITMAP
100010
380038
7C007C
FE00FE
3F01FC
1F83F8
0FC7F0
07EFE0
03FFC0
01FF80
00FF00
00FE00
01FF00
03FF80
07FFC0
0FE7E0
1FC3F0
3F81F8
7F00FC
FE007E
FC003E
78001C
200008
ENDCHAR
STARTCHAR 00D8
ENCODING 216
SWIDTH 800 0
DWIDTH 40 0
BBX 37 40 2 -2
BITMAP
00000003F0
00000003C0
0003FE07C0
003FFFCF80
00FFFFFF00
01FFFFFF00
03FFFFFE00
07FE03FF00
0FF000FF80
1FE000FFC0
3FC001FFC0
3F8003FFE0
7F0003EFE0
7F0007CFF0
7F000F87F0
FE001F87F0
FE001F07F0
FE003E07F0
FE007C03F0
FE007C03F8
FE00F803F0
FE01F003F0
FE03F007F0
FE03E007F0
FE07C007F0
7F0F8007F0
7F0F800FE0
7F1F000FE0
3FBE001FE0
3FFC001FC0
1FFC003F80
1FF800FF80
0FFE03FF00
07FFFFFE00
03FFFFFC00
07FFFFF000
0FBFFFC000
1F07FE0000
1F00000000
7E00000000
ENDCHAR
STARTCHAR 00D9
ENCODING 217
SWIDTH 740 0
DWIDTH 37 0
BBX 30 47 4 0
BITMAP
0FF00000
07F80000
01FC0000
00FE0000
007F0000
003F0000
001F8000
000FC000
00000000
00000000
00000000
FC0001FC
FC0001FC
FC0001FC
FC0001FC
FC0001FC
FC0001FC
FC0001FC
FC0001FC
FC0001FC
FC0001FC
FC0001FC
FC0001FC
FC0001FC
FC0001FC
FC0001FC
FC0001FC
FC0001FC
FC0001FC
FC0001FC
FC0001FC
FC0001FC
FC0001FC
FC0001FC
FC0001F8
FE0003F8
FE0003F8
FF0007F8
7F0007F0
7FC00FF0
3FF03FE0
3FFFFFE0
1FFFFFC0
0FFFFF80
03FFFF00
01FFFC00
003FE000
ENDCHAR
STARTCHAR 00DA
ENCODING 218
SWIDTH 740 0
DWIDTH 37 0
BBX 30 47 4 0
BITMAP
0000FF80
0001FE00
0003FC00
0003F800
0007F000
000FE000
001FC000
003F8000
00000000
00000000
00000000
FC0001FC
FC0001FC
FC0001FC
FC0001FC
FC0001FC
FC0001FC
FC0001FC
FC0001FC
FC0001FC
FC0001FC
FC0001FC
FC0001FC
FC0001FC
FC0001FC
FC0001FC
FC0001FC
FC0001FC
FC0001FC
FC0001FC
FC0001FC
FC0001FC
FC0001FC
FC0001FC
FC0001F8
FE0003F8
FE0003F8
FF0007F8
7F0007F0
7FC00FF0
3FF03FE0
3FFFFFE0
1FFFFFC0
0FFFFF80
03FFFF00
01FFFC00
003FE000
ENDCHAR
STARTCHAR 00DB
ENCODING 219
SWIDTH 740 0
DWIDTH 37 0
BBX 30 46 4 0
BITMAP
000FC000
001FE000
003FF000
007FF800
00FCFC00
00F87E00
03F03F00
00000000
00000000
00000000
FC0001FC
FC0001FC
FC0001FC
FC0001FC
FC0001FC
FC0001FC
FC0001FC
FC0001FC
FC0001FC
FC0001FC
FC0001FC
FC0001FC
FC0001FC
FC0001FC
FC0001FC
FC0001FC
FC0001FC
FC0001FC
FC0001FC
FC0001FC
FC0001FC
FC0001FC
FC0001FC
FC0001F8
FE0003F8
FE0003F8
FF0007F8
7F0007F0
7FC00FF0
3FF03FE0
3FFFFFE0
1FFFFFC0
0FFFFF80
03FFFF00
01FFFC00
003FE000
ENDCHAR
STARTCHAR 00DC
ENCODING 220
SWIDTH 740 0
DWIDTH 37 0
BBX 30 45 4 0
BITMAP
00E01C00
01F03E00
03F87F00
03F87F00
03F87F00
01F03E00
00E01C00
00000000
00000000
FC0001FC
FC0001FC
FC0001FC
FC0001FC
FC0001FC
FC0001FC
FC0001FC
FC0001FC
FC0001FC
FC0001FC
FC0001FC
FC0001FC
FC0001FC
FC0001FC
FC0001FC
FC0001FC
FC0001FC
FC0001FC
FC0001FC
FC0001FC
FC0001FC
FC0001FC
FC0001FC
FC0001F8
FE0003F8
FE0003F8
FF0007F8
7F0007F0
7FC00FF0
3FF03FE0
3FFFFFE0
1FFFFFC0
0FFFFF80
03FFFF00
01FFFC00
003FE000
ENDCHAR
STARTCHAR 00DD
ENCODING 221
SWIDTH 640 0
DWIDTH 32 0
BBX 33 47 0 0
BITMAP
00003FE000
00007F8000
0000FF0000
0000FE0000
0001FC0000
0003F80000
0007F00000
000FE00000
0000000000
0000000000
0000000000
FE00007F80
7F00007F00
7F0000FE00
3F8001FE00
3F8001FC00
1FC003F800
0FE003F800
0FE007F000
07F007F000
07F00FE000
03F80FE000
03F81FC000
01FC1F8000
00FC3F8000
00FE3F0000
007E7F0000
007F7E0000
003FFC0000
001FFC0000
001FF80000
000FF80000
000FF00000
0007F00000
0007F00000
0007F00000
0007F00000
0007F00000
0007F00000
0007F00000
0007F00000
0007F00000
0007F00000
0007F00000
0007F00000
0007F00000
0007F00000
ENDCHAR
STARTCHAR 00DE
ENCODING 222
SWIDTH 620 0
DWIDTH 31 0
BBX 26 36 4 0
BITMAP
FE000000
FE000000
FE000000
FE000000
FE000000
FE000000
FFFF8000
FFFFF000
FFFFFC00
FFFFFE00
FFFFFF00
FE01FF00
FE007F80
FE003F80
FE001FC0
FE001FC0
FE001FC0
FE001FC0
FE001FC0
FE001FC0
FE003F80
FE003F80
FE007F80
FE01FF00
FFFFFF00
FFFFFE00
FFFFF800
FFFFF000
FFFF8000
FE000000
FE000000
FE000000
FE000000
FE000000
FE000000
FE000000
ENDCHAR
STARTCHAR 00DF
ENCODING 223
SWIDTH 600 0
DWIDTH 30 0
BBX 26 36 3 0
BITMAP
007F8000
03FFF000
07FFF800
1FFFFC00
3FFFFE00
3FC0FE00
7F007F00
7E003F00
FE003F00
FE003F00
FC007F00
FC00FE00
FC01FC00
FC03F800
FC0FE000
FC0FC000
FC1FC000
FC1F8000
FC1FC000
FC1FF000
FC1FF800
FC0FFE00
FC07FF00
FC01FF80
FC007F80
FC001FC0
FC000FC0
FC000FC0
FC000FC0
FC300FC0
FC7C1F80
FCFFFF80
FCFFFF00
FC7FFE00
FC1FFC00
FC07F000
ENDCHAR
STARTCHAR 00E0
ENCODING 224
SWIDTH 500 0
DWIDTH 25 0
BBX 22 36 1 0
BITMAP
0FE000
07F000
03F800
01F800
00FC00
007E00
003E00
000100
000000
000000
00FE00
07FFC0
1FFFE0
3FFFF0
7FFFF0
3F03F8
1C01F8
0001F8
0000FC
0000FC
0000FC
003FFC
03FFFC
0FFFFC
3FFFFC
7FC0FC
7F00FC
FE00FC
FC00FC
FC01FC
FC03FC
7E0FFC
7FFFFC
3FFEFC
1FFC7C
07E07C
ENDCHAR
STARTCHAR 00E1
ENCODING 225
SWIDTH 500 0
DWIDTH 25 0
BBX 22 36 1 0
BITMAP
0007F8
000FE0
000FC0
001F80
003F00
003F00
007E00
000000
000000
000000
00FE00
07FFC0
1FFFE0
3FFFF0
7FFFF0
3F03F8
1C01F8
0001F8
0000FC
0000FC
0000FC
003FFC
03FFFC
0FFFFC
3FFFFC
7FC0FC
7F00FC
FE00FC
FC00FC
FC01FC
FC03FC
7E0FFC
7FFFFC
3FFEFC
1FFC7C
07E07C
ENDCHAR
STARTCHAR 00E2
ENCODING 226
SWIDTH 500 0
DWIDTH 25 0
BBX 22 36 1 0
BITMAP
007E00
00FF00
01FF80
03FFC0
07E7E0
07C3E0
1F81F8
000000
000000
000000
00FE00
07FFC0
1FFFE0
3FFFF0
7FFFF0
3F03F8
1C01F8
0001F8
0000FC
0000FC
0000FC
003FFC
03FFFC
0FFFFC
3FFFFC
7FC0FC
7F00FC
FE00FC
FC00FC
FC01FC
FC03FC
7E0FFC
7FFFFC
3FFEFC
1FFC7C
07E07C
ENDCHAR
STARTCHAR 00E3
ENCODING 227
SWIDTH 500 0
DWIDTH 25 0
BBX 22 36 1 0
BITMAP
01F0F0
03FFF0
07FFF0
0FFFE0
0F1FC0
0F0780
000000
000000
000000
000000
00FE00
07FFC0
1FFFE0
3FFFF0
7FFFF0
3F03F8
1C01F8
0001F8
0000FC
0000FC
0000FC
003FFC
03FFFC
0FFFFC
3FFFFC
7FC0FC
7F00FC
FE00FC
FC00FC
FC01FC
FC03FC
7E0FFC
7FFFFC
3FFEFC
1FFC7C
07E07C
ENDCHAR
STARTCHAR 00E4
ENCODING 228
SWIDTH 500 0
DWIDTH 25 0
BBX 22 36 1 0
BITMAP
0781E0
0FC3F0
0FC3F0
1FC3F8
0FC3F0
0FC3F0
0781E0
000000
000000
000000
00FE00
07FFC0
1FFFE0
3FFFF0
7FFFF0
3F03F8
1C01F8
0001F8
0000FC
0000FC
0000FC
003FFC
03FFFC
0FFFFC
3FFFFC
7FC0FC
7F00FC
FE00FC
FC00FC
FC01FC
FC03FC
7E0FFC
7FFFFC
3FFEFC
1FFC7C
07E07C
ENDCHAR
STARTCHAR 00E5
ENCODING 229
SWIDTH 500 0
DWIDTH 25 0
BBX 22 38 1 0
BITMAP
003C00
00FF00
01FF80
01C380
03C3C0
03C3C0
01C380
01FF80
00FF00
003C00
000000
000000
00FE00
07FFC0
1FFFE0
3FFFF0
7FFFF0
3F03F8
1C01F8
0001F8
0000FC
0000FC
0000FC
003FFC
03FFFC
0FFFFC
3FFFFC
7FC0FC
7F00FC
FE00FC
FC00FC
FC01FC
FC03FC
7E0FFC
7FFFFC
3FFEFC
1FFC7C
07E07C
ENDCHAR
STARTCHAR 00E6
ENCODING 230
SWIDTH 800 0
DWIDTH 40 0
BBX 38 26 1 0
BITMAP
00FE00FE00
07FF83FF80
0FFFC7FFC0
1FFFCFFFE0
7FFFFFFFF0
3F03FF83F0
1C01FE01F8
0001FC00F8
0000FC00FC
0000FC00FC
003FFFFFFC
03FFFFFFFC
0FFFFFFFFC
1FFFFFFFFC
3FE0FC0000
7F00FC0000
7E00FC0000
FC01FC0000
FC01FE0000
FC01FF0070
FE03FF81F8
7F0FDFFFF8
7FFF8FFFFC
3FFF07FFF0
1FFE03FFC0
07F000FF00
ENDCHAR
STARTCHAR 00E7
ENCODING 231
SWIDTH 480 0
DWIDTH 24 0
BBX 21 35 2 -9
BITMAP
00FF00
03FFC0
0FFFF0
1FFFF8
3FFFF8
3FC1F0
7F0060
7E0000
FE0000
FC0000
FC0000
FC0000
FC0000
FC0000
FC0000
FC0000
FC0000
FE0000
7E0000
7F0020
7F80F0
3FE7F8
1FFFF8
0FFFF0
07FFE0
01FF00
007800
007800
007E00
00FF00
000F80
000F80
00FF80
01FF00
00FC00
ENDCHAR
STARTCHAR 00E8
ENCODING 232
SWIDTH 540 0
DWIDTH 27 0
BBX 23 36 2 0
BITMAP
0FE000
07F000
03F800
01F800
00FC00
007E00
003E00
000100
000000
000000
00FF00
03FFC0
0FFFE0
1FFFF0
3FFFF8
3F81FC
7F00FC
7E007E
FC007E
FC003E
FFFFFE
FFFFFE
FFFFFE
FFFFFE
FC0000
FC0000
FC0000
FE0000
7E0000
7F0038
3FC0FC
3FFFFE
1FFFFC
0FFFF8
03FFE0
00FF00
ENDCHAR
STARTCHAR 00E9
ENCODING 233
SWIDTH 540 0
DWIDTH 27 0
BBX 23 36 2 0
BITMAP
0007F8
000FE0
000FC0
001F80
003F00
003F00
007E00
000000
000000
000000
00FF00
03FFC0
0FFFE0
1FFFF0
3FFFF8
3F81FC
7F00FC
7E007E
FC007E
FC003E
FFFFFE
FFFFFE
FFFFFE
FFFFFE
FC0000
FC0000
FC0000
FE0000
7E0000
7F0038
3FC0FC
3FFFFE
1FFFFC
0FFFF8
03FFE0
00FF00
ENDCHAR
STARTCHAR 00EA
ENCODING 234
SWIDTH 540 0
DWIDTH 27 0
BBX 23 36 2 0
BITMAP
007E00
00FF00
01FF80
03FFC0
07E7E0
07C3E0
1F81F8
000000
000000
000000
00FF00
03FFC0
0FFFE0
1FFFF0
3FFFF8
3F81FC
7F00FC
7E007E
FC007E
FC003E
FFFFFE
FFFFFE
FFFFFE
FFFFFE
FC0000
FC0000
FC0000
FE0000
7E0000
7F0038
3FC0FC
3FFFFE
1FFFFC
0FFFF8
03FFE0
00FF00
ENDCHAR
STARTCHAR 00EB
ENCODING 235
SWIDTH 540 0
DWIDTH 27 0
BBX 23 36 2 0
BITMAP
0781E0
0FC3F0
0FC3F0
1FC3F8
0FC3F0
0FC3F0
0781E0
000000
000000
000000
00FF00
03FFC0
0FFFE0
1FFFF0
3FFFF8
3F81FC
7F00FC
7E007E
FC007E
FC003E
FFFFFE
FFFFFE
FFFFFE
FFFFFE
FC0000
FC0000
FC0000
FE0000
7E0000
7F0038
3FC0FC
3FFFFE
1FFFFC
0FFFF8
03FFE0
00FF00
ENDCHAR
STARTCHAR 00EC
ENCODING 236
SWIDTH 260 0
DWIDTH 13 0
BBX 12 36 -1 0
BITMAP
FE00
7F00
3F80
1F80
0FC0
07E0
03E0
0010
0000
0000
0FC0
0FC0
0FC0
0FC0
0FC0
0FC0
0FC0
0FC0
0FC0
0FC0
0FC0
0FC0
0FC0
0FC0
0FC0
0FC0
0FC0
0FC0
0FC0
0FC0
0FC0
0FC0
0FC0
0FC0
0FC0
0FC0
ENDCHAR
STARTCHAR 00ED
ENCODING 237
SWIDTH 260 0
DWIDTH 13 0
BBX 13 36 3 0
BITMAP
07F8
0FE0
0FC0
1F80
3F00
3F00
7E00
0000
0000
0000
FC00
FC00
FC00
FC00
FC00
FC00
FC00
FC00
FC00
FC00
FC00
FC00
FC00
FC00
FC00
FC00
FC00
FC00
FC00
FC00
FC00
FC00
FC00
FC00
FC00
FC00
ENDCHAR
STARTCHAR 00EE
ENCODING 238
SWIDTH 260 0
DWIDTH 13 0
BBX 18 36 -2 0
BITMAP
03F000
07F800
0FFC00
1FFE00
3F3F00
3E1F00
FC0FC0
000000
000000
000000
07E000
07E000
07E000
07E000
07E000
07E000
07E000
07E000
07E000
07E000
07E000
07E000
07E000
07E000
07E000
07E000
07E000
07E000
07E000
07E000
07E000
07E000
07E000
07E000
07E000
07E000
ENDCHAR
STARTCHAR 00EF
ENCODING 239
SWIDTH 260 0
DWIDTH 13 0
BBX 16 36 -1 0
BITMAP
381C
7E7E
FE7F
FE7F
FE7F
7E7E
3C3C
0000
0000
0000
0FC0
0FC0
0FC0
0FC0
0FC0
0FC0
0FC0
0FC0
0FC0
0FC0
0FC0
0FC0
0FC0
0FC0
0FC0
0FC0
0FC0
0FC0
0FC0
0FC0
0FC0
0FC0
0FC0
0FC0
0FC0
0FC0
ENDCHAR
STARTCHAR 00F0
ENCODING 240
SWIDTH 580 0
DWIDTH 29 0
BBX 25 36 2 0
BITMAP
03C01000
07F87800
07FEF800
07FFF800
03FFE000
003FE000
007FF000
01FFF800
01F1F800
00E0FC00
00807E00
00007E00
01FC3E00
07FF3F00
0FFFDF00
1FFFFF00
3FFFFF00
7FC1FF00
7F007F80
FE003F80
FC003F80
FC001F80
FC001F80
FC001F00
FC003F00
FC003F00
FC003F00
FC003F00
FE007E00
7F00FE00
7F81FC00
3FFFFC00
1FFFF800
0FFFF000
07FFC000
00FF0000
ENDCHAR
STARTCHAR 00F1
ENCODING 241
SWIDTH 560 0
DWIDTH 28 0
BBX 22 36 3 0
BITMAP
03E1E0
07FFE0
0FFFE0
1FFFC0
1E3F80
1E0F00
000000
000000
000000
000000
F83F80
F8FFE0
FFFFF0
FFFFF8
FFFFF8
FF83FC
FF01FC
FE00FC
FC00FC
FC00FC
FC00FC
FC00FC
FC00FC
FC00FC
FC00FC
FC00FC
FC00FC
FC00FC
FC00FC
FC00FC
FC00FC
FC00FC
FC00FC
FC00FC
FC00FC
FC00FC
ENDCHAR
STARTCHAR 00F2
ENCODING 242
SWIDTH 580 0
DWIDTH 29 0
BBX 25 36 2 0
BITMAP
0FE00000
07F00000
03F80000
01F80000
00FC0000
007E0000
003E0000
00010000
00000000
00000000
00FF0000
03FFE000
0FFFF000
1FFFFC00
3FFFFC00
3FC1FE00
7F007F00
7E007F00
FE003F00
FC003F80
FC003F80
FC001F80
FC001F80
FC001F80
FC001F80
FC003F80
FC003F80
FE003F00
7E007F00
7F007F00
3FC1FE00
3FFFFC00
1FFFFC00
0FFFF000
03FFE000
00FF0000
ENDCHAR
STARTCHAR 00F3
ENCODING 243
SWIDTH 580 0
DWIDTH 29 0
BBX 25 36 2 0
BITMAP
0007F800
000FE000
000FC000
001F8000
003F0000
003F0000
007E0000
00000000
00000000
00000000
00FF0000
03FFE000
0FFFF000
1FFFFC00
3FFFFC00
3FC1FE00
7F007F00
7E007F00
FE003F00
FC003F80
FC003F80
FC001F80
FC001F80
FC001F80
FC001F80
FC003F80
FC003F80
FE003F00
7E007F00
7F007F00
3FC1FE00
3FFFFC00
1FFFFC00
0FFFF000
03FFE000
00FF0000
ENDCHAR
STARTCHAR 00F4
ENCODING 244
SWIDTH 580 0
DWIDTH 29 0
BBX 25 36 2 0
BITMAP
007E0000
00FF0000
01FF8000
03FFC000
07E7E000
07C3E000
1F81F800
00000000
00000000
00000000
00FF0000
03FFE000
0FFFF000
1FFFFC00
3FFFFC00
3FC1FE00
7F007F00
7E007F00
FE003F00
FC003F80
FC003F80
FC001F80
FC001F80
FC001F80
FC001F80
FC003F80
FC003F80
FE003F00
7E007F00
7F007F00
3FC1FE00
3FFFFC00
1FFFFC00
0FFFF000
03FFE000
00FF0000
ENDCHAR
STARTCHAR 00F5
ENCODING 245
SWIDTH 580 0
DWIDTH 29 0
BBX 25 36 2 0
BITMAP
01F0F000
03FFF000
07FFF000
0FFFE000
0F1FC000
0F078000
00000000
00000000
00000000
00000000
00FF0000
03FFE000
0FFFF000
1FFFFC00
3FFFFC00
3FC1FE00
7F007F00
7E007F00
FE003F00
FC003F80
FC003F80
FC001F80
FC001F80
FC001F80
FC001F80
FC003F80
FC003F80
FE003F00
7E007F00
7F007F00
3FC1FE00
3FFFFC00
1FFFFC00
0FFFF000
03FFE000
00FF0000
ENDCHAR
STARTCHAR 00F6
ENCODING 246
SWIDTH 580 0
DWIDTH 29 0
BBX 25 36 2 0
BITMAP
0781E000
0FC3F000
0FC3F000
1FC3F800
0FC3F000
0FC3F000
0781E000
00000000
00000000
00000000
00FF0000
03FFE000
0FFFF000
1FFFFC00
3FFFFC00
3FC1FE00
7F007F00
7E007F00
FE003F00
FC003F80
FC003F80
FC001F80
FC001F80
FC001F80
FC001F80
FC003F80
FC003F80
FE003F00
7E007F00
7F007F00
3FC1FE00
3FFFFC00
1FFFFC00
0FFFF000
03FFE000
00FF0000
ENDCHAR
STARTCHAR 00F7
ENCODING 247
SWIDTH 580 0
DWIDTH 29 0
BBX 25 26 2 4
BITMAP
001C0000
007E0000
007F0000
007F0000
007F0000
007F0000
007E0000
001C0000
00000000
00000000
00000000
FFFFFF80
FFFFFF80
FFFFFF80
FFFFFF80
FFFFFF80
00000000
00000000
001C0000
007E0000
007F0000
007F0000
007F0000
007F0000
007E0000
001C0000
ENDCHAR
STARTCHAR 00F8
ENCODING 248
SWIDTH 580 0
DWIDTH 29 0
BBX 27 30 1 -1
BITMAP
000000E0
000003C0
000007C0
007F8F80
01FFFF00
07FFFE00
0FFFFE00
1FFFFF00
1FE0FF00
3F80FF80
3F01FF80
7F01FFC0
7E03EFC0
7E07CFC0
7E0F8FC0
7E1F0FC0
7E1E0FC0
7E3E0FC0
7E7C0FC0
7EF80FC0
7EF01F80
3FE01F80
3FE03F80
1FC0FF00
0FFFFE00
0FFFFE00
1FFFF800
3FFFF000
3C3F8000
F8000000
ENDCHAR
STARTCHAR 00F9
ENCODING 249
SWIDTH 560 0
DWIDTH 28 0
BBX 22 36 3 0
BITMAP
1FC000
0FE000
07F000
03F000
01F800
00FC00
007C00
000200
000000
000000
FC00FC
FC00FC
FC00FC
FC00FC
FC00FC
FC00FC
FC00FC
FC00FC
FC00FC
FC00FC
FC00FC
FC00FC
FC00FC
FC00FC
FC00FC
FC00FC
FC00FC
FC00FC
FC00FC
FE01FC
FF07FC
7FFFFC
7FFFFC
3FFE7C
1FFC7C
07F07C
ENDCHAR
STARTCHAR 00FA
ENCODING 250
SWIDTH 560 0
DWIDTH 28 0
BBX 22 36 3 0
BITMAP
000FF0
001FC0
001F80
003F00
007E00
007E00
00FC00
000000
000000
000000
FC00FC
FC00FC
FC00FC
FC00FC
FC00FC
FC00FC
FC00FC
FC00FC
FC00FC
FC00FC
FC00FC
FC00FC
FC00FC
FC00FC
FC00FC
FC00FC
FC00FC
FC00FC
FC00FC
FE01FC
FF07FC
7FFFFC
7FFFFC
3FFE7C
1FFC7C
07F07C
ENDCHAR
STARTCHAR 00FB
ENCODING 251
SWIDTH 560 0
DWIDTH 28 0
BBX 22 36 3 0
BITMAP
00FC00
01FE00
03FF00
07FF80
0FCFC0
0F87C0
3F03F0
000000
000000
000000
FC00FC
FC00FC
FC00FC
FC00FC
FC00FC
FC00FC
FC00FC
FC00FC
FC00FC
FC00FC
FC00FC
FC00FC
FC00FC
FC00FC
FC00FC
FC00FC
FC00FC
FC00FC
FC00FC
FE01FC
FF07FC
7FFFFC
7FFFFC
3FFE7C
1FFC7C
07F07C
ENDCHAR
STARTCHAR 00FC
ENCODING 252
SWIDTH 560 0
DWIDTH 28 0
BBX 22 36 3 0
BITMAP
0F03C0
1F87E0
1F87E0
3F87F0
1F87E0
1F87E0
0F03C0
000000
000000
000000
FC00FC
FC00FC
FC00FC
FC00FC
FC00FC
FC00FC
FC00FC
FC00FC
FC00FC
FC00FC
FC00FC
FC00FC
FC00FC
FC00FC
FC00FC
FC00FC
FC00FC
FC00FC
FC00FC
FE01FC
FF07FC
7FFFFC
7FFFFC
3FFE7C
1FFC7C
07F07C
ENDCHAR
STARTCHAR 00FD
ENCODING 253
SWIDTH 520 0
DWIDTH 26 0
BBX 26 44 0 -8
BITMAP
0001FE00
0003F800
0003F000
0007E000
000FC000
000FC000
001F8000
00000000
00000000
00000000
FE000FC0
7E000FC0
7F001F80
3F001F80
3F803F00
1F803F00
1FC03F00
1FC07E00
0FC07E00
0FE0FC00
07E0FC00
07F0F800
03F1F800
03F1F800
01FBF000
01FBF000
01FBE000
00FFE000
00FFC000
007FC000
007FC000
003F8000
003F8000
003F0000
003F0000
003E0000
007E0000
007E0000
00FC0000
00FC0000
01F80000
01F80000
03F00000
03F00000
ENDCHAR
STARTCHAR 00FE
ENCODING 254
SWIDTH 560 0
DWIDTH 28 0
BBX 24 45 3 -8
BITMAP
FC0000
FC0000
FC0000
FC0000
FC0000
FC0000
FC0000
FC0000
FC0000
FC0000
FC0000
FC1F80
FC7FE0
FDFFF0
FFFFF8
FFFFFC
FF83FC
FF00FE
FE00FE
FC007E
FC007E
FC007F
FC007F
FC007F
FC007F
FC007F
FC007E
FC007E
FC00FE
FC00FE
FE01FC
FF03FC
FFFFF8
FFFFF0
FDFFE0
FCFFC0
FC3F00
FC0000
FC0000
FC0000
FC0000
FC0000
FC0000
FC0000
FC0000
ENDCHAR
STARTCHAR 00FF
ENCODING 255
SWIDTH 520 0
DWIDTH 26 0
BBX 26 44 0 -8
BITMAP
01E07800
03F0FC00
03F0FC00
07F0FE00
03F0FC00
03F0FC00
01E07800
00000000
00000000
00000000
FE000FC0
7E000FC0
7F001F80
3F001F80
3F803F00
1F803F00
1FC03F00
1FC07E00
0FC07E00
0FE0FC00
07E0FC00
07F0F800
03F1F800
03F1F800
01FBF000
01FBF000
01FBE000
00FFE000
00FFC000
007FC000
007FC000
003F8000
003F8000
003F0000
003F0000
003E0000
007E0000
007E0000
00FC0000
00FC0000
01F80000
01F80000
03F00000
03F00000
ENDCHAR
STARTCHAR 0100
ENCODING 256
SWIDTH 700 0
DWIDTH 35 0
BBX 35 43 0 0
BITMAP
007FFF8000
007FFF8000
007FFF8000
007FFF8000
0000000000
0000000000
0000000000
0003F80000
0007F80000
0007FC0000
0007FC0000
000FFE0000
000FFE0000
001FFE0000
001FBF0000
001FBF0000
003F3F8000
003F1F8000
007F1F8000
007E0FC000
007E0FC000
00FC0FE000
00FC07E000
01FC07E000
01F807F000
01F803F000
03F803F000
03F001F800
07F001F800
07FFFFFC00
07FFFFFC00
0FFFFFFC00
0FFFFFFE00
1FFFFFFE00
1FC0007F00
1F80007F00
3F80003F00
3F80003F80
7F00003F80
7F00001FC0
7F00001FC0
FE00000FC0
FC00000FE0
ENDCHAR
STARTCHAR 0101
ENCODING 257
SWIDTH 500 0
DWIDTH 25 0
BBX 22 34 1 0
BITMAP
07FFE0
07FFE0
07FFE0
07FFE0
000000
000000
000000
000000
00FE00
07FFC0
1FFFE0
3FFFF0
7FFFF0
3F03F8
1C01F8
0001F8
0000FC
0000FC
0000FC
003FFC
03FFFC
0FFFFC
3FFFFC
7FC0FC
7F00FC
FE00FC
FC00FC
FC01FC
FC03FC
7E0FFC
7FFFFC
3FFEFC
1FFC7C
07E07C
ENDCHAR
STARTCHAR 0102
ENCODING 258
SWIDTH 700 0
DWIDTH 35 0
BBX 35 46 0 0
BITMAP
00780F8000
007C0F8000
007E1F8000
007FFF0000
003FFF0000
001FFE0000
0007F00000
0000000000
0000000000
0000000000
0003F80000
0007F80000
0007FC0000
0007FC0000
000FFE0000
000FFE0000
001FFE0000
001FBF0000
001FBF0000
003F3F8000
003F1F8000
007F1F8000
007E0FC000
007E0FC000
00FC0FE000
00FC07E000
01FC07E000
01F807F000
01F803F000
03F803F000
03F001F800
07F001F800
07FFFFFC00
07FFFFFC00
0FFFFFFC00
0FFFFFFE00
1FFFFFFE00
1FC0007F00
1F80007F00
3F80003F00
3F80003F80
7F00003F80
7F00001FC0
7F00001FC0
FE00000FC0
FC00000FE0
ENDCHAR
STARTCHAR 0103
ENCODING 259
SWIDTH 500 0
DWIDTH 25 0
BBX 22 36 1 0
BITMAP
0F81F0
0781E0
07C3E0
07FFE0
03FFC0
01FF80
007E00
000000
000000
000000
00FE00
07FFC0
1FFFE0
3FFFF0
7FFFF0
3F03F8
1C01F8
0001F8
0000FC
0000FC
0000FC
003FFC
03FFFC
0FFFFC
3FFFFC
7FC0FC
7F00FC
FE00FC
FC00FC
FC01FC
FC03FC
7E0FFC
7FFFFC
3FFEFC
1FFC7C
07E07C
ENDCHAR
STARTCHAR 0104
ENCODING 260
SWIDTH 700 0
DWIDTH 35 0
BBX 36 44 0 -8
BITMAP
0003F80000
0007F80000
0007FC0000
0007FC0000
000FFE0000
000FFE0000
001FFE0000
001FBF0000
001FBF0000
003F3F8000
003F1F8000
007F1F8000
007E1FC000
007E0FC000
00FC0FC000
00FC07E000
01FC07E000
01F807F000
01F803F000
03F803F000
03F001F800
07F001F800
07FFFFFC00
07FFFFFC00
0FFFFFFC00
0FFFFFFE00
1FFFFFFE00
1FC0007F00
1F80007F00
3F80003F00
3F80003F80
7F00003F80
7F00001FC0
7E00001FC0
FE00000FC0
FC00000FE0
0000000780
0000000E00
0000001E00
0000001E00
0000003FE0
0000001FF0
0000001FF0
00000007C0
ENDCHAR
STARTCHAR 0105
ENCODING 261
SWIDTH 500 0
DWIDTH 25 0
BBX 24 34 1 -8
BITMAP
00FE00
07FFC0
0FFFE0
3FFFF0
7FFFF0
3F03F8
1C01F8
0001F8
0000FC
0000FC
0000FC
003FFC
03FFFC
0FFFFC
3FFFFC
7FC0FC
7F00FC
FE00FC
FC00FC
FC01FC
FC03FC
7E0FFC
7FFFFC
3FFEFC
1FFC7C
07E03C
000070
0000E0
0001E0
0003E0
0003FE
0001FF
0001FF
00007C
ENDCHAR
STARTCHAR 0106
ENCODING 262
SWIDTH 660 0
DWIDTH 33 0
BBX 30 47 2 0
BITMAP
00000FF8
00001FE0
00003FC0
00003F80
00007F00
0000FE00
0001FC00
0003F800
00000000
00000000
00000000
0007FC00
003FFFC0
00FFFFF0
01FFFFF8
07FFFFFC
0FFC07F8
0FF000F0
1FE00060
3FC00000
3F800000
7F000000
7F000000
7F000000
FE000000
FE000000
FE000000
FE000000
FE000000
FE000000
FE000000
FE000000
FE000000
FE000000
7F000000
7F000000
7F800000
3F800000
3FC00000
1FE00070
1FF000F8
0FFC03FC
07FFFFFC
03FFFFF8
00FFFFF0
003FFFC0
0007FC00
ENDCHAR
STARTCHAR 0107
ENCODING 263
SWIDTH 480 0
DWIDTH 24 0
BBX 21 36 2 0
BITMAP
0007F8
000FE0
000FC0
001F80
003F00
003F00
007E00
000000
000000
000000
00FF00
03FFC0
0FFFF0
1FFFF8
3FFFF8
3FC1F0
7F0060
7E0000
FE0000
FC0000
FC0000
FC0000
FC0000
FC0000
FC0000
FC0000
FC0000
FE0000
7E0000
7F0070
3FC1F0
3FFFF8
1FFFF0
0FFFE0
07FFC0
00FE00
ENDCHAR
STARTCHAR 0108
ENCODING 264
SWIDTH 660 0
DWIDTH 33 0
BBX 30 46 2 0
BITMAP
0001F800
0003FC00
0007FE00
000FFF00
001F9F80
001F0FC0
007E07E0
00000000
00000000
00000000
0007FC00
003FFFC0
00FFFFF0
01FFFFF8
07FFFFFC
0FFC07F8
0FF000F0
1FE00060
3FC00000
3F800000
7F000000
7F000000
7F000000
FE000000
FE000000
FE000000
FE000000
FE000000
FE000000
FE000000
FE000000
FE000000
FE000000
7F000000
7F000000
7F800000
3F800000
3FC00000
1FE00070
1FF000F8
0FFC03FC
07FFFFFC
03FFFFF8
00FFFFF0
003FFFC0
0007FC00
ENDCHAR
STARTCHAR 0109
ENCODING 265
SWIDTH 480 0
DWIDTH 24 0
BBX 21 36 2 0
BITMAP
007E00
00FF00
01FF80
03FFC0
07E7E0
07C3E0
1F81F8
000000
000000
000000
00FF00
03FFC0
0FFFF0
1FFFF8
3FFFF8
3FC1F0
7F0060
7E0000
FE0000
FC0000
FC0000
FC0000
FC0000
FC0000
FC0000
FC0000
FC0000
FE0000
7E0000
7F0070
3FC1F0
3FFFF8
1FFFF0
0FFFE0
07FFC0
00FE00
ENDCHAR
STARTCHAR 010A
ENCODING 266
SWIDTH 660 0
DWIDTH 33 0
BBX 30 46 2 0
BITMAP
0000F000
0001F800
0003FC00
0003FC00
0003FC00
0001F800
0000F000
00000000
00000000
00000000
0007FC00
003FFFC0
00FFFFF0
01FFFFF8
07FFFFFC
0FFC07F8
0FF000F0
1FE00060
3FC00000
3F800000
7F000000
7F000000
7F000000
FE000000
FE000000
FE000000
FE000000
FE000000
FE000000
FE000000
FE000000
FE000000
FE000000
7F000000
7F000000
7F800000
3F800000
3FC00000
1FE00070
1FF000F8
0FFC03FC
07FFFFFC
03FFFFF8
00FFFFF0
003FFFC0
0007FC00
ENDCHAR
STARTCHAR 010B
ENCODING 267
SWIDTH 480 0
DWIDTH 24 0
BBX 21 37 2 0
BITMAP
003C00
007E00
00FF00
00FF00
00FF00
00FF00
007E00
003C00
000000
000000
000000
00FF00
03FFC0
0FFFF0
1FFFF8
3FFFF8
3FC1F0
7F0060
7E0000
FE0000
FC0000
FC0000
FC0000
FC0000
FC0000
FC0000
FC0000
FC0000
FE0000
7E0000
7F0070
3FC1F0
3FFFF8
1FFFF0
0FFFE0
07FFC0
00FE00
ENDCHAR
STARTCHAR 010C
ENCODING 268
SWIDTH 660 0
DWIDTH 33 0
BBX 30 46 2 0
BITMAP
007E07E0
003F0FC0
001F9F80
000FBF00
0007FE00
0003FC00
0001F800
00000000
00000000
00000000
0007FC00
003FFFC0
00FFFFF0
01FFFFF8
07FFFFFC
0FFC07F8
0FF000F0
1FE00060
3FC00000
3F800000
7F000000
7F000000
7F000000
FE000000
FE000000
FE000000
FE000000
FE000000
FE000000
FE000000
FE000000
FE000000
FE000000
7F000000
7F000000
7F800000
3F800000
3FC00000
1FE00070
1FF000F8
0FFC03FC
07FFFFFC
03FFFFF8
00FFFFF0
003FFFC0
0007FC00
ENDCHAR
STARTCHAR 010D
ENCODING 269
SWIDTH 480 0
DWIDTH 24 0
BBX 21 36 2 0
BITMAP
1F81F8
07C3E0
07E7E0
03FFC0
01FF80
00FF00
007E00
000000
000000
000000
00FF00
03FFC0
0FFFF0
1FFFF8
3FFFF8
3FC1F0
7F0060
7E0000
FE0000
FC0000
FC0000
FC0000
FC0000
FC0000
FC0000
FC0000
FC0000
FE0000
7E0000
7F0070
3FC1F0
3FFFF8
1FFFF0
0FFFE0
07FFC0
00FE00
ENDCHAR
STARTCHAR 010E
ENCODING 270
SWIDTH 760 0
DWIDTH 38 0
BBX 32 46 4 0
BITMAP
0FC0FC00
07E1F800
03F3F000
01F7E000
00FFC000
007F8000
003F0000
00000000
00000000
00000000
FFFFC000
FFFFFC00
FFFFFF00
FFFFFF80
FFFFFFC0
FE007FE0
FE000FF0
FE0007F8
FE0003FC
FE0001FC
FE0000FE
FE0000FE
FE0000FE
FE00007F
FE00007F
FE00007F
FE00007F
FE00007F
FE00007F
FE00007F
FE00007F
FE00007F
FE00007F
FE0000FE
FE0000FE
FE0000FE
FE0001FC
FE0003FC
FE0007F8
FE000FF0
FE007FF0
FFFFFFE0
FFFFFF80
FFFFFF00
FFFFFC00
FFFFE000
ENDCHAR
STARTCHAR 010F
ENCODING 271
SWIDTH 560 0
DWIDTH 28 0
BBX 32 37 2 0
BITMAP
00007E3E
00007E3F
00007E3E
00007E3E
00007E3C
00007E7C
00007E7C
00007E78
00007E78
00007E00
00007E00
01FC7E00
07FF7E00
0FFFFE00
1FFFFE00
3FFFFE00
3FC1FE00
7F00FE00
7E007E00
FE007E00
FE007E00
FC007E00
FC007E00
FC007E00
FC007E00
FC007E00
FC007E00
FC007E00
FE007E00
FE007E00
7F00FE00
7F83FE00
3FFFFE00
3FFFBE00
1FFF3E00
0FFE3E00
03F83E00
ENDCHAR
STARTCHAR 0110
ENCODING 272
SWIDTH 780 0
DWIDTH 39 0
BBX 37 36 0 0
BITMAP
0FFFFE0000
0FFFFFC000
0FFFFFF000
0FFFFFFC00
0FFFFFFE00
0FE003FF00
0FE000FF80
0FE0003FC0
0FE0001FC0
0FE0001FE0
0FE0000FE0
0FE0000FF0
0FE00007F0
0FE00007F0
0FE00007F0
0FE00003F0
FFFFC003F8
FFFFC003F8
FFFFC003F8
FFFFC003F8
0FE00003F0
0FE00007F0
0FE00007F0
0FE00007F0
0FE0000FF0
0FE0000FE0
0FE0001FE0
0FE0001FC0
0FE0003FC0
0FE000FF80
0FE003FF00
0FFFFFFE00
0FFFFFFC00
0FFFFFF000
0FFFFFC000
0FFFFE0000
ENDCHAR
STARTCHAR 0111
ENCODING 273
SWIDTH 560 0
DWIDTH 28 0
BBX 27 37 2 0
BITMAP
00007E00
00007E00
00007E00
00007E00
00007E00
000FFFE0
000FFFE0
000FFFE0
000FFFE0
00007E00
00007E00
01FC7E00
07FF7E00
0FFFFE00
1FFFFE00
3FFFFE00
3FC1FE00
7F00FE00
7E007E00
FE007E00
FE007E00
FC007E00
FC007E00
FC007E00
FC007E00
FC007E00
FC007E00
FC007E00
FE007E00
FE007E00
7F00FE00
7F83FE00
3FFFFE00
3FFFBE00
1FFF3E00
0FFE3E00
03F83E00
ENDCHAR
STARTCHAR 0112
ENCODING 274
SWIDTH 580 0
DWIDTH 29 0
BBX 23 43 4 0
BITMAP
0FFFF0
0FFFF0
0FFFF0
0FFFF0
000000
000000
000000
FFFFFE
FFFFFE
FFFFFE
FFFFFE
FFFFFE
FE0000
FE0000
FE0000
FE0000
FE0000
FE0000
FE0000
FE0000
FE0000
FE0000
FFFFE0
FFFFE0
FFFFE0
FFFFE0
FFFFE0
FE0000
FE0000
FE0000
FE0000
FE0000
FE0000
FE0000
FE0000
FE0000
FE0000
FE0000
FFFFFE
FFFFFE
FFFFFE
FFFFFE
FFFFFE
ENDCHAR
STARTCHAR 0113
ENCODING 275
SWIDTH 540 0
DWIDTH 27 0
BBX 23 34 2 0
BITMAP
07FFE0
07FFE0
07FFE0
07FFE0
000000
000000
000000
000000
00FF00
03FFC0
0FFFE0
1FFFF0
3FFFF8
3F81FC
7F00FC
7E007E
FC007E
FC003E
FFFFFE
FFFFFE
FFFFFE
FFFFFE
FC0000
FC0000
FC0000
FE0000
7E0000
7F0038
3FC0FC
3FFFFE
1FFFFC
0FFFF8
03FFE0
00FF00
ENDCHAR
STARTCHAR 0114
ENCODING 276
SWIDTH 580 0
DWIDTH 29 0
BBX 23 46 4 0
BITMAP
0F01F0
0F81F0
0FC3F0
0FFFE0
07FFE0
03FFC0
00FE00
000000
000000
000000
FFFFFE
FFFFFE
FFFFFE
FFFFFE
FFFFFE
FE0000
FE0000
FE0000
FE0000
FE0000
FE0000
FE0000
FE0000
FE0000
FE0000
FFFFE0
FFFFE0
FFFFE0
FFFFE0
FFFFE0
FE0000
FE0000
FE0000
FE0000
FE0000
FE0000
FE0000
FE0000
FE0000
FE0000
FE0000
FFFFFE
FFFFFE
FFFFFE
FFFFFE
FFFFFE
ENDCHAR
STARTCHAR 0115
ENCODING 277
SWIDTH 540 0
DWIDTH 27 0
BBX 23 36 2 0
BITMAP
0F81F0
0781E0
07C3E0
07FFE0
03FFC0
01FF80
007E00
000000
000000
000000
00FF00
03FFC0
0FFFE0
1FFFF0
3FFFF8
3F81FC
7F00FC
7E007E
FC007E
FC003E
FFFFFE
FFFFFE
FFFFFE
FFFFFE
FC0000
FC0000
FC0000
FE0000
7E0000
7F0038
3FC0FC
3FFFFE
1FFFFC
0FFFF8
03FFE0
00FF00
ENDCHAR
STARTCHAR 0116
ENCODING 278
SWIDTH 580 0
DWIDTH 29 0
BBX 23 46 4 0
BITMAP
003C00
007E00
00FF00
00FF00
00FF00
007E00
003C00
000000
000000
000000
FFFFFE
FFFFFE
FFFFFE
FFFFFE
FFFFFE
FE0000
FE0000
FE0000
FE0000
FE0000
FE0000
FE0000
FE0000
FE0000
FE0000
FFFFE0
FFFFE0
FFFFE0
FFFFE0
FFFFE0
FE0000
FE0000
FE0000
FE0000
FE0000
FE0000
FE0000
FE0000
FE0000
FE0000
FE0000
FFFFFE
FFFFFE
FFFFFE
FFFFFE
FFFFFE
ENDCHAR
STARTCHAR 0117
ENCODING 279
SWIDTH 540 0
DWIDTH 27 0
BBX 23 37 2 0
BITMAP
003C00
007E00
00FF00
00FF00
00FF00
00FF00
007E00
003C00
000000
000000
000000
00FF00
03FFC0
0FFFE0
1FFFF0
3FFFF8
3F81FC
7F00FC
7E007E
FC007E
FC003E
FFFFFE
FFFFFE
FFFFFE
FFFFFE
FC0000
FC0000
FC0000
FE0000
7E0000
7F0038
3FC0FC
3FFFFE
1FFFFC
0FFFF8
03FFE0
00FF00
ENDCHAR
STARTCHAR 0118
ENCODING 280
SWIDTH 580 0
DWIDTH 29 0
BBX 23 44 4 -8
BITMAP
FFFFFE
FFFFFE
FFFFFE
FFFFFE
FFFFFE
FE0000
FE0000
FE0000
FE0000
FE0000
FE0000
FE0000
FE0000
FE0000
FE0000
FFFFE0
FFFFE0
FFFFE0
FFFFE0
FFFFE0
FE0000
FE0000
FE0000
FE0000
FE0000
FE0000
FE0000
FE0000
FE0000
FE0000
FE0000
FFFFFE
FFFFFE
FFFFFE
FFFFFE
FFFFFE
0000F0
0001C0
0003C0
0007C0
0007FC
0007FE
0003FE
0001F8
ENDCHAR
STARTCHAR 0119
ENCODING 281
SWIDTH 540 0
DWIDTH 27 0
BBX 23 34 2 -8
BITMAP
00FF00
03FFC0
0FFFE0
1FFFF0
3FFFF8
3F81FC
7F00FC
7E007E
FC007E
FC003E
FFFFFE
FFFFFE
FFFFFE
FFFFFE
FC0000
FC0000
FC0000
FE0000
7E0000
7F0018
3F807C
3FFFFE
1FFFFC
0FFFF8
03FFE0
00FF00
001C00
007800
007800
00F800
00FF80
00FFC0
007FC0
003F00
ENDCHAR
STARTCHAR 011A
ENCODING 282
SWIDTH 580 0
DWIDTH 29 0
BBX 23 46 4 0
BITMAP
1F81F8
0FC3F0
07E7E0
03EFC0
01FF80
00FF00
007E00
000000
000000
000000
FFFFFE
FFFFFE
FFFFFE
FFFFFE
FFFFFE
FE0000
FE0000
FE0000
FE0000
FE0000
FE0000
FE0000
FE0000
FE0000
FE0000
FFFFE0
FFFFE0
FFFFE0
FFFFE0
FFFFE0
FE0000
FE0000
FE0000
FE0000
FE0000
FE0000
FE0000
FE0000
FE0000
FE0000
FE0000
FFFFFE
FFFFFE
FFFFFE
FFFFFE
FFFFFE
ENDCHAR
STARTCHAR 011B
ENCODING 283
SWIDTH 540 0
DWIDTH 27 0
BBX 23 36 2 0
BITMAP
1F81F8
07C3E0
07E7E0
03FFC0
01FF80
00FF00
007E00
000000
000000
000000
00FF00
03FFC0
0FFFE0
1FFFF0
3FFFF8
3F81FC
7F00FC
7E007E
FC007E
FC003E
FFFFFE
FFFFFE
FFFFFE
FFFFFE
FC0000
FC0000
FC0000
FE0000
7E0000
7F0038
3FC0FC
3FFFFE
1FFFFC
0FFFF8
03FFE0
00FF00
ENDCHAR
STARTCHAR 011C
ENCODING 284
SWIDTH 720 0
DWIDTH 36 0
BBX 32 46 2 0
BITMAP
0000FC00
0001FE00
0003FF00
0007FF80
000FCFC0
000F87E0
003F03F0
00000000
00000000
00000000
0003FF00
003FFFE0
00FFFFF8
01FFFFFE
03FFFFFF
0FFE01FE
0FF0007C
1FE0001C
3FC00000
3F800000
7F000000
7F000000
7F000000
FE000000
FE000000
FE000000
FE000000
FE000000
FE000FFF
FE000FFF
FE000FFF
FE000FFF
FE000FFF
7F00003F
7F00003F
7F80003F
3F80003F
3FC0003F
1FE0003F
0FF8003F
07FE01FF
03FFFFFF
01FFFFFF
007FFFFC
001FFFF0
0003FF00
ENDCHAR
STARTCHAR 011D
ENCODING 285
SWIDTH 520 0
DWIDTH 26 0
BBX 25 45 1 -9
BITMAP
007E0000
00FF0000
01FF8000
03FFC000
07E7E000
07C3E000
1F81F800
00000000
00000000
00000000
00FE0000
07FF8000
0FFFFF80
1FFFFF80
3FFFFF80
3F83FF00
7F01F800
7E00F800
7E00F800
7E00F800
7E00F800
3F01F800
3F83F800
1FFFF000
0FFFE000
07FFC000
0FFE0000
1F000000
3E000000
3F800000
3FFFC000
3FFFF800
1FFFFE00
0FFFFE00
1FFFFF00
7E007F00
7C003F00
FC003F00
FC003F00
FF00FE00
7FFFFE00
7FFFFC00
3FFFF800
0FFFE000
01FF0000
ENDCHAR
STARTCHAR 011E
ENCODING 286
SWIDTH 720 0
DWIDTH 36 0
BBX 32 46 2 0
BITMAP
001E03E0
001F03E0
001F87E0
001FFFC0
000FFFC0
0007FF80
0001FC00
00000000
00000000
00000000
0003FF00
003FFFE0
00FFFFF8
01FFFFFE
03FFFFFF
0FFE01FE
0FF0007C
1FE0001C
3FC00000
3F800000
7F000000
7F000000
7F000000
FE000000
FE000000
FE000000
FE000000
FE000000
FE000FFF
FE000FFF
FE000FFF
FE000FFF
FE000FFF
7F00003F
7F00003F
7F80003F
3F80003F
3FC0003F
1FE0003F
0FF8003F
07FE01FF
03FFFFFF
01FFFFFF
007FFFFC
001FFFF0
0003FF00
ENDCHAR
STARTCHAR 011F
ENCODING 287
SWIDTH 520 0
DWIDTH 26 0
BBX 25 45 1 -9
BITMAP
0F81F000
0781E000
07C3E000
07FFE000
03FFC000
01FF8000
007E0000
00000000
00000000
00000000
00FE0000
07FF8000
0FFFFF80
1FFFFF80
3FFFFF80
3F83FF00
7F01F800
7E00F800
7E00F800
7E00F800
7E00F800
3F01F800
3F83F800
1FFFF000
0FFFE000
07FFC000
0FFE0000
1F000000
3E000000
3F800000
3FFFC000
3FFFF800
1FFFFE00
0FFFFE00
1FFFFF00
7E007F00
7C003F00
FC003F00
FC003F00
FF00FE00
7FFFFE00
7FFFFC00
3FFFF800
0FFFE000
01FF0000
ENDCHAR
STARTCHAR 0120
ENCODING 288
SWIDTH 720 0
DWIDTH 36 0
BBX 32 46 2 0
BITMAP
00007800
0000FC00
0001FE00
0001FE00
0001FE00
0000FC00
00007800
00000000
00000000
00000000
0003FF00
003FFFE0
00FFFFF8
01FFFFFE
03FFFFFF
0FFE01FE
0FF0007C
1FE0001C
3FC00000
3F800000
7F000000
7F000000
7F000000
FE000000
FE000000
FE000000
FE000000
FE000000
FE000FFF
FE000FFF
FE000FFF
FE000FFF
FE000FFF
7F00003F
7F00003F
7F80003F
3F80003F
3FC0003F
1FE0003F
0FF8003F
07FE01FF
03FFFFFF
01FFFFFF
007FFFFC
001FFFF0
0003FF00
ENDCHAR
STARTCHAR 0121
ENCODING 289
SWIDTH 520 0
DWIDTH 26 0
BBX 25 46 1 -9
BITMAP
003C0000
007E0000
00FF0000
00FF0000
00FF0000
00FF0000
007E0000
003C0000
00000000
00000000
00000000
00FE0000
07FF8000
0FFFFF80
1FFFFF80
3FFFFF80
3F83FF00
7F01F800
7E00F800
7E00F800
7E00F800
7E00F800
3F01F800
3F83F800
1FFFF000
0FFFE000
07FFC000
0FFE0000
1F000000
3E000000
3F800000
3FFFC000
3FFFF800
1FFFFE00
0FFFFE00
1FFFFF00
7E007F00
7C003F00
FC003F00
FC003F00
FF00FE00
7FFFFE00
7FFFFC00
3FFFF800
0FFFE000
01FF0000
ENDCHAR
STARTCHAR 0122
ENCODING 290
SWIDTH 720 0
DWIDTH 36 0
BBX 32 46 2 -10
BITMAP
0003FF00
003FFFE0
00FFFFF8
01FFFFFE
03FFFFFF
0FFE01FE
0FF0007C
1FE0001C
3FC00000
3F800000
7F000000
7F000000
7F000000
FE000000
FE000000
FE000000
FE000000
FE000000
FE000FFF
FE000FFF
FE000FFF
FE000FFF
FE000FFF
7F00003F
7F00003F
7F80003F
3F80003F
3FC0003F
1FE0003F
0FF8003F
07FE01FF
03FFFFFF
01FFFFFF
007FFFFC
001FFFF0
0003FF80
00000000
00000000
00000000
0003E000
0003E000
0003E000
0003C000
0007C000
0007C000
00078000
ENDCHAR
STARTCHAR 0123
ENCODING 291
SWIDTH 520 0
DWIDTH 26 0
BBX 25 45 1 -9
BITMAP
000F0000
001F0000
001E0000
001E0000
003E0000
003E0000
007E0000
00000000
00000000
00000000
00FE0000
07FF8000
0FFFFF80
1FFFFF80
3FFFFF80
3F83FF00
7F01F800
7E00F800
7E00F800
7E00F800
7E00F800
3F01F800
3F83F800
1FFFF000
0FFFE000
07FFC000
0FFE0000
1F000000
3E000000
3F800000
3FFFC000
3FFFF800
1FFFFE00
0FFFFE00
1FFFFF00
7E007F00
7C003F00
FC003F00
FC003F00
FF00FE00
7FFFFE00
7FFFFC00
3FFFF800
0FFFE000
01FF0000
ENDCHAR
STARTCHAR 0124
ENCODING 292
SWIDTH 780 0
DWIDTH 39 0
BBX 31 46 4 0
BITMAP
000FC000
001FE000
003FF000
007FF800
00FCFC00
00F87E00
03F03F00
00000000
00000000
00000000
FE0000FE
FE0000FE
FE0000FE
FE0000FE
FE0000FE
FE0000FE
FE0000FE
FE0000FE
FE0000FE
FE0000FE
FE0000FE
FE0000FE
FE0000FE
FE0000FE
FE0000FE
FFFFFFFE
FFFFFFFE
FFFFFFFE
FFFFFFFE
FFFFFFFE
FE0000FE
FE0000FE
FE0000FE
FE0000FE
FE0000FE
FE0000FE
FE0000FE
FE0000FE
FE0000FE
FE0000FE
FE0000FE
FE0000FE
FE0000FE
FE0000FE
FE0000FE
FE0000FE
ENDCHAR
STARTCHAR 0125
ENCODING 293
SWIDTH 560 0
DWIDTH 28 0
BBX 28 46 -3 0
BITMAP
03F00000
07F80000
0FFC0000
1FFE0000
3F3F0000
3E1F8000
FC0FC000
00000000
00000000
03F00000
03F00000
03F00000
03F00000
03F00000
03F00000
03F00000
03F00000
03F00000
03F00000
03F00000
03F07E00
03F3FF80
03F7FFC0
03FFFFE0
03FFFFE0
03FE0FF0
03FC07F0
03F803F0
03F003F0
03F003F0
03F003F0
03F003F0
03F003F0
03F003F0
03F003F0
03F003F0
03F003F0
03F003F0
03F003F0
03F003F0
03F003F0
03F003F0
03F003F0
03F003F0
03F003F0
03F003F0
ENDCHAR
STARTCHAR 0126
ENCODING 294
SWIDTH 780 0
DWIDTH 39 0
BBX 38 36 1 0
BITMAP
1FC0001FC0
1FC0001FC0
1FC0001FC0
1FC0001FC0
1FC0001FC0
1FC0001FC0
FFFFFFFFFC
FFFFFFFFFC
FFFFFFFFFC
FFFFFFFFFC
1FC0001FC0
1FC0001FC0
1FC0001FC0
1FC0001FC0
1FC0001FC0
1FFFFFFFC0
1FFFFFFFC0
1FFFFFFFC0
1FFFFFFFC0
1FFFFFFFC0
1FC0001FC0
1FC0001FC0
1FC0001FC0
1FC0001FC0
1FC0001FC0
1FC0001FC0
1FC0001FC0
1FC0001FC0
1FC0001FC0
1FC0001FC0
1FC0001FC0
1FC0001FC0
1FC0001FC0
1FC0001FC0
1FC0001FC0
1FC0001FC0
ENDCHAR
STARTCHAR 0127
ENCODING 295
SWIDTH 560 0
DWIDTH 28 0
BBX 26 37 -1 0
BITMAP
0FC00000
0FC00000
0FC00000
0FC00000
0FC00000
FFFF8000
FFFF8000
FFFF8000
FFFF8000
0FC00000
0FC00000
0FC1F800
0FCFFE00
0FDFFF00
0FFFFF80
0FFFFF80
0FFC3FC0
0FF01FC0
0FE00FC0
0FC00FC0
0FC00FC0
0FC00FC0
0FC00FC0
0FC00FC0
0FC00FC0
0FC00FC0
0FC00FC0
0FC00FC0
0FC00FC0
0FC00FC0
0FC00FC0
0FC00FC0
0FC00FC0
0FC00FC0
0FC00FC0
0FC00FC0
0FC00FC0
ENDCHAR
STARTCHAR 0128
ENCODING 296
SWIDTH 300 0
DWIDTH 15 0
BBX 18 45 -1 0
BITMAP
1F03C0
3F83C0
7FE7C0
7FFF80
78FF80
F07F00
F01E00
000000
000000
07F000
07F000
07F000
07F000
07F000
07F000
07F000
07F000
07F000
07F000
07F000
07F000
07F000
07F000
07F000
07F000
07F000
07F000
07F000
07F000
07F000
07F000
07F000
07F000
07F000
07F000
07F000
07F000
07F000
07F000
07F000
07F000
07F000
07F000
07F000
07F000
ENDCHAR
STARTCHAR 0129
ENCODING 297
SWIDTH 260 0
DWIDTH 13 0
BBX 16 36 -1 0
BITMAP
1F0F
3FFF
7FFF
FFFE
F1FC
F078
0000
0000
0000
0000
0FC0
0FC0
0FC0
0FC0
0FC0
0FC0
0FC0
0FC0
0FC0
0FC0
0FC0
0FC0
0FC0
0FC0
0FC0
0FC0
0FC0
0FC0
0FC0
0FC0
0FC0
0FC0
0FC0
0FC0
0FC0
0FC0
ENDCHAR
STARTCHAR 012A
ENCODING 298
SWIDTH 300 0
DWIDTH 15 0
BBX 15 43 1 0
BITMAP
FFFE
FFFE
FFFE
FFFE
0000
0000
0000
1FC0
1FC0
1FC0
1FC0
1FC0
1FC0
1FC0
1FC0
1FC0
1FC0
1FC0
1FC0
1FC0
1FC0
1FC0
1FC0
1FC0
1FC0
1FC0
1FC0
1FC0
1FC0
1FC0
1FC0
1FC0
1FC0
1FC0
1FC0
1FC0
1FC0
1FC0
1FC0
1FC0
1FC0
1FC0
1FC0
ENDCHAR
STARTCHAR 012B
ENCODING 299
SWIDTH 260 0
DWIDTH 13 0
BBX 14 34 0 0
BITMAP
FFFC
FFFC
FFFC
FFFC
0000
0000
0000
0000
1F80
1F80
1F80
1F80
1F80
1F80
1F80
1F80
1F80
1F80
1F80
1F80
1F80
1F80
1F80
1F80
1F80
1F80
1F80
1F80
1F80
1F80
1F80
1F80
1F80
1F80
ENDCHAR
STARTCHAR 012C
ENCODING 300
SWIDTH 300 0
DWIDTH 15 0
BBX 16 46 0 0
BITMAP
F01F
F81F
FC3F
7FFE
7FFE
3FFC
0FE0
0000
0000
0000
0FE0
0FE0
0FE0
0FE0
0FE0
0FE0
0FE0
0FE0
0FE0
0FE0
0FE0
0FE0
0FE0
0FE0
0FE0
0FE0
0FE0
0FE0
0FE0
0FE0
0FE0
0FE0
0FE0
0FE0
0FE0
0FE0
0FE0
0FE0
0FE0
0FE0
0FE0
0FE0
0FE0
0FE0
0FE0
0FE0
ENDCHAR
STARTCHAR 012D
ENCODING 301
SWIDTH 260 0
DWIDTH 13 0
BBX 16 36 -1 0
BITMAP
F81F
781E
7C3E
7FFE
3FFC
1FF8
07E0
0000
0000
0000
0FC0
0FC0
0FC0
0FC0
0FC0
0FC0
0FC0
0FC0
0FC0
0FC0
0FC0
0FC0
0FC0
0FC0
0FC0
0FC0
0FC0
0FC0
0FC0
0FC0
0FC0
0FC0
0FC0
0FC0
0FC0
0FC0
ENDCHAR
STARTCHAR 012E
ENCODING 302
SWIDTH 300 0
DWIDTH 15 0
BBX 9 44 3 -8
BITMAP
7F00
7F00
7F00
7F00
7F00
7F00
7F00
7F00
7F00
7F00
7F00
7F00
7F00
7F00
7F00
7F00
7F00
7F00
7F00
7F00
7F00
7F00
7F00
7F00
7F00
7F00
7F00
7F00
7F00
7F00
7F00
7F00
7F00
7F00
7F00
7F00
3C00
7800
F000
F000
FF80
FF80
FF80
3F00
ENDCHAR
STARTCHAR 012F
ENCODING 303
SWIDTH 260 0
DWIDTH 13 0
BBX 9 45 2 -8
BITMAP
3C00
7E00
7F00
FF00
FF00
7F00
7E00
3C00
0000
0000
0000
7E00
7E00
7E00
7E00
7E00
7E00
7E00
7E00
7E00
7E00
7E00
7E00
7E00
7E00
7E00
7E00
7E00
7E00
7E00
7E00
7E00
7E00
7E00
7E00
7E00
7E00
3C00
7800
F000
F800
FF80
FF80
FF80
3F00
ENDCHAR
STARTCHAR 0130
ENCODING 304
SWIDTH 300 0
DWIDTH 15 0
BBX 8 46 3 0
BITMAP
3C
7E
FF
FF
FF
7E
3C
00
00
00
7F
7F
7F
7F
7F
7F
7F
7F
7F
7F
7F
7F
7F
7F
7F
7F
7F
7F
7F
7F
7F
7F
7F
7F
7F
7F
7F
7F
7F
7F
7F
7F
7F
7F
7F
7F
ENDCHAR
STARTCHAR 0131
ENCODING 305
SWIDTH 260 0
DWIDTH 13 0
BBX 6 26 3 0
BITMAP
FC
FC
FC
FC
FC
FC
FC
FC
FC
FC
FC
FC
FC
FC
FC
FC
FC
FC
FC
FC
FC
FC
FC
FC
FC
FC
ENDCHAR
STARTCHAR 0132
ENCODING 306
SWIDTH 740 0
DWIDTH 37 0
BBX 30 36 4 0
BITMAP
FE0001FC
FE0001FC
FE0001FC
FE0001FC
FE0001FC
FE0001FC
FE0001FC
FE0001FC
FE0001FC
FE0001FC
FE0001FC
FE0001FC
FE0001FC
FE0001FC
FE0001FC
FE0001FC
FE0001FC
FE0001FC
FE0001FC
FE0001FC
FE0001FC
FE0001FC
FE0001FC
FE0001FC
FE0001FC
FE0001FC
FE0001FC
FE0001F8
FE0003F8
FE0007F8
FE000FF0
FE07FFF0
FE07FFE0
FE07FFC0
FE07FF00
FE07FC00
ENDCHAR
STARTCHAR 0133
ENCODING 307
SWIDTH 520 0
DWIDTH 26 0
BBX 21 46 2 -9
BITMAP
3C01E0
7E03F0
7F03F8
FF07F8
FF07F8
7F03F8
7E03F0
3C01E0
000000
000000
000000
7E03F0
7E03F0
7E03F0
7E03F0
7E03F0
7E03F0
7E03F0
7E03F0
7E03F0
7E03F0
7E03F0
7E03F0
7E03F0
7E03F0
7E03F0
7E03F0
7E03F0
7E03F0
7E03F0
7E03F0
7E03F0
7E03F0
7E03F0
7E03F0
7E03F0
7E03F0
0003F0
0003F0
0003F0
0007F0
007FF0
007FE0
007FE0
007FC0
007F00
ENDCHAR
STARTCHAR 0134
ENCODING 308
SWIDTH 420 0
DWIDTH 21 0
BBX 22 46 1 0
BITMAP
003F00
007F80
00FFC0
01FFE0
03F3F0
03E1F8
0FC0FC
000000
000000
000000
003F80
003F80
003F80
003F80
003F80
003F80
003F80
003F80
003F80
003F80
003F80
003F80
003F80
003F80
003F80
003F80
003F80
003F80
003F80
003F80
003F80
003F80
003F80
003F80
003F80
003F80
003F80
003F00
007F00
00FF00
01FE00
FFFE00
FFFC00
FFF800
FFE000
FF8000
ENDCHAR
STARTCHAR 0135
ENCODING 309
SWIDTH 260 0
DWIDTH 13 0
BBX 18 45 -3 -9
BITMAP
03F000
07F800
0FFC00
1FFE00
3F3F00
3E1F00
FC0FC0
000000
000000
000000
03F000
03F000
03F000
03F000
03F000
03F000
03F000
03F000
03F000
03F000
03F000
03F000
03F000
03F000
03F000
03F000
03F000
03F000
03F000
03F000
03F000
03F000
03F000
03F000
03F000
03F000
03F000
03F000
03F000
07F000
7FF000
7FE000
7FE000
7FC000
7F0000
ENDCHAR
STARTCHAR 0136
ENCODING 310
SWIDTH 680 0
DWIDTH 34 0
BBX 31 46 4 -10
BITMAP
FE0003FC
FE0007F8
FE000FF0
FE001FE0
FE003FC0
FE003F80
FE007F00
FE00FF00
FE01FE00
FE03FC00
FE03F800
FE07F000
FE0FF000
FE1FE000
FE3FC000
FFFF8000
FFFF0000
FFFF8000
FFFFC000
FFFFC000
FE1FE000
FE0FF000
FE07F800
FE03F800
FE03FC00
FE01FE00
FE00FF00
FE007F00
FE007F80
FE003FC0
FE001FE0
FE000FE0
FE000FF0
FE0007F8
FE0003FC
FE0001FE
00000000
00000000
00000000
001F0000
001F0000
001F0000
001E0000
003E0000
003E0000
003C0000
ENDCHAR
STARTCHAR 0137
ENCODING 311
SWIDTH 540 0
DWIDTH 27 0
BBX 24 47 3 -10
BITMAP
FC0000
FC0000
FC0000
FC0000
FC0000
FC0000
FC0000
FC0000
FC0000
FC0000
FC0000
FC00FE
FC01FC
FC03F8
FC03F0
FC07F0
FC0FE0
FC1FC0
FC3F80
FC3F00
FC7E00
FFFE00
FFFC00
FFFE00
FFFE00
FC7F00
FC3F80
FC3F80
FC1FC0
FC0FE0
FC0FE0
FC07F0
FC03F8
FC03F8
FC01FC
FC00FE
FC007F
000000
000000
000000
00F800
00F800
00F800
00F000
01F000
01F000
01E000
ENDCHAR
STARTCHAR 0138
ENCODING 312
SWIDTH 540 0
DWIDTH 27 0
BBX 24 26 3 0
BITMAP
FC00FE
FC01FC
FC03F8
FC03F0
FC07F0
FC0FE0
FC1FC0
FC3F80
FC3F00
FC7E00
FFFE00
FFFC00
FFFE00
FFFE00
FC7F00
FC3F80
FC3F80
FC1FC0
FC0FE0
FC0FE0
FC07F0
FC03F8
FC03F8
FC01FC
FC00FE
FC007F
ENDCHAR
STARTCHAR 0139
ENCODING 313
SWIDTH 520 0
DWIDTH 26 0
BBX 22 47 3 0
BITMAP
03FE00
07F800
0FF000
0FE000
1FC000
3F8000
7F0000
FE0000
000000
000000
000000
7F0000
7F0000
7F0000
7F0000
7F0000
7F0000
7F0000
7F0000
7F0000
7F0000
7F0000
7F0000
7F0000
7F0000
7F0000
7F0000
7F0000
7F0000
7F0000
7F0000
7F0000
7F0000
7F0000
7F0000
7F0000
7F0000
7F0000
7F0000
7F0000
7F0000
7F0000
7FFFFC
7FFFFC
7FFFFC
7FFFFC
7FFFFC
ENDCHAR
STARTCHAR 013A
ENCODING 314
SWIDTH 240 0
DWIDTH 12 0
BBX 15 47 2 0
BITMAP
03FE
07F8
0FF0
0FE0
1FC0
3F80
7F00
FE00
0000
0000
7E00
7E00
7E00
7E00
7E00
7E00
7E00
7E00
7E00
7E00
7E00
7E00
7E00
7E00
7E00
7E00
7E00
7E00
7E00
7E00
7E00
7E00
7E00
7E00
7E00
7E00
7E00
7E00
7E00
7E00
7E00
7E00
7E00
7E00
7E00
7E00
7E00
ENDCHAR
STARTCHAR 013B
ENCODING 315
SWIDTH 520 0
DWIDTH 26 0
BBX 21 46 4 -10
BITMAP
FE0000
FE0000
FE0000
FE0000
FE0000
FE0000
FE0000
FE0000
FE0000
FE0000
FE0000
FE0000
FE0000
FE0000
FE0000
FE0000
FE0000
FE0000
FE0000
FE0000
FE0000
FE0000
FE0000
FE0000
FE0000
FE0000
FE0000
FE0000
FE0000
FE0000
FE0000
FFFFF8
FFFFF8
FFFFF8
FFFFF8
FFFFF8
000000
000000
000000
00F800
00F800
00F800
00F000
01F000
01F000
01E000
ENDCHAR
STARTCHAR 013C
ENCODING 316
SWIDTH 240 0
DWIDTH 12 0
BBX 6 47 3 -10
BITMAP
FC
FC
FC
FC
FC
FC
FC
FC
FC
FC
FC
FC
FC
FC
FC
FC
FC
FC
FC
FC
FC
FC
FC
FC
FC
FC
FC
FC
FC
FC
FC
FC
FC
FC
FC
FC
FC
00
00
00
7C
7C
7C
78
F8
F8
F0
ENDCHAR
STARTCHAR 013D
ENCODING 317
SWIDTH 520 0
DWIDTH 26 0
BBX 21 37 4 0
BITMAP
000F80
FE0FC0
FE0F80
FE0F80
FE0F00
FE1F00
FE1F00
FE1E00
FE1E00
FE0000
FE0000
FE0000
FE0000
FE0000
FE0000
FE0000
FE0000
FE0000
FE0000
FE0000
FE0000
FE0000
FE0000
FE0000
FE0000
FE0000
FE0000
FE0000
FE0000
FE0000
FE0000
FE0000
FFFFF8
FFFFF8
FFFFF8
FFFFF8
FFFFF8
ENDCHAR
STARTCHAR 013E
ENCODING 318
SWIDTH 240 0
DWIDTH 12 0
BBX 16 37 3 0
BITMAP
FC3E
FC3F
FC3E
FC3E
FC3C
FC7C
FC7C
FC78
FC78
FC00
FC00
FC00
FC00
FC00
FC00
FC00
FC00
FC00
FC00
FC00
FC00
FC00
FC00
FC00
FC00
FC00
FC00
FC00
FC00
FC00
FC00
FC00
FC00
FC00
FC00
FC00
FC00
ENDCHAR
STARTCHAR 013F
ENCODING 319
SWIDTH 540 0
DWIDTH 27 0
BBX 21 36 4 0
BITMAP
FE0000
FE0000
FE0000
FE0000
FE0000
FE0000
FE0000
FE0000
FE0000
FE0000
FE0000
FE0000
FE01E0
FE03F0
FE07F8
FE07F8
FE07F8
FE07F8
FE03F0
FE01E0
FE0000
FE0000
FE0000
FE0000
FE0000
FE0000
FE0000
FE0000
FE0000
FE0000
FE0000
FFFFF8
FFFFF8
FFFFF8
FFFFF8
FFFFF8
ENDCHAR
STARTCHAR 0140
ENCODING 320
SWIDTH 400 0
DWIDTH 20 0
BBX 17 37 3 0
BITMAP
FC0000
FC0000
FC0000
FC0000
FC0000
FC0000
FC0000
FC0000
FC0000
FC0000
FC0000
FC0000
FC0000
FC1E00
FC3F00
FC7F00
FC7F80
FC7F80
FC7F00
FC3F00
FC1E00
FC0000
FC0000
FC0000
FC0000
FC0000
FC0000
FC0000
FC0000
FC0000
FC0000
FC0000
FC0000
FC0000
FC0000
FC0000
FC0000
ENDCHAR
STARTCHAR 0141
ENCODING 321
SWIDTH 540 0
DWIDTH 27 0
BBX 26 36 0 0
BITMAP
07F00000
07F00000
07F00000
07F00000
07F00000
07F00000
07F00000
07F00000
07F00000
07F00000
07F00800
07F03800
07F0F800
07F3F800
07FFF800
07FFF000
07FFE000
07FF8000
0FFE0000
3FF80000
FFF00000
FFF00000
FFF00000
FFF00000
E7F00000
87F00000
07F00000
07F00000
07F00000
07F00000
07F00000
07FFFFC0
07FFFFC0
07FFFFC0
07FFFFC0
07FFFFC0
ENDCHAR
STARTCHAR 0142
ENCODING 322
SWIDTH 320 0
DWIDTH 16 0
BBX 15 37 1 0
BITMAP
0FC0
0FC0
0FC0
0FC0
0FC0
0FC0
0FC0
0FC0
0FC0
0FC0
0FC0
0FC0
0FC6
0FFE
0FFE
0FFE
3FFC
FFE0
FFC0
FFC0
EFC0
8FC0
0FC0
0FC0
0FC0
0FC0
0FC0
0FC0
0FC0
0FC0
0FC0
0FC0
0FC0
0FC0
0FC0
0FC0
0FC0
ENDCHAR
STARTCHAR 0143
ENCODING 323
SWIDTH 780 0
DWIDTH 39 0
BBX 31 47 4 0
BITMAP
00007FC0
0000FF00
0001FE00
0001FC00
0003F800
0007F000
000FE000
001FC000
00000000
00000000
00000000
F800007E
FC00007E
FE00007E
FF00007E
FF00007E
FF80007E
FFC0007E
FFE0007E
FFF0007E
FFF0007E
FFF8007E
FFFC007E
FDFE007E
FCFF007E
FCFF007E
FC7F807E
FC3FC07E
FC1FE07E
FC0FE07E
FC0FF07E
FC07F87E
FC03FC7E
FC01FE7E
FC00FE7E
FC00FF7E
FC007FFE
FC003FFE
FC001FFE
FC000FFE
FC000FFE
FC0007FE
FC0003FE
FC0001FE
FC0000FE
FC0000FE
FC00007E
ENDCHAR
STARTCHAR 0144
ENCODING 324
SWIDTH 560 0
DWIDTH 28 0
BBX 22 36 3 0
BITMAP
000FF0
001FC0
001F80
003F00
007E00
007E00
00FC00
000000
000000
000000
F83F80
F8FFE0
FFFFF0
FFFFF8
FFFFF8
FF83FC
FF01FC
FE00FC
FC00FC
FC00FC
FC00FC
FC00FC
FC00FC
FC00FC
FC00FC
FC00FC
FC00FC
FC00FC
FC00FC
FC00FC
FC00FC
FC00FC
FC00FC
FC00FC
FC00FC
FC00FC
ENDCHAR
STARTCHAR 0145
ENCODING 325
SWIDTH 780 0
DWIDTH 39 0
BBX 31 46 4 -10
BITMAP
F800007E
FC00007E
FE00007E
FF00007E
FF00007E
FF80007E
FFC0007E
FFE0007E
FFF0007E
FFF0007E
FFF8007E
FFFC007E
FDFE007E
FCFF007E
FCFF007E
FC7F807E
FC3FC07E
FC1FE07E
FC0FE07E
FC0FF07E
FC07F87E
FC03FC7E
FC01FE7E
FC00FE7E
FC00FF7E
FC007FFE
FC003FFE
FC001FFE
FC000FFE
FC000FFE
FC0007FE
FC0003FE
FC0001FE
FC0000FE
FC0000FE
FC00007E
00000000
00000000
00000000
0007C000
0007C000
0007C000
00078000
000F8000
000F8000
000F0000
ENDCHAR
STARTCHAR 0146
ENCODING 326
SWIDTH 560 0
DWIDTH 28 0
BBX 22 36 3 -10
BITMAP
F83F80
F8FFE0
FFFFF0
FFFFF8
FFFFF8
FF83FC
FF01FC
FE00FC
FC00FC
FC00FC
FC00FC
FC00FC
FC00FC
FC00FC
FC00FC
FC00FC
FC00FC
FC00FC
FC00FC
FC00FC
FC00FC
FC00FC
FC00FC
FC00FC
FC00FC
FC00FC
000000
000000
000000
007C00
007C00
007C00
007800
00F800
00F800
00F000
ENDCHAR
STARTCHAR 0147
ENCODING 327
SWIDTH 780 0
DWIDTH 39 0
BBX 31 46 4 0
BITMAP
03F03F00
01F87E00
00FCFC00
007DF800
003FF000
001FE000
000FC000
00000000
00000000
00000000
F800007E
FC00007E
FE00007E
FF00007E
FF00007E
FF80007E
FFC0007E
FFE0007E
FFF0007E
FFF0007E
FFF8007E
FFFC007E
FDFE007E
FCFF007E
FCFF007E
FC7F807E
FC3FC07E
FC1FE07E
FC0FE07E
FC0FF07E
FC07F87E
FC03FC7E
FC01FE7E
FC00FE7E
FC00FF7E
FC007FFE
FC003FFE
FC001FFE
FC000FFE
FC000FFE
FC0007FE
FC0003FE
FC0001FE
FC0000FE
FC0000FE
FC00007E
ENDCHAR
STARTCHAR 0148
ENCODING 328
SWIDTH 560 0
DWIDTH 28 0
BBX 22 36 3 0
BITMAP
3F03F0
0F87C0
0FCFC0
07FF80
03FF00
01FE00
00FC00
000000
000000
000000
F83F80
F8FFE0
FFFFF0
FFFFF8
FFFFF8
FF83FC
FF01FC
FE00FC
FC00FC
FC00FC
FC00FC
FC00FC
FC00FC
FC00FC
FC00FC
FC00FC
FC00FC
FC00FC
FC00FC
FC00FC
FC00FC
FC00FC
FC00FC
FC00FC
FC00FC
FC00FC
ENDCHAR
STARTCHAR 0149
ENCODING 329
SWIDTH 640 0
DWIDTH 32 0
BBX 28 39 0 0
BITMAP
08000000
38000000
FC000000
FC000000
7C000000
7E000000
3E000000
3E000000
3E000000
3C000000
7C000000
7C000000
78000000
FBE0FE00
F3E3FF80
63FFFFC0
03FFFFE0
03FFFFE0
03FE0FF0
03FC07F0
03F803F0
03F003F0
03F003F0
03F003F0
03F003F0
03F003F0
03F003F0
03F003F0
03F003F0
03F003F0
03F003F0
03F003F0
03F003F0
03F003F0
03F003F0
03F003F0
03F003F0
03F003F0
03F003F0
ENDCHAR
STARTCHAR 014A
ENCODING 330
SWIDTH 780 0
DWIDTH 39 0
BBX 31 45 4 -9
BITMAP
F800007E
FC00007E
FE00007E
FF00007E
FF00007E
FF80007E
FFC0007E
FFE0007E
FFF0007E
FFF0007E
FFF8007E
FFFC007E
FDFE007E
FCFF007E
FCFF007E
FC7F807E
FC3FC07E
FC1FE07E
FC0FE07E
FC0FF07E
FC07F87E
FC03FC7E
FC01FE7E
FC00FE7E
FC00FF7E
FC007FFE
FC003FFE
FC001FFE
FC000FFE
FC000FFE
FC0007FE
FC0003FE
FC0001FE
FC0000FE
FC0000FE
FC00007C
0000007C
000000FC
000000FC
000001FC
00003FF8
00007FF8
00007FF0
00007FE0
00003F80
ENDCHAR
STARTCHAR 014B
ENCODING 331
SWIDTH 560 0
DWIDTH 28 0
BBX 22 35 3 -9
BITMAP
F83F80
F8FFE0
FFFFF0
FFFFF8
FFFFF8
FF83FC
FF01FC
FE00FC
FC00FC
FC00FC
FC00FC
FC00FC
FC00FC
FC00FC
FC00FC
FC00FC
FC00FC
FC00FC
FC00FC
FC00FC
FC00FC
FC00FC
FC00FC
FC00FC
FC00FC
FC00FC
0000FC
0000FC
0000FC
0001FC
007FF8
007FF8
007FF0
00FFE0
003F80
ENDCHAR
STARTCHAR 014C
ENCODING 332
SWIDTH 800 0
DWIDTH 40 0
BBX 37 43 2 0
BITMAP
003FFFC000
003FFFC000
003FFFC000
003FFFC000
0000000000
0000000000
0000000000
0003FE0000
003FFFC000
00FFFFF000
01FFFFFC00
03FFFFFE00
07FE03FF00
0FF000FF80
1FE0003F80
3FC0001FC0
3F80001FE0
7F00000FE0
7F00000FE0
7F000007F0
FE000007F0
FE000007F0
FE000007F0
FE000003F0
FE000003F0
FE000003F8
FE000003F0
FE000007F0
FE000007F0
FE000007F0
7F000007F0
7F00000FE0
7F00000FE0
3F80001FE0
3FC0001FC0
1FE0003F80
0FF000FF80
07FC03FF00
03FFFFFE00
01FFFFFC00
00FFFFF000
003FFFC000
0003FE0000
ENDCHAR
STARTCHAR 014D
ENCODING 333
SWIDTH 580 0
DWIDTH 29 0
BBX 25 34 2 0
BITMAP
07FFE000
07FFE000
07FFE000
07FFE000
00000000
00000000
00000000
00000000
00FF0000
03FFE000
0FFFF000
1FFFFC00
3FFFFC00
3FC1FE00
7F007F00
7E007F00
FE003F00
FC003F80
FC003F80
FC001F80
FC001F80
FC001F80
FC001F80
FC003F80
FC003F80
FE003F00
7E007F00
7F007F00
3FC1FE00
3FFFFC00
1FFFFC00
0FFFF000
03FFE000
00FF0000
ENDCHAR
STARTCHAR 014E
ENCODING 334
SWIDTH 800 0
DWIDTH 40 0
BBX 37 46 2 0
BITMAP
003C07C000
003E07C000
003F0FC000
003FFF8000
001FFF8000
000FFF0000
0003F80000
0000000000
0000000000
0000000000
0003FE0000
003FFFC000
00FFFFF000
01FFFFFC00
03FFFFFE00
07FE03FF00
0FF000FF80
1FE0003F80
3FC0001FC0
3F80001FE0
7F00000FE0
7F00000FE0
7F000007F0
FE000007F0
FE000007F0
FE000007F0
FE000003F0
FE000003F0
FE000003F8
FE000003F0
FE000007F0
FE000007F0
FE000007F0
7F000007F0
7F00000FE0
7F00000FE0
3F80001FE0
3FC0001FC0
1FE0003F80
0FF000FF80
07FC03FF00
03FFFFFE00
01FFFFFC00
00FFFFF000
003FFFC000
0003FE0000
ENDCHAR
STARTCHAR 014F
ENCODING 335
SWIDTH 580 0
DWIDTH 29 0
BBX 25 36 2 0
BITMAP
0F81F000
0781E000
07C3E000
07FFE000
03FFC000
01FF8000
007E0000
00000000
00000000
00000000
00FF0000
03FFE000
0FFFF000
1FFFFC00
3FFFFC00
3FC1FE00
7F007F00
7E007F00
FE003F00
FC003F80
FC003F80
FC001F80
FC001F80
FC001F80
FC001F80
FC003F80
FC003F80
FE003F00
7E007F00
7F007F00
3FC1FE00
3FFFFC00
1FFFFC00
0FFFF000
03FFE000
00FF0000
ENDCHAR
STARTCHAR 0150
ENCODING 336
SWIDTH 800 0
DWIDTH 40 0
BBX 37 46 2 0
BITMAP
0000F87E00
0001F0FC00
0003E1F800
0007E3F000
0007C7E000
000F87C000
001F1F0000
0000000000
0000000000
0000000000
0003FE0000
003FFFC000
00FFFFF000
01FFFFFC00
03FFFFFE00
07FE03FF00
0FF000FF80
1FE0003F80
3FC0001FC0
3F80001FE0
7F00000FE0
7F00000FE0
7F000007F0
FE000007F0
FE000007F0
FE000007F0
FE000003F0
FE000003F0
FE000003F8
FE000003F0
FE000007F0
FE000007F0
FE000007F0
7F000007F0
7F00000FE0
7F00000FE0
3F80001FE0
3FC0001FC0
1FE0003F80
0FF000FF80
07FC03FF00
03FFFFFE00
01FFFFFC00
00FFFFF000
003FFFC000
0003FE0000
ENDCHAR
STARTCHAR 0151
ENCODING 337
SWIDTH 580 0
DWIDTH 29 0
BBX 25 36 2 0
BITMAP
003E3F00
007C7E00
00F8F800
00F1F000
01F1E000
01E3C000
03C78000
00000000
00000000
00000000
00FF0000
03FFE000
0FFFF000
1FFFFC00
3FFFFC00
3FC1FE00
7F007F00
7E007F00
FE003F00
FC003F80
FC003F80
FC001F80
FC001F80
FC001F80
FC001F80
FC003F80
FC003F80
FE003F00
7E007F00
7F007F00
3FC1FE00
3FFFFC00
1FFFFC00
0FFFF000
03FFE000
00FF0000
ENDCHAR
STARTCHAR 0152
ENCODING 338
SWIDTH 1080 0
DWIDTH 54 0
BBX 50 36 2 0
BITMAP
000FF80FFFFFC0
007FFF0FFFFFC0
00FFFFCFFFFFC0
03FFFFEFFFFFC0
07FFFFFFFFFFC0
0FFC0FFFC00000
1FF003FFC00000
1FE000FFC00000
3FC0007FC00000
3F80007FC00000
7F00003FC00000
7F00003FC00000
7F00001FC00000
FE00001FC00000
FE00001FC00000
FE00001FFFFE00
FE00001FFFFE00
FE00001FFFFE00
FE00001FFFFE00
FE00001FFFFE00
FE00001FC00000
FE00001FC00000
FE00001FC00000
7F00001FC00000
7F00003FC00000
7F00003FC00000
3F80007FC00000
3FC0007FC00000
1FC000FFC00000
1FF003FFC00000
0FFC0FFFC00000
07FFFFFFFFFFC0
03FFFFEFFFFFC0
00FFFFCFFFFFC0
007FFF0FFFFFC0
000FF80FFFFFC0
ENDCHAR
STARTCHAR 0153
ENCODING 339
SWIDTH 880 0
DWIDTH 44 0
BBX 40 26 2 0
BITMAP
00FE001F80
03FF80FFE0
0FFFE1FFF8
1FFFF3FFFC
3FFFF7FFFC
3F83FFE0FE
7F00FF807E
7E007F803F
FE007F003F
FC007F001F
FC003FFFFF
FC003FFFFF
FC003FFFFF
FC003FFFFF
FC003F0000
FC003F0000
FC007F0000
FE007F8000
7E007F8000
7F00FFC01C
7F83FFF07E
3FFFF7FFFF
1FFFF3FFFE
0FFFE1FFFC
07FF80FFF0
00FE001FC0
ENDCHAR
STARTCHAR 0154
ENCODING 340
SWIDTH 640 0
DWIDTH 32 0
BBX 28 47 4 0
BITMAP
0007FC00
000FF000
001FE000
001FC000
003F8000
007F0000
00FE0000
01FC0000
00000000
00000000
00000000
FFFF0000
FFFFE000
FFFFF800
FFFFFC00
FFFFFE00
FE01FF00
FE007F00
FE007F80
FE003F80
FE003F80
FE003F80
FE003F80
FE003F80
FE003F80
FE007F00
FE00FF00
FE03FE00
FFFFFC00
FFFFF800
FFFFF000
FFFF8000
FFFFC000
FE1FE000
FE0FF000
FE07F000
FE03F800
FE03FC00
FE01FC00
FE00FE00
FE00FF00
FE007F80
FE003F80
FE003FC0
FE001FE0
FE000FE0
FE000FF0
ENDCHAR
STARTCHAR 0155
ENCODING 341
SWIDTH 380 0
DWIDTH 19 0
BBX 17 36 3 0
BITMAP
007F80
00FE00
00FC00
01F800
03F000
03F000
07E000
000000
000000
000000
F83E00
F8FE00
FDFE00
FFFE00
FFFE00
FFFE00
FF8000
FF0000
FE0000
FE0000
FC0000
FC0000
FC0000
FC0000
FC0000
FC0000
FC0000
FC0000
FC0000
FC0000
FC0000
FC0000
FC0000
FC0000
FC0000
FC0000
ENDCHAR
STARTCHAR 0156
ENCODING 342
SWIDTH 640 0
DWIDTH 32 0
BBX 28 46 4 -10
BITMAP
FFFF0000
FFFFE000
FFFFF800
FFFFFC00
FFFFFE00
FE01FF00
FE007F00
FE007F80
FE003F80
FE003F80
FE003F80
FE003F80
FE003F80
FE003F80
FE007F00
FE00FF00
FE03FE00
FFFFFC00
FFFFF800
FFFFF000
FFFF8000
FFFFC000
FE1FE000
FE0FF000
FE07F000
FE03F800
FE03FC00
FE01FC00
FE00FE00
FE00FF00
FE007F80
FE003F80
FE003FC0
FE001FE0
FE000FE0
FE000FF0
00000000
00000000
00000000
001F0000
001F0000
001F0000
001E0000
003E0000
003E0000
003C0000
ENDCHAR
STARTCHAR 0157
ENCODING 343
SWIDTH 380 0
DWIDTH 19 0
BBX 15 36 3 -10
BITMAP
F83E
F8FE
FDFE
FFFE
FFFE
FFFE
FF80
FF00
FE00
FE00
FC00
FC00
FC00
FC00
FC00
FC00
FC00
FC00
FC00
FC00
FC00
FC00
FC00
FC00
FC00
FC00
0000
0000
0000
7C00
7C00
7C00
7800
F800
F800
F000
ENDCHAR
STARTCHAR 0158
ENCODING 344
SWIDTH 640 0
DWIDTH 32 0
BBX 28 46 4 0
BITMAP
3F03F000
1F87E000
0FCFC000
07DF8000
03FF0000
01FE0000
00FC0000
00000000
00000000
00000000
FFFF0000
FFFFE000
FFFFF800
FFFFFC00
FFFFFE00
FE01FF00
FE007F00
FE007F80
FE003F80
FE003F80
FE003F80
FE003F80
FE003F80
FE003F80
FE007F00
FE00FF00
FE03FE00
FFFFFC00
FFFFF800
FFFFF000
FFFF8000
FFFFC000
FE1FE000
FE0FF000
FE07F000
FE03F800
FE03FC00
FE01FC00
FE00FE00
FE00FF00
FE007F80
FE003F80
FE003FC0
FE001FE0
FE000FE0
FE000FF0
ENDCHAR
STARTCHAR 0159
ENCODING 345
SWIDTH 380 0
DWIDTH 19 0
BBX 18 36 2 0
BITMAP
FC0FC0
3E1F00
3F3F00
1FFE00
0FFC00
07F800
03F000
000000
000000
000000
7C1F00
7C7F00
7EFF00
7FFF00
7FFF00
7FFF00
7FC000
7F8000
7F0000
7F0000
7E0000
7E0000
7E0000
7E0000
7E0000
7E0000
7E0000
7E0000
7E0000
7E0000
7E0000
7E0000
7E0000
7E0000
7E0000
7E0000
ENDCHAR
STARTCHAR 015A
ENCODING 346
SWIDTH 540 0
DWIDTH 27 0
BBX 25 47 1 0
BITMAP
0001FF00
0003FC00
0007F800
0007F000
000FE000
001FC000
003F8000
007F0000
00000000
00000000
00000000
003FC000
01FFF800
07FFFE00
0FFFFF00
0FFFFE00
1FE0FE00
3F801C00
3F000800
3F000000
3F000000
3F000000
3F800000
3FC00000
3FF00000
3FFE0000
1FFF8000
0FFFF000
07FFF800
03FFFC00
00FFFE00
001FFF00
0003FF00
0000FF00
00003F80
00003F80
00003F80
00003F00
00003F00
38003F00
7E007F00
7F81FE00
FFFFFC00
7FFFF800
1FFFF000
07FFE000
00FF0000
ENDCHAR
STARTCHAR 015B
ENCODING 347
SWIDTH 440 0
DWIDTH 22 0
BBX 19 36 1 0
BITMAP
001FE0
003F80
003F00
007E00
00FC00
00FC00
01F800
000000
000000
000000
01FC00
0FFF00
1FFFC0
3FFFE0
3FFFC0
7F03C0
7E0000
7E0000
7E0000
7F0000
3FC000
3FF800
1FFF00
07FF80
00FFC0
001FE0
0007E0
0003E0
0003E0
3007E0
7E0FE0
7FFFE0
FFFFC0
7FFF80
1FFF00
03F800
ENDCHAR
STARTCHAR 015C
ENCODING 348
SWIDTH 540 0
DWIDTH 27 0
BBX 25 46 1 0
BITMAP
001F8000
003FC000
007FE000
00FFF000
01F9F800
01F0FC00
07E07E00
00000000
00000000
00000000
003FC000
01FFF800
07FFFE00
0FFFFF00
0FFFFE00
1FE0FE00
3F801C00
3F000800
3F000000
3F000000
3F000000
3F800000
3FC00000
3FF00000
3FFE0000
1FFF8000
0FFFF000
07FFF800
03FFFC00
00FFFE00
001FFF00
0003FF00
0000FF00
00003F80
00003F80
00003F80
00003F00
00003F00
38003F00
7E007F00
7F81FE00
FFFFFC00
7FFFF800
1FFFF000
07FFE000
00FF0000
ENDCHAR
STARTCHAR 015D
ENCODING 349
SWIDTH 440 0
DWIDTH 22 0
BBX 19 36 1 0
BITMAP
01F800
03FC00
07FE00
0FFF00
1F9F80
1F0F80
7E07E0
000000
000000
000000
01FC00
0FFF00
1FFFC0
3FFFE0
3FFFC0
7F03C0
7E0000
7E0000
7E0000
7F0000
3FC000
3FF800
1FFF00
07FF80
00FFC0
001FE0
0007E0
0003E0
0003E0
3007E0
7E0FE0
7FFFE0
FFFFC0
7FFF80
1FFF00
03F800
ENDCHAR
STARTCHAR 015E
ENCODING 350
SWIDTH 540 0
DWIDTH 27 0
BBX 25 45 1 -9
BITMAP
003FC000
01FFF800
07FFFE00
0FFFFF00
0FFFFE00
1FE0FE00
3F801C00
3F000800
3F000000
3F000000
3F000000
3F800000
3FC00000
3FE00000
3FFC0000
1FFF8000
0FFFF000
07FFF800
03FFFC00
00FFFE00
001FFF00
0003FF00
0000FF00
00003F80
00003F80
00003F80
00003F00
00003F00
38003F00
7E007F00
7F81FE00
FFFFFC00
7FFFFC00
3FFFF000
0FFFE000
01FF8000
001C0000
001E0000
003F8000
001FC000
0003C000
0007C000
007FC000
007F8000
007F0000
ENDCHAR
STARTCHAR 015F
ENCODING 351
SWIDTH 440 0
DWIDTH 22 0
BBX 19 35 1 -9
BITMAP
01FC00
07FF00
1FFFC0
3FFFE0
3FFFE0
7F03C0
7E0080
7E0000
7E0000
7F0000
7FC000
3FF800
1FFF00
0FFF80
03FFC0
007FE0
000FE0
0007E0
0003E0
0003E0
3007E0
7C0FE0
7FFFC0
FFFF80
3FFF00
0FFC00
00E000
01E000
01F800
01FE00
003E00
003E00
03FE00
03FC00
07F000
ENDCHAR
STARTCHAR 0160
ENCODING 352
SWIDTH 540 0
DWIDTH 27 0
BBX 25 46 1 0
BITMAP
07E07E00
03F0FC00
01F9F800
00FBF000
007FE000
003FC000
001F8000
00000000
00000000
00000000
003FC000
01FFF800
07FFFE00
0FFFFF00
0FFFFE00
1FE0FE00
3F801C00
3F000800
3F000000
3F000000
3F000000
3F800000
3FC00000
3FF00000
3FFE0000
1FFF8000
0FFFF000
07FFF800
03FFFC00
00FFFE00
001FFF00
0003FF00
0000FF00
00003F80
00003F80
00003F80
00003F00
00003F00
38003F00
7E007F00
7F81FE00
FFFFFC00
7FFFF800
1FFFF000
07FFE000
00FF0000
ENDCHAR
STARTCHAR 0161
ENCODING 353
SWIDTH 440 0
DWIDTH 22 0
BBX 19 36 1 0
BITMAP
7E07E0
1F0F80
1F9F80
0FFF00
07FE00
03FC00
01F800
000000
000000
000000
01FC00
0FFF00
1FFFC0
3FFFE0
3FFFC0
7F03C0
7E0000
7E0000
7E0000
7F0000
3FC000
3FF800
1FFF00
07FF80
00FFC0
001FE0
0007E0
0003E0
0003E0
3007E0
7E0FE0
7FFFE0
FFFFC0
7FFF80
1FFF00
03F800
ENDCHAR
STARTCHAR 0162
ENCODING 354
SWIDTH 600 0
DWIDTH 30 0
BBX 28 45 1 -9
BITMAP
FFFFFFF0
FFFFFFF0
FFFFFFF0
FFFFFFF0
FFFFFFF0
001F8000
001F8000
001F8000
001F8000
001F8000
001F8000
001F8000
001F8000
001F8000
001F8000
001F8000
001F8000
001F8000
001F8000
001F8000
001F8000
001F8000
001F8000
001F8000
001F8000
001F8000
001F8000
001F8000
001F8000
001F8000
001F8000
001F8000
001F8000
001F8000
001F8000
001F8000
000F0000
000E0000
001FC000
001FE000
0001E000
0001F000
003FE000
003FE000
003F8000
ENDCHAR
STARTCHAR 0163
ENCODING 355
SWIDTH 380 0
DWIDTH 19 0
BBX 17 43 1 -9
BITMAP
01C000
07C000
07C000
07C000
07C000
0FC000
0FC000
0FC000
3FFF80
FFFF80
FFFF80
FFFF80
FFFF80
0FC000
0FC000
0FC000
0FC000
0FC000
0FC000
0FC000
0FC000
0FC000
0FC000
0FC000
0FC000
0FC000
0FC000
0FC000
0FC200
0FFF00
0FFF00
07FF80
03FF80
01FE00
00F000
00F000
00FC00
01FE00
001F00
001F00
01FF00
03FE00
01F800
ENDCHAR
STARTCHAR 0164
ENCODING 356
SWIDTH 600 0
DWIDTH 30 0
BBX 28 46 1 0
BITMAP
07E07E00
03F0FC00
01F9F800
00FBF000
007FE000
003FC000
001F8000
00000000
00000000
00000000
FFFFFFF0
FFFFFFF0
FFFFFFF0
FFFFFFF0
FFFFFFF0
001F8000
001F8000
001F8000
001F8000
001F8000
001F8000
001F8000
001F8000
001F8000
001F8000
001F8000
001F8000
001F8000
001F8000
001F8000
001F8000
001F8000
001F8000
001F8000
001F8000
001F8000
001F8000
001F8000
001F8000
001F8000
001F8000
001F8000
001F8000
001F8000
001F8000
001F8000
ENDCHAR
STARTCHAR 0165
ENCODING 357
SWIDTH 380 0
DWIDTH 19 0
BBX 21 37 1 0
BITMAP
0001F0
0001F8
0001F0
03C1F0
07C1E0
07C3E0
07C3E0
07C3C0
0FC3C0
0FC000
0FC000
3FFF80
FFFF80
FFFF80
FFFF80
FFFF80
0FC000
0FC000
0FC000
0FC000
0FC000
0FC000
0FC000
0FC000
0FC000
0FC000
0FC000
0FC000
0FC000
0FC000
0FC000
0FE200
0FFF00
0FFF80
07FF80
03FF00
00FC00
ENDCHAR
STARTCHAR 0166
ENCODING 358
SWIDTH 620 0
DWIDTH 31 0
BBX 29 36 1 0
BITMAP
FFFFFFF8
FFFFFFF8
FFFFFFF8
FFFFFFF8
FFFFFFF8
001FC000
001FC000
001FC000
001FC000
001FC000
001FC000
001FC000
001FC000
001FC000
001FC000
1FFFFFC0
1FFFFFC0
1FFFFFC0
1FFFFFC0
001FC000
001FC000
001FC000
001FC000
001FC000
001FC000
001FC000
001FC000
001FC000
001FC000
001FC000
001FC000
001FC000
001FC000
001FC000
001FC000
001FC000
ENDCHAR
STARTCHAR 0167
ENCODING 359
SWIDTH 380 0
DWIDTH 19 0
BBX 17 34 1 0
BITMAP
03C000
07C000
07C000
07C000
07C000
0FC000
0FC000
0FC000
3FFF80
FFFF80
FFFF80
FFFF80
FFFF80
0FC000
0FC000
0FC000
FFFF80
FFFF80
FFFF80
FFFF80
0FC000
0FC000
0FC000
0FC000
0FC000
0FC000
0FC000
0FC000
0FE200
0FFF00
0FFF80
07FF80
03FF00
00FC00
ENDCHAR
STARTCHAR 0168
ENCODING 360
SWIDTH 740 0
DWIDTH 37 0
BBX 30 45 4 0
BITMAP
007C0F00
00FE0F00
01FF9F00
01FFFE00
01E3FE00
03C1FC00
03C07800
00000000
00000000
FC0001FC
FC0001FC
FC0001FC
FC0001FC
FC0001FC
FC0001FC
FC0001FC
FC0001FC
FC0001FC
FC0001FC
FC0001FC
FC0001FC
FC0001FC
FC0001FC
FC0001FC
FC0001FC
FC0001FC
FC0001FC
FC0001FC
FC0001FC
FC0001FC
FC0001FC
FC0001FC
FC0001F8
FE0003F8
FE0003F8
FF0007F8
7F0007F0
7FC00FF0
3FF03FE0
3FFFFFE0
1FFFFFC0
0FFFFF80
03FFFF00
01FFFC00
003FE000
ENDCHAR
STARTCHAR 0169
ENCODING 361
SWIDTH 560 0
DWIDTH 28 0
BBX 22 36 3 0
BITMAP
03E1E0
07FFE0
0FFFE0
1FFFC0
1E3F80
1E0F00
000000
000000
000000
000000
FC00FC
FC00FC
FC00FC
FC00FC
FC00FC
FC00FC
FC00FC
FC00FC
FC00FC
FC00FC
FC00FC
FC00FC
FC00FC
FC00FC
FC00FC
FC00FC
FC00FC
FC00FC
FC00FC
FE01FC
FF07FC
7FFFFC
7FFFFC
3FFE7C
1FFC7C
07F07C
ENDCHAR
STARTCHAR 016A
ENCODING 362
SWIDTH 740 0
DWIDTH 37 0
BBX 30 43 4 0
BITMAP
01FFFE00
01FFFE00
01FFFE00
01FFFE00
00000000
00000000
00000000
FC0001FC
FC0001FC
FC0001FC
FC0001FC
FC0001FC
FC0001FC
FC0001FC
FC0001FC
FC0001FC
FC0001FC
FC0001FC
FC0001FC
FC0001FC
FC0001FC
FC0001FC
FC0001FC
FC0001FC
FC0001FC
FC0001FC
FC0001FC
FC0001FC
FC0001FC
FC0001FC
FC0001F8
FE0003F8
FE0003F8
FF0007F8
7F0007F0
7FC00FF0
3FF03FE0
3FFFFFE0
1FFFFFC0
0FFFFF80
03FFFF00
01FFFC00
003FE000
ENDCHAR
STARTCHAR 016B
ENCODING 363
SWIDTH 560 0
DWIDTH 28 0
BBX 22 34 3 0
BITMAP
0FFFC0
0FFFC0
0FFFC0
0FFFC0
000000
000000
000000
000000
FC00FC
FC00FC
FC00FC
FC00FC
FC00FC
FC00FC
FC00FC
FC00FC
FC00FC
FC00FC
FC00FC
FC00FC
FC00FC
FC00FC
FC00FC
FC00FC
FC00FC
FC00FC
FC00FC
FE01FC
FF07FC
7FFFFC
7FFFFC
3FFE7C
1FFC7C
07F07C
ENDCHAR
STARTCHAR 016C
ENCODING 364
SWIDTH 740 0
DWIDTH 37 0
BBX 30 46 4 0
BITMAP
01E03E00
01F03E00
01F87E00
01FFFC00
00FFFC00
007FF800
001FC000
00000000
00000000
00000000
FC0001FC
FC0001FC
FC0001FC
FC0001FC
FC0001FC
FC0001FC
FC0001FC
FC0001FC
FC0001FC
FC0001FC
FC0001FC
FC0001FC
FC0001FC
FC0001FC
FC0001FC
FC0001FC
FC0001FC
FC0001FC
FC0001FC
FC0001FC
FC0001FC
FC0001FC
FC0001FC
FC0001F8
FE0003F8
FE0003F8
FF0007F8
7F0007F0
7FC00FF0
3FF03FE0
3FFFFFE0
1FFFFFC0
0FFFFF80
03FFFF00
01FFFC00
003FE000
ENDCHAR
STARTCHAR 016D
ENCODING 365
SWIDTH 560 0
DWIDTH 28 0
BBX 22 36 3 0
BITMAP
1F03E0
0F03C0
0F87C0
0FFFC0
07FF80
03FF00
00FC00
000000
000000
000000
FC00FC
FC00FC
FC00FC
FC00FC
FC00FC
FC00FC
FC00FC
FC00FC
FC00FC
FC00FC
FC00FC
FC00FC
FC00FC
FC00FC
FC00FC
FC00FC
FC00FC
FC00FC
FC00FC
FE01FC
FF07FC
7FFFFC
7FFFFC
3FFE7C
1FFC7C
07F07C
ENDCHAR
STARTCHAR 016E
ENCODING 366
SWIDTH 740 0
DWIDTH 37 0
BBX 30 48 4 0
BITMAP
00078000
001FE000
003FE000
003CF000
00387000
00387000
00387000
003CF000
001FE000
00078000
00000000
00000000
FC0001FC
FC0001FC
FC0001FC
FC0001FC
FC0001FC
FC0001FC
FC0001FC
FC0001FC
FC0001FC
FC0001FC
FC0001FC
FC0001FC
FC0001FC
FC0001FC
FC0001FC
FC0001FC
FC0001FC
FC0001FC
FC0001FC
FC0001FC
FC0001FC
FC0001FC
FC0001FC
FC0001F8
FE0003F8
FE0003F8
FF0007F8
7F0007F0
7FC00FF0
3FF03FE0
3FFFFFE0
1FFFFFC0
0FFFFF80
03FFFF00
01FFFC00
003FE000
ENDCHAR
STARTCHAR 016F
ENCODING 367
SWIDTH 560 0
DWIDTH 28 0
BBX 22 38 3 0
BITMAP
007800
01FE00
03FF00
038700
078780
078780
038700
03FF00
01FE00
007800
000000
000000
FC00FC
FC00FC
FC00FC
FC00FC
FC00FC
FC00FC
FC00FC
FC00FC
FC00FC
FC00FC
FC00FC
FC00FC
FC00FC
FC00FC
FC00FC
FC00FC
FC00FC
FC00FC
FC00FC
FE01FC
FF07FC
7FFFFC
7FFFFC
3FFE7C
1FFC7C
07F07C
ENDCHAR
STARTCHAR 0170
ENCODING 368
SWIDTH 740 0
DWIDTH 37 0
BBX 30 46 4 0
BITMAP
0007C3F0
000F87E0
001F0FC0
003F1F80
003E3F00
007C3E00
00F8F800
00000000
00000000
00000000
FC0001FC
FC0001FC
FC0001FC
FC0001FC
FC0001FC
FC0001FC
FC0001FC
FC0001FC
FC0001FC
FC0001FC
FC0001FC
FC0001FC
FC0001FC
FC0001FC
FC0001FC
FC0001FC
FC0001FC
FC0001FC
FC0001FC
FC0001FC
FC0001FC
FC0001FC
FC0001FC
FC0001F8
FE0003F8
FE0003F8
FF0007F8
7F0007F0
7FC00FF0
3FF03FE0
3FFFFFE0
1FFFFFC0
0FFFFF80
03FFFF00
01FFFC00
003FE000
ENDCHAR
STARTCHAR 0171
ENCODING 369
SWIDTH 560 0
DWIDTH 28 0
BBX 23 36 3 0
BITMAP
007C7E
00F8FC
01F1F0
01E3E0
03E3C0
03C780
078F00
000000
000000
000000
FC00FC
FC00FC
FC00FC
FC00FC
FC00FC
FC00FC
FC00FC
FC00FC
FC00FC
FC00FC
FC00FC
FC00FC
FC00FC
FC00FC
FC00FC
FC00FC
FC00FC
FC00FC
FC00FC
FE01FC
FF07FC
7FFFFC
7FFFFC
3FFE7C
1FFC7C
07F07C
ENDCHAR
STARTCHAR 0172
ENCODING 370
SWIDTH 740 0
DWIDTH 37 0
BBX 30 44 4 -8
BITMAP
FC0001FC
FC0001FC
FC0001FC
FC0001FC
FC0001FC
FC0001FC
FC0001FC
FC0001FC
FC0001FC
FC0001FC
FC0001FC
FC0001FC
FC0001FC
FC0001FC
FC0001FC
FC0001FC
FC0001FC
FC0001FC
FC0001FC
FC0001FC
FC0001FC
FC0001FC
FC0001F8
FC0001F8
FE0001F8
FE0003F8
FE0003F8
7F0007F0
7F0007F0
3FC00FE0
3FE03FC0
1FFFFF80
0FFFFF00
07FFFE00
01FFF800
003F8000
00070000
000E0000
001E0000
001E0000
003FE000
001FF000
001FF000
0007C000
ENDCHAR
STARTCHAR 0173
ENCODING 371
SWIDTH 560 0
DWIDTH 28 0
BBX 25 34 3 -8
BITMAP
FC00FC00
FC00FC00
FC00FC00
FC00FC00
FC00FC00
FC00FC00
FC00FC00
FC00FC00
FC00FC00
FC00FC00
FC00FC00
FC00FC00
FC00FC00
FC00FC00
FC00FC00
FC00FC00
FC00FC00
FC00FC00
FC00FC00
FE01FC00
FF07FC00
7FFFFC00
7FFFFC00
3FFE7C00
1FFC7C00
07F07C00
00003800
0000F000
0000F000
0001F000
0001FF00
0001FF00
0000FF80
00007E00
ENDCHAR
STARTCHAR 0174
ENCODING 372
SWIDTH 1060 0
DWIDTH 53 0
BBX 52 46 0 0
BITMAP
000001F8000000
000003FC000000
000007FE000000
00000FFF000000
00001F9F800000
00001F0FC00000
00007E07E00000
00000000000000
00000000000000
00000000000000
FF0000F80007F0
7F0001FC0007F0
7F8001FC000FE0
3F8001FC000FE0
3F8003FE000FE0
3F8003FE001FC0
3FC003FE001FC0
1FC007FF001FC0
1FC007FF001F80
1FE007FF003F80
0FE00FDF803F80
0FE00FDF803F80
0FE00F9F807F00
07F01F8FC07F00
07F01F8FC07F00
07F01F0FC07E00
03F83F0FE0FE00
03F83F07E0FE00
03F83E07E0FC00
03F87E07F1FC00
01FC7E03F1FC00
01FC7E03F1F800
01FCFC03F9F800
00FEFC01FBF800
00FEFC01FBF800
00FFF801FBF000
007FF800FFF000
007FF800FFF000
007FF000FFE000
003FF0007FE000
003FF0007FE000
003FE0007FC000
001FE0003FC000
001FE0003FC000
001FC0003F8000
001FC0001F8000
ENDCHAR
STARTCHAR 0175
ENCODING 373
SWIDTH 800 0
DWIDTH 40 0
BBX 40 36 0 0
BITMAP
00007E0000
0000FF0000
0001FF8000
0003FFC000
0007E7E000
0007C3E000
001F81F800
0000000000
0000000000
0000000000
FE003E003F
7E007E007E
7F007F007E
3F00FF007E
3F00FF00FC
3F00FF80FC
3F80FF80FC
1F81FF80F8
1F81FF81F8
1F81F7C1F8
0FC3E7C1F0
0FC3E7C3F0
0FC3E3E3F0
07C7C3E3E0
07E7C3E3E0
07E7C3E7E0
03EF81F7E0
03EF81F7C0
03FF81F7C0
01FF00FFC0
01FF00FF80
01FF00FF80
01FE007F80
00FE007F00
00FE007F00
00FC003F00
ENDCHAR
STARTCHAR 0176
ENCODING 374
SWIDTH 640 0
DWIDTH 32 0
BBX 33 46 0 0
BITMAP
0007E00000
000FF00000
001FF80000
003FFC0000
007E7E0000
007C3F0000
01F81F8000
0000000000
0000000000
0000000000
FE00007F80
7F00007F00
7F0000FE00
3F8001FE00
3F8001FC00
1FC003F800
0FE003F800
0FE007F000
07F007F000
07F00FE000
03F80FE000
03F81FC000
01FC1F8000
00FC3F8000
00FE3F0000
007E7F0000
007F7E0000
003FFC0000
001FFC0000
001FF80000
000FF80000
000FF00000
0007F00000
0007F00000
0007F00000
0007F00000
0007F00000
0007F00000
0007F00000
0007F00000
0007F00000
0007F00000
0007F00000
0007F00000
0007F00000
0007F00000
ENDCHAR
STARTCHAR 0177
ENCODING 375
SWIDTH 520 0
DWIDTH 26 0
BBX 26 44 0 -8
BITMAP
001F8000
003FC000
007FE000
00FFF000
01F9F800
01F0F800
07E07E00
00000000
00000000
00000000
FE000FC0
7E000FC0
7F001F80
3F001F80
3F803F00
1F803F00
1FC03F00
1FC07E00
0FC07E00
0FE0FC00
07E0FC00
07F0F800
03F1F800
03F1F800
01FBF000
01FBF000
01FBE000
00FFE000
00FFC000
007FC000
007FC000
003F8000
003F8000
003F0000
003F0000
003E0000
007E0000
007E0000
00FC0000
00FC0000
01F80000
01F80000
03F00000
03F00000
ENDCHAR
STARTCHAR 0178
ENCODING 376
SWIDTH 640 0
DWIDTH 32 0
BBX 33 45 0 0
BITMAP
00700E0000
00F81F0000
01FC3F8000
01FC3F8000
01FC3F8000
00F81F0000
00700E0000
0000000000
0000000000
FE00007F80
7F00007F00
7F0000FE00
3F8001FE00
3F8001FC00
1FC003F800
0FE003F800
0FE007F000
07F007F000
07F00FE000
03F80FE000
03F81FC000
01FC1F8000
00FC3F8000
00FE3F0000
007E7F0000
007F7E0000
003FFC0000
001FFC0000
001FF80000
000FF80000
000FF00000
0007F00000
0007F00000
0007F00000
0007F00000
0007F00000
0007F00000
0007F00000
0007F00000
0007F00000
0007F00000
0007F00000
0007F00000
0007F00000
0007F00000
ENDCHAR
STARTCHAR 0179
ENCODING 377
SWIDTH 600 0
DWIDTH 30 0
BBX 28 47 1 0
BITMAP
0000FF80
0001FE00
0003FC00
0003F800
0007F000
000FE000
001FC000
003F8000
00000000
00000000
00000000
7FFFFFF0
7FFFFFF0
7FFFFFF0
7FFFFFF0
7FFFFFE0
00001FE0
00003FC0
00007F80
00007F80
0000FF00
0001FE00
0001FC00
0003FC00
0007F800
0007F000
000FF000
001FE000
003FC000
003FC000
007F8000
00FF0000
00FE0000
01FE0000
03FC0000
03F80000
07F80000
0FF00000
1FE00000
1FC00000
3FC00000
7F800000
7FFFFFF0
FFFFFFF0
FFFFFFF0
FFFFFFF0
FFFFFFF0
ENDCHAR
STARTCHAR 017A
ENCODING 378
SWIDTH 460 0
DWIDTH 23 0
BBX 20 36 1 0
BITMAP
000FF0
001FC0
001F80
003F00
007E00
007E00
00FC00
000000
000000
000000
7FFFF0
7FFFF0
7FFFF0
7FFFF0
7FFFF0
0007E0
000FC0
001FC0
001F80
003F00
007E00
00FE00
00FC00
01F800
03F000
07F000
07E000
0FC000
1F8000
3F8000
3F0000
7FFFF0
FFFFF0
FFFFF0
FFFFF0
FFFFF0
ENDCHAR
STARTCHAR 017B
ENCODING 379
SWIDTH 600 0
DWIDTH 30 0
BBX 28 46 1 0
BITMAP
00078000
000FC000
001FE000
001FE000
001FE000
000FC000
00078000
00000000
00000000
00000000
7FFFFFF0
7FFFFFF0
7FFFFFF0
7FFFFFF0
7FFFFFE0
00001FE0
00003FC0
00007F80
00007F80
0000FF00
0001FE00
0001FC00
0003FC00
0007F800
0007F000
000FF000
001FE000
003FC000
003FC000
007F8000
00FF0000
00FE0000
01FE0000
03FC0000
03F80000
07F80000
0FF00000
1FE00000
1FC00000
3FC00000
7F800000
7FFFFFF0
FFFFFFF0
FFFFFFF0
FFFFFFF0
FFFFFFF0
ENDCHAR
STARTCHAR 017C
ENCODING 380
SWIDTH 460 0
DWIDTH 23 0
BBX 20 37 1 0
BITMAP
007800
00FC00
01FE00
01FE00
01FE00
01FE00
00FC00
007800
000000
000000
000000
7FFFF0
7FFFF0
7FFFF0
7FFFF0
7FFFF0
0007E0
000FC0
001FC0
001F80
003F00
007E00
00FE00
00FC00
01F800
03F000
07F000
07E000
0FC000
1F8000
3F8000
3F0000
7FFFF0
FFFFF0
FFFFF0
FFFFF0
FFFFF0
ENDCHAR
STARTCHAR 017D
ENCODING 381
SWIDTH 600 0
DWIDTH 30 0
BBX 28 46 1 0
BITMAP
03F03F00
01F87E00
00FCFC00
007DF800
003FF000
001FE000
000FC000
00000000
00000000
00000000
7FFFFFF0
7FFFFFF0
7FFFFFF0
7FFFFFF0
7FFFFFE0
00001FE0
00003FC0
00007F80
00007F80
0000FF00
0001FE00
0001FC00
0003FC00
0007F800
0007F000
000FF000
001FE000
003FC000
003FC000
007F8000
00FF0000
00FE0000
01FE0000
03FC0000
03F80000
07F80000
0FF00000
1FE00000
1FC00000
3FC00000
7F800000
7FFFFFF0
FFFFFFF0
FFFFFFF0
FFFFFFF0
FFFFFFF0
ENDCHAR
STARTCHAR 017E
ENCODING 382
SWIDTH 460 0
DWIDTH 23 0
BBX 20 36 1 0
BITMAP
3F03F0
0F87C0
0FCFC0
07FF80
03FF00
01FE00
00FC00
000000
000000
000000
7FFFF0
7FFFF0
7FFFF0
7FFFF0
7FFFF0
0007E0
000FC0
001FC0
001F80
003F00
007E00
00FE00
00FC00
01F800
03F000
07F000
07E000
0FC000
1F8000
3F8000
3F0000
7FFFF0
FFFFF0
FFFFF0
FFFFF0
FFFFF0
ENDCHAR
STARTCHAR 017F
ENCODING 383
SWIDTH 300 0
DWIDTH 15 0
BBX 17 36 1 0
BITMAP
003F00
01FF80
03FF80
07FF80
07FF00
0FF000
0FE000
0FC000
0FC000
0FC000
FFC000
FFC000
FFC000
FFC000
1FC000
0FC000
0FC000
0FC000
0FC000
0FC000
0FC000
0FC000
0FC000
0FC000
0FC000
0FC000
0FC000
0FC000
0FC000
0FC000
0FC000
0FC000
0FC000
0FC000
0FC000
0FC000
ENDCHAR
STARTCHAR 0180
ENCODING 384
SWIDTH 560 0
DWIDTH 28 0
BBX 28 37 -1 0
BITMAP
0FC00000
0FC00000
0FC00000
0FC00000
0FC00000
FFFF0000
FFFF0000
FFFF0000
FFFF0000
0FC00000
0FC00000
0FC1F800
0FC7FE00
0FDFFF00
0FFFFF80
0FFFFFC0
0FF83FC0
0FF00FE0
0FE00FE0
0FC007E0
0FC007E0
0FC007F0
0FC007F0
0FC007F0
0FC007F0
0FC007F0
0FC007E0
0FC007E0
0FC00FE0
0FC00FE0
0FE01FC0
0FF83FC0
0FFFFF80
0FFFFF00
0FDFFF00
0FCFFC00
0F83F000
ENDCHAR
STARTCHAR 0181
ENCODING 385
SWIDTH 820 0
DWIDTH 41 0
BBX 38 36 1 0
BITMAP
01FFFFF800
0FFFFFFF00
3FFFFFFFC0
3FFFFFFFE0
7FFFFFFFF0
FE1FC01FF0
FC1FC007F8
FC1FC003F8
FC1FC003F8
FC1FC003F8
FC1FC003F8
FC1FC003F8
F81FC003F0
001FC007F0
001FC01FE0
001FFFFFC0
001FFFFF00
001FFFFF00
001FFFFFC0
001FFFFFF0
001FC00FF8
001FC003F8
001FC001FC
001FC001FC
001FC001FC
001FC001FC
001FC001FC
001FC001FC
001FC003F8
001FC003F8
001FC00FF8
001FFFFFF0
001FFFFFE0
001FFFFFC0
001FFFFF00
001FFFF800
ENDCHAR
STARTCHAR 0182
ENCODING 386
SWIDTH 620 0
DWIDTH 31 0
BBX 26 36 4 0
BITMAP
FFFFFF80
FFFFFF80
FFFFFF80
FFFFFF80
FFFFFF80
FE000000
FE000000
FE000000
FE000000
FE000000
FE000000
FE000000
FE000000
FE000000
FE000000
FFFFC000
FFFFF800
FFFFFC00
FFFFFE00
FFFFFF00
FE00FF80
FE003F80
FE001FC0
FE001FC0
FE001FC0
FE001FC0
FE001FC0
FE001FC0
FE003F80
FE003F80
FE00FF00
FFFFFF00
FFFFFE00
FFFFFC00
FFFFF000
FFFF8000
ENDCHAR
STARTCHAR 0183
ENCODING 387
SWIDTH 560 0
DWIDTH 28 0
BBX 24 37 3 0
BITMAP
FFFFF8
FFFFF8
FFFFF8
FFFFF8
FFFFF8
FC0000
FC0000
FC0000
FC0000
FC0000
FC0000
FC1F80
FC7FE0
FDFFF0
FFFFF8
FFFFFC
FF83FC
FF00FE
FE00FE
FC007E
FC007E
FC007F
FC007F
FC007F
FC007F
FC007F
FC007E
FC007E
FC00FE
FC00FE
FE01FC
FF03FC
FFFFF8
FFFFF0
FDFFE0
FCFFC0
F83F00
ENDCHAR
STARTCHAR 0184
ENCODING 388
SWIDTH 700 0
DWIDTH 35 0
BBX 33 36 1 0
BITMAP
01F8000000
03F8000000
03F8000000
07F8000000
0FF8000000
1FF8000000
1FF8000000
3FF8000000
7FF8000000
FFF8000000
FFF8000000
7FF8000000
1FF8000000
0FFFFF0000
03FFFFE000
03FFFFF800
03FFFFFC00
03FFFFFE00
03F801FE00
03F800FF00
03F8007F00
03F8003F80
03F8003F80
03F8003F80
03F8003F80
03F8003F80
03F8003F80
03F8003F80
03F8007F00
03F800FF00
03F801FE00
03FFFFFE00
03FFFFFC00
03FFFFF800
03FFFFE000
03FFFF0000
ENDCHAR
STARTCHAR 0185
ENCODING 389
SWIDTH 580 0
DWIDTH 29 0
BBX 29 37 -1 0
BITMAP
03E00000
07E00000
07E00000
0FE00000
1FE00000
3FE00000
3FE00000
7FE00000
FFE00000
FFE00000
3FE00000
1FE0FC00
07E3FF00
07E7FF80
07FFFFC0
07FFFFE0
07FC1FE0
07F807F0
07F007F0
07E003F0
07E003F0
07E003F8
07E003F8
07E003F8
07E003F8
07E003F8
07E003F8
07E003F0
07E003F0
07E007F0
07F00FE0
07FC1FE0
07FFFFC0
07FFFFC0
07EFFF80
07E7FE00
07C1F800
ENDCHAR
STARTCHAR 0186
ENCODING 390
SWIDTH 660 0
DWIDTH 33 0
BBX 30 36 1 0
BITMAP
00FF8000
0FFFF000
3FFFFC00
7FFFFF00
FFFFFF80
7F80FFC0
3E003FE0
18001FE0
00000FF0
000007F0
000003F8
000003F8
000001FC
000001FC
000001FC
000001FC
000001FC
000001FC
000001FC
000001FC
000001FC
000001FC
000001FC
000001FC
000003F8
000003F8
000007F8
00000FF0
38001FE0
7C003FE0
FF80FFC0
FFFFFF80
7FFFFF00
1FFFFC00
07FFF800
00FF8000
ENDCHAR
STARTCHAR 0187
ENCODING 391
SWIDTH 660 0
DWIDTH 33 0
BBX 38 45 2 0
BITMAP
00000007F8
0000000FFC
0000001FFC
0000003FF8
0000007FF8
0000007F10
0000007E00
0000007C00
0000007C00
0007FEFC00
003FFFFC00
00FFFFFC00
01FFFFFC00
07FFFFFC00
0FFC07F800
0FF000F000
1FE0007000
3FC0000000
3F80000000
7F80000000
7F00000000
7F00000000
FE00000000
FE00000000
FE00000000
FE00000000
FE00000000
FE00000000
FE00000000
FE00000000
FE00000000
FE00000000
7F00000000
7F00000000
7F80000000
3F80000000
3FC0000000
1FE0007000
1FF000F800
0FFC03FC00
07FFFFFE00
03FFFFF800
00FFFFF000
003FFFC000
0007FC0000
ENDCHAR
STARTCHAR 0188
ENCODING 392
SWIDTH 480 0
DWIDTH 24 0
BBX 28 36 2 0
BITMAP
00000FC0
00003FF0
00007FE0
00007FE0
0000FFE0
0000FC00
0000F800
0000F800
0000F800
0000F800
00FFF800
03FFF800
0FFFF800
1FFFF800
3FFFF800
3FC1F000
7F006000
7E000000
FE000000
FC000000
FC000000
FC000000
FC000000
FC000000
FC000000
FC000000
FC000000
FE000000
7E000000
7F007000
3FC1F000
3FFFF800
1FFFF000
0FFFE000
07FFC000
00FE0000
ENDCHAR
STARTCHAR 0189
ENCODING 393
SWIDTH 780 0
DWIDTH 39 0
BBX 37 36 0 0
BITMAP
0FFFFE0000
0FFFFFC000
0FFFFFF000
0FFFFFFC00
0FFFFFFE00
0FE003FF00
0FE000FF80
0FE0003FC0
0FE0001FC0
0FE0001FE0
0FE0000FE0
0FE0000FF0
0FE00007F0
0FE00007F0
0FE00007F0
0FE00003F0
FFFFC003F8
FFFFC003F8
FFFFC003F8
FFFFC003F8
0FE00003F0
0FE00007F0
0FE00007F0
0FE00007F0
0FE0000FF0
0FE0000FE0
0FE0001FE0
0FE0001FC0
0FE0003FC0
0FE000FF80
0FE003FF00
0FFFFFFE00
0FFFFFFC00
0FFFFFF000
0FFFFFC000
0FFFFE0000
ENDCHAR
STARTCHAR 018A
ENCODING 394
SWIDTH 920 0
DWIDTH 46 0
BBX 43 36 1 0
BITMAP
01FFFFFC0000
0FFFFFFF8000
1FFFFFFFE000
3FFFFFFFF000
7FFFFFFFFC00
FE1FC007FE00
FC1FC001FE00
FC1FC000FF00
FC1FC0007F80
FC1FC0003F80
FC1FC0001FC0
FC1FC0001FC0
FC1FC0000FE0
601FC0000FE0
001FC0000FE0
001FC0000FE0
001FC0000FE0
001FC0000FE0
001FC0000FE0
001FC0000FE0
001FC0000FE0
001FC0000FE0
001FC0000FE0
001FC0000FE0
001FC0001FC0
001FC0001FC0
001FC0003F80
001FC0007F80
001FC000FF00
001FC001FF00
001FC007FE00
001FFFFFFC00
001FFFFFF000
001FFFFFE000
001FFFFF8000
001FFFFC0000
ENDCHAR
STARTCHAR 018B
ENCODING 395
SWIDTH 620 0
DWIDTH 31 0
BBX 25 36 2 0
BITMAP
7FFFFF80
7FFFFF80
7FFFFF80
7FFFFF80
7FFFFF80
00001F80
00001F80
00001F80
00001F80
00001F80
00001F80
00001F80
00001F80
00001F80
00001F80
00FFFF80
07FFFF80
1FFFFF80
3FFFFF80
7FFFFF80
7F801F80
FF001F80
FE001F80
FC001F80
FC001F80
FC001F80
FC001F80
FE001F80
FE001F80
7F001F80
7F801F80
3FFFFF80
1FFFFF80
0FFFFF80
07FFFF80
00FFFF80
ENDCHAR
STARTCHAR 018C
ENCODING 396
SWIDTH 560 0
DWIDTH 28 0
BBX 23 37 2 0
BITMAP
3FFFFE
3FFFFE
3FFFFE
3FFFFE
3FFFFE
00007E
00007E
00007E
00007E
00007E
00007E
01FC7E
07FF7E
0FFFFE
1FFFFE
3FFFFE
3FC1FE
7F00FE
7E007E
FE007E
FE007E
FC007E
FC007E
FC007E
FC007E
FC007E
FC007E
FC007E
FE007E
FE007E
7F00FE
7F83FE
3FFFFE
3FFFBE
1FFF3E
0FFE3E
03F83E
ENDCHAR
STARTCHAR 018D
ENCODING 397
SWIDTH 540 0
DWIDTH 27 0
BBX 25 36 1 0
BITMAP
00FF0000
03FFE000
0FFFF000
1FFFF800
3FFFFC00
7FC1FE00
7F00FE00
FE007F00
FE007F00
FC003F00
FC003F80
FC003F80
FC003F80
FC003F00
FC003F00
FE003F00
7E007F00
7F007E00
3F00FC00
1F81FC00
1FE3F800
07FFE000
03FF8000
01FF8000
007FE000
001FF000
0007F000
0003F800
0001F800
0001F800
1F81F800
1FFFF800
1FFFF800
1FFFF000
1FFFE000
07FF0000
ENDCHAR
STARTCHAR 018E
ENCODING 398
SWIDTH 580 0
DWIDTH 29 0
BBX 23 36 2 0
BITMAP
FFFFFE
FFFFFE
FFFFFE
FFFFFE
FFFFFE
0000FE
0000FE
0000FE
0000FE
0000FE
0000FE
0000FE
0000FE
0000FE
0000FE
1FFFFE
1FFFFE
1FFFFE
1FFFFE
1FFFFE
0000FE
0000FE
0000FE
0000FE
0000FE
0000FE
0000FE
0000FE
0000FE
0000FE
0000FE
FFFFFE
FFFFFE
FFFFFE
FFFFFE
FFFFFE
ENDCHAR
STARTCHAR 018F
ENCODING 399
SWIDTH 740 0
DWIDTH 37 0
BBX 33 36 2 0
BITMAP
003FE00000
03FFFE0000
0FFFFF8000
1FFFFFC000
7FFFFFE000
FFFFFFF000
7FC03FF800
3E0007FC00
180003FC00
000001FE00
000000FE00
0000007F00
0000007F00
0000007F00
0000007F00
0000003F00
FFFFFFFF80
FFFFFFFF80
FFFFFFFF80
FFFFFFFF80
FFFFFFFF80
FC00007F00
FC00007F00
FC00007F00
FE00007F00
7E0000FE00
7E0000FE00
7F0001FE00
3F8003FC00
3FC007F800
1FF01FF000
0FFFFFE000
07FFFFC000
03FFFF8000
00FFFE0000
001FF00000
ENDCHAR
STARTCHAR 0190
ENCODING 400
SWIDTH 600 0
DWIDTH 30 0
BBX 27 36 2 0
BITMAP
003FE000
01FFFC00
07FFFF00
0FFFFFC0
1FFFFFC0
3FE03F80
7F800700
7F000000
7F000000
7F000000
7F000000
7F000000
3F800000
3FE00000
1FFFF800
07FFF800
03FFF800
0FFFF800
1FFFF800
3FE00000
7F800000
7F000000
FE000000
FE000000
FE000000
FE000000
FE000000
FF000100
7F000380
7F800FC0
3FE03FE0
3FFFFFC0
1FFFFF80
07FFFE00
03FFF800
007FC000
ENDCHAR
STARTCHAR 0191
ENCODING 401
SWIDTH 560 0
DWIDTH 28 0
BBX 31 45 -4 -9
BITMAP
00FFFFFE
00FFFFFE
00FFFFFE
00FFFFFE
00FFFFFE
00FE0000
00FE0000
00FE0000
00FE0000
00FE0000
00FE0000
00FE0000
00FE0000
00FE0000
00FE0000
00FE0000
00FFFFF0
00FFFFF0
00FFFFF0
00FFFFF0
00FFFFF0
00FE0000
00FE0000
00FE0000
00FE0000
00FE0000
00FE0000
00FE0000
00FE0000
00FE0000
00FE0000
00FE0000
00FE0000
00FE0000
00FE0000
00FE0000
00FE0000
00FE0000
01FC0000
01FC0000
7FFC0000
7FF80000
FFF00000
FFE00000
7F800000
ENDCHAR
STARTCHAR 0192
ENCODING 402
SWIDTH 360 0
DWIDTH 18 0
BBX 20 46 -3 -10
BITMAP
0007F0
001FF0
003FF0
007FF0
00FFF0
00FE00
00FC00
01FC00
01F800
01F800
0FFFF0
0FFFF0
0FFFF0
0FFFF0
07FFF0
01FC00
01FC00
01FC00
01FC00
01FC00
01FC00
01FC00
01FC00
01FC00
01FC00
01FC00
01FC00
01FC00
01FC00
01FC00
01FC00
01FC00
01FC00
01FC00
01FC00
01FC00
01FC00
01FC00
01F800
01F800
03F800
FFF000
FFF000
FFE000
FFC000
7F0000
ENDCHAR
STARTCHAR 0193
ENCODING 403
SWIDTH 740 0
DWIDTH 37 0
BBX 40 45 2 0
BITMAP
00000001FC
00000007FF
0000000FFE
0000000FFE
0000001FFE
0000001F84
0000001F00
0000003F00
0000003F00
0003FF3F00
003FFFFF00
00FFFFFF00
01FFFFFF00
03FFFFFF00
0FFE01FE00
0FF0007C00
1FE0001C00
3FC0000000
3F80000000
7F00000000
7F00000000
7F00000000
FE00000000
FE00000000
FE00000000
FE00000000
FE00000000
FE000FFF00
FE000FFF00
FE000FFF00
FE000FFF00
FE000FFF00
7F00003F00
7F00003F00
7F80003F00
3F80003F00
3FC0003F00
1FE0003F00
0FF8003F00
07FE01FF00
03FFFFFF00
01FFFFFF00
00FFFFFC00
003FFFF000
0007FF0000
ENDCHAR
STARTCHAR 0194
ENCODING 404
SWIDTH 700 0
DWIDTH 35 0
BBX 37 36 -1 0
BITMAP
FF000007F8
7F80000FF0
3F80000FE0
3FC0001FC0
1FE0003FC0
0FE0003F80
07F0007F00
07F8007F00
03F800FE00
01FC01FC00
01FE01F800
00FE03F800
007F07F000
007F87E000
003F8FE000
001FDFC000
000FFF8000
000FFF8000
0007FF0000
0003FE0000
0003FC0000
0003FE0000
0007FF0000
000FFF0000
001FFF8000
001FDFC000
003F8FE000
007F07E000
007F07F000
00FE03F800
01FC01FC00
03FFFFFC00
03FFFFFE00
07FFFFFF00
0FFFFFFF00
1FFFFFFFC0
ENDCHAR
STARTCHAR 0195
ENCODING 405
SWIDTH 860 0
DWIDTH 43 0
BBX 37 37 3 0
BITMAP
FC00000000
FC00000000
FC00000000
FC00000000
FC00000000
FC00000000
FC00000000
FC00000000
FC00000000
FC00000000
FC00000000
FC3F8001F8
FCFFE001F8
FDFFF001F8
FFFFF801F8
FFFFF801F8
FF83FC01F8
FF01FC01F8
FC00FC01F8
FC00FC01F8
FC00FC01F8
FC00FC01F8
FC00FC01F8
FC00FC01F8
FC00FC01F8
FC00FC01F8
FC00FC01F8
FC00FC01F8
FC00FC03F8
FC00FE03F8
FC007E03F0
FC007F07F0
FC007FFFF0
FC003FFFE0
FC001FFFC0
FC000FFF80
FC0001FC00
ENDCHAR
STARTCHAR 0196
ENCODING 406
SWIDTH 340 0
DWIDTH 17 0
BBX 12 36 4 0
BITMAP
FE00
FE00
FE00
FE00
FE00
FE00
FE00
FE00
FE00
FE00
FE00
FE00
FE00
FE00
FE00
FE00
FE00
FE00
FE00
FE00
FE00
FE00
FE00
FE00
FE00
FE00
FE00
FE00
FE00
FE00
FF00
FFF0
7FF0
7FF0
3FF0
0FC0
ENDCHAR
STARTCHAR 0197
ENCODING 407
SWIDTH 320 0
DWIDTH 16 0
BBX 16 36 0 0
BITMAP
07E0
07E0
07E0
07E0
07E0
07E0
07E0
07E0
07E0
07E0
07E0
07E0
07E0
07E0
07E0
07E0
FFFF
FFFF
FFFF
FFFF
07E0
07E0
07E0
07E0
07E0
07E0
07E0
07E0
07E0
07E0
07E0
07E0
07E0
07E0
07E0
07E0
ENDCHAR
STARTCHAR 0198
ENCODING 408
SWIDTH 700 0
DWIDTH 35 0
BBX 31 36 4 0
BITMAP
FE0001FE
FE000FFE
FE001FFE
FE003FFE
FE007FFC
FE00FF80
FE00FE00
FE01FE00
FE01FC00
FE03F800
FE07F800
FE07F000
FE0FE000
FE1FE000
FE3FC000
FFFF8000
FFFF0000
FFFF8000
FFFFC000
FFFFE000
FE1FE000
FE0FF000
FE07F800
FE03FC00
FE03FC00
FE01FE00
FE00FF00
FE007F00
FE007F80
FE003FC0
FE001FE0
FE000FE0
FE000FF0
FE0007F8
FE0003FC
FE0001FE
ENDCHAR
STARTCHAR 0199
ENCODING 409
SWIDTH 540 0
DWIDTH 27 0
BBX 24 36 3 0
BITMAP
03F800
0FFC00
3FFC00
3FFC00
7FF800
7F0000
FE0000
FC0000
FC0000
FC0000
FC00FE
FC01FC
FC03F8
FC03F0
FC07F0
FC0FE0
FC1FC0
FC3F80
FC3F00
FC7E00
FFFE00
FFFC00
FFFE00
FFFE00
FC7F00
FC3F80
FC3F80
FC1FC0
FC0FE0
FC0FE0
FC07F0
FC03F8
FC03F8
FC01FC
FC00FE
FC007F
ENDCHAR
STARTCHAR 019A
ENCODING 410
SWIDTH 280 0
DWIDTH 14 0
BBX 13 37 1 0
BITMAP
1F80
1F80
1F80
1F80
1F80
1F80
1F80
1F80
1F80
1F80
1F80
1F80
1F80
1F80
1F80
1F80
FFF8
FFF8
FFF8
FFF8
FFF8
1F80
1F80
1F80
1F80
1F80
1F80
1F80
1F80
1F80
1F80
1F80
1F80
1F80
1F80
1F80
1F80
ENDCHAR
STARTCHAR 019B
ENCODING 411
SWIDTH 540 0
DWIDTH 27 0
BBX 26 36 0 0
BITMAP
1F000000
3FC00000
3FE00000
3FF00000
3FF00000
03F84000
01FBC000
01FFE000
00FFE000
07FF8000
1FFC0000
0FFE0000
0F7E0000
083F0000
007F0000
007F0000
007F8000
00FF8000
00FF8000
01FFC000
01F7C000
03F7C000
03E7E000
07E3E000
07E3F000
07C3F000
0FC1F000
0FC1F800
1F81F800
1F80F800
3F80FC00
3F00FE00
7F007FC0
7F003FC0
7E001FC0
FE000FC0
ENDCHAR
STARTCHAR 019C
ENCODING 412
SWIDTH 1100 0
DWIDTH 55 0
BBX 47 36 4 0
BITMAP
FC000FE000FE
FC000FE000FE
FC000FE000FE
FC000FE000FE
FC000FE000FE
FC000FE000FE
FC000FE000FE
FC000FE000FE
FC000FE000FE
FC000FE000FE
FC000FE000FE
FC000FE000FE
FC000FE000FE
FC000FE000FE
FC000FE000FE
FC000FE000FE
FC000FE000FE
FC000FE000FE
FC000FE000FE
FC000FE000FE
FC000FE000FE
FC000FE000FE
FC000FE000FE
FC000FE000FE
FE000FE000FE
FE001FE001FE
FE001FE001FE
FE001FE003FE
FF003FF003FE
7F807FF007FE
7FC0FFFC1FFE
3FFFF9FFFFFE
1FFFF1FFFE7E
0FFFE0FFFC7E
07FFC03FF87E
01FE000FC03E
ENDCHAR
STARTCHAR 019D
ENCODING 413
SWIDTH 780 0
DWIDTH 39 0
BBX 39 46 -4 -10
BITMAP
00F800007E
00FC00007E
00FE00007E
00FF00007E
00FF00007E
00FF80007E
00FFC0007E
00FFE0007E
00FFF0007E
00FFF0007E
00FFF8007E
00FFFC007E
00FDFE007E
00FCFF007E
00FCFF007E
00FC7F807E
00FC3FC07E
00FC1FE07E
00FC0FE07E
00FC0FF07E
00FC07F87E
00FC03FC7E
00FC01FE7E
00FC00FE7E
00FC00FF7E
00FC007FFE
00FC003FFE
00FC001FFE
00FC000FFE
00FC000FFE
00FC0007FE
00FC0003FE
00FC0001FE
00FC0000FE
00FC0000FE
00FC00007E
00FC000000
00FC000000
00FC000000
01FC000000
01F8000000
7FF8000000
7FF8000000
FFF0000000
FFE0000000
7F80000000
ENDCHAR
STARTCHAR 019E
ENCODING 414
SWIDTH 600 0
DWIDTH 30 0
BBX 26 34 1 -8
BITMAP
7C03F800
FE0FFE00
FF1FFF00
FFFFFF80
FFFFFF80
1FF83FC0
0FF01FC0
0FE00FC0
0FC00FC0
0FC00FC0
0FC00FC0
0FC00FC0
0FC00FC0
0FC00FC0
0FC00FC0
0FC00FC0
0FC00FC0
0FC00FC0
0FC00FC0
0FC00FC0
0FC00FC0
0FC00FC0
0FC00FC0
0FC00FC0
0FC00FC0
0FC00FC0
00000FC0
00000FC0
00000FC0
00000FC0
00000FC0
00000FC0
00000FC0
00000FC0
ENDCHAR
STARTCHAR 019F
ENCODING 415
SWIDTH 800 0
DWIDTH 40 0
BBX 37 36 2 0
BITMAP
0003FE0000
003FFFC000
00FFFFF000
01FFFFFC00
03FFFFFE00
07FE03FF00
0FF000FF80
1FE0003F80
3FC0001FC0
3F80001FE0
7F00000FE0
7F00000FE0
7F000007F0
FE000007F0
FE000007F0
FFFFFFFFF0
FFFFFFFFF0
FFFFFFFFF0
FFFFFFFFF8
FFFFFFFFF0
FE000007F0
FE000007F0
FE000007F0
7F000007F0
7F00000FE0
7F00000FE0
3F80001FE0
3FC0001FC0
1FE0007F80
0FF000FF80
07FE03FF00
03FFFFFE00
01FFFFFC00
00FFFFF000
003FFFC000
0003FE0000
ENDCHAR
STARTCHAR 01A0
ENCODING 416
SWIDTH 860 0
DWIDTH 43 0
BBX 40 40 2 0
BITMAP
000000003F
000000007F
000000007F
000000007F
0003FE003F
003FFFC03F
00FFFFF03F
01FFFFFC3E
03FFFFFEFE
07FE03FFFC
0FF000FFF0
1FE0003FC0
3FC0001FC0
3F80001FE0
7F00000FE0
7F00000FE0
7F000007F0
FE000007F0
FE000007F0
FE000007F0
FE000003F0
FE000003F8
FE000003F0
FE000003F0
FE000007F0
FE000007F0
FE000007F0
7F000007F0
7F00000FE0
7F00000FE0
3F80001FE0
3FC0001FC0
1FE0003F80
0FF000FF80
07FC03FF00
03FFFFFE00
01FFFFFC00
00FFFFF000
003FFFC000
0003FE0000
ENDCHAR
STARTCHAR 01A1
ENCODING 417
SWIDTH 620 0
DWIDTH 31 0
BBX 30 30 2 0
BITMAP
0000007C
000000FC
000000FC
000000FC
00FF00FC
03FFE07C
0FFFF07C
1FFFF8F8
3FFFFDF0
3FC1FFE0
7F007FC0
7E007F00
FE003F00
FC003F80
FC003F80
FC001F80
FC001F80
FC001F80
FC001F80
FC003F80
FC003F80
FE003F00
7E007F00
7F007F00
3FC1FE00
3FFFFE00
1FFFFC00
0FFFF800
03FFE000
00FF0000
ENDCHAR
STARTCHAR 01A2
ENCODING 418
SWIDTH 1020 0
DWIDTH 51 0
BBX 46 44 2 -8
BITMAP
0007FC007F00
003FFF81FFC0
00FFFFE7FFE0
03FFFFFFFFF0
07FFFFFFFFF8
0FFC0FFF87F8
1FF003FF03F8
1FC000FE01FC
3FC0007F01FC
3F80007F01FC
7F00003F81FC
7F00003F81FC
7F00001F81FC
FE00001FC1FC
FE00001FC1FC
FE00001FC1FC
FE00001FC1FC
FE00001FC1FC
FE00001FC1FC
FE00001FC1FC
FE00001FC1FC
FE00001FC1FC
FE00001FC1FC
7F00001F81FC
7F00003F81FC
7F00003F81FC
3F80007F01FC
3FC0007F01FC
1FC000FE01FC
1FF003FE01FC
0FFC0FFC01FC
07FFFFF801FC
03FFFFF001FC
00FFFFC001FC
003FFF8001FC
0007FC0001FC
0000000001FC
0000000001FC
0000000001FC
0000000001FC
0000000001FC
0000000001FC
0000000001FC
0000000001FC
ENDCHAR
STARTCHAR 01A3
ENCODING 419
SWIDTH 820 0
DWIDTH 41 0
BBX 36 34 2 -8
BITMAP
00FF007E00
03FFE1FF80
0FFFF3FFC0
1FFFFFFFE0
3FFFFFFFE0
3FC1FF8FF0
7F007F07F0
7E007E03F0
FE007E03F0
FC007E03F0
FC007E03F0
FC007E03F0
FC007E03F0
FC007E03F0
FC007E03F0
FC007E03F0
FC007E03F0
FE007E03F0
7E007E03F0
7F00FE03F0
3FC1FE03F0
3FFFFC03F0
1FFFF803F0
0FFFF003F0
03FFE003F0
00FF0003F0
00000003F0
00000003F0
00000003F0
00000003F0
00000003F0
00000003F0
00000003F0
00000003F0
ENDCHAR
STARTCHAR 01A4
ENCODING 420
SWIDTH 780 0
DWIDTH 39 0
BBX 37 36 1 0
BITMAP
01FFFFF000
0FFFFFFE00
1FFFFFFF80
3FFFFFFFC0
7FFFFFFFE0
FE1FC03FF0
FC1FC00FF0
FC1FC007F0
FC1FC003F8
FC1FC003F8
FC1FC003F8
FC1FC003F8
FC1FC003F8
401FC003F8
001FC003F8
001FC007F0
001FC00FF0
001FC03FE0
001FFFFFE0
001FFFFFC0
001FFFFF80
001FFFFE00
001FFFF000
001FC00000
001FC00000
001FC00000
001FC00000
001FC00000
001FC00000
001FC00000
001FC00000
001FC00000
001FC00000
001FC00000
001FC00000
001FC00000
ENDCHAR
STARTCHAR 01A5
ENCODING 421
SWIDTH 560 0
DWIDTH 28 0
BBX 24 44 3 -8
BITMAP
03F800
0FFC00
3FFC00
3FFC00
7FF800
7F0000
FE0000
FC0000
FC0000
FC0000
FC1F80
FC7FE0
FDFFF0
FFFFF8
FFFFFC
FF83FC
FF00FE
FE00FE
FC007E
FC007E
FC007F
FC007F
FC007F
FC007F
FC007F
FC007E
FC007E
FC00FE
FC00FE
FE01FC
FF03FC
FFFFF8
FFFFF0
FDFFE0
FCFFC0
FC3F00
FC0000
FC0000
FC0000
FC0000
FC0000
FC0000
FC0000
FC0000
ENDCHAR
STARTCHAR 01A6
ENCODING 422
SWIDTH 620 0
DWIDTH 31 0
BBX 28 41 4 -5
BITMAP
FE000000
FE000000
FE000000
FE000000
FE000000
FFFF0000
FFFFE000
FFFFF800
FFFFFC00
FFFFFE00
FE01FF00
FE007F00
FE007F80
FE003F80
FE003F80
FE003F80
FE003F80
FE003F80
FE003F80
FE007F00
FE00FF00
FE03FE00
FFFFFC00
FFFFF800
FFFFF000
FFFF8000
FFFFC000
FE1FE000
FE0FF000
FE07F000
FE03F800
FE03FC00
FE01FC00
FE00FE00
FE00FF00
FE007F80
00003F80
00003FC0
00001FE0
00000FE0
00000FF0
ENDCHAR
STARTCHAR 01A7
ENCODING 423
SWIDTH 540 0
DWIDTH 27 0
BBX 24 36 2 0
BITMAP
01FE00
0FFFC0
3FFFE0
7FFFF0
7FFFF8
3F03FC
3C01FC
1000FE
0000FE
0000FE
0000FE
0000FE
0001FE
0007FC
001FFC
00FFF8
03FFF8
0FFFF0
1FFFC0
7FFF00
7FF800
FFE000
FF8000
FE0000
FE0000
FC0000
FC0000
FC0000
FE001C
FE007E
7F81FE
7FFFFF
3FFFFE
1FFFFC
07FFF0
00FF00
ENDCHAR
STARTCHAR 01A8
ENCODING 424
SWIDTH 440 0
DWIDTH 22 0
BBX 20 26 1 0
BITMAP
03FC00
0FFF00
3FFF80
7FFFC0
3FFFE0
3C0FE0
0007E0
0007E0
0007E0
000FE0
003FC0
01FF80
07FF00
1FFC00
3FE000
7F0000
7E0000
FC0000
FC0000
FE01C0
7F07C0
7FFFE0
7FFFF0
3FFFC0
0FFF80
03FC00
ENDCHAR
STARTCHAR 01A9
ENCODING 425
SWIDTH 620 0
DWIDTH 31 0
BBX 27 36 2 0
BITMAP
FFFFFFE0
FFFFFFE0
FFFFFFE0
FFFFFFE0
FFFFFFE0
7F000000
3FC00000
1FE00000
0FE00000
0FF00000
07F80000
03FC0000
01FE0000
00FE0000
007F0000
003F8000
003FC000
001FC000
001FC000
001F8000
003F0000
007F0000
00FE0000
01FC0000
03F80000
07F00000
0FE00000
0FE00000
1FC00000
3F800000
7F000000
FFFFFFE0
FFFFFFE0
FFFFFFE0
FFFFFFE0
FFFFFFE0
ENDCHAR
STARTCHAR 01AA
ENCODING 426
SWIDTH 360 0
DWIDTH 18 0
BBX 25 48 -3 -9
BITMAP
03F00000
0FFC0000
3FFE0000
3FFF0000
7FFF8000
7E3F8000
FC1F8000
FC1FC000
FC1FC000
FC1FC000
FE3FC000
7FFFC000
7FFFC000
3FFFC000
1FFFC000
07FFC000
001FC000
001FC000
001FC000
001FC000
001FC000
001FC000
001FC000
001FC000
001FC000
001FC000
001FC000
001FC000
001FC000
001FC000
001FC000
001FC000
001FC000
001FC000
001FC000
001FC000
001FC000
001FC000
001FC000
001FC000
000FC000
000FC000
000FE000
000FFF80
0007FF80
0003FF80
0001FF80
00007F00
ENDCHAR
STARTCHAR 01AB
ENCODING 427
SWIDTH 380 0
DWIDTH 19 0
BBX 17 43 1 -9
BITMAP
01C000
07C000
07C000
07C000
07C000
0FC000
0FC000
0FC000
3FFF80
FFFF80
FFFF80
FFFF80
FFFF80
0FC000
0FC000
0FC000
0FC000
0FC000
0FC000
0FC000
0FC000
0FC000
0FC000
0FC000
0FC000
0FC000
0FC000
0FC000
0FE380
0FFF80
0FFF80
07FF80
03FF80
01FF80
000F80
000F80
000F80
001F80
03FF80
03FF00
03FF00
03FE00
01F800
ENDCHAR
STARTCHAR 01AC
ENCODING 428
SWIDTH 680 0
DWIDTH 34 0
BBX 32 36 1 0
BITMAP
01FFFFFF
0FFFFFFF
1FFFFFFF
3FFFFFFF
7FFFFFFF
7E01FC00
FC01FC00
FC01FC00
FC01FC00
FC01FC00
FC01FC00
FC01FC00
FC01FC00
6001FC00
0001FC00
0001FC00
0001FC00
0001FC00
0001FC00
0001FC00
0001FC00
0001FC00
0001FC00
0001FC00
0001FC00
0001FC00
0001FC00
0001FC00
0001FC00
0001FC00
0001FC00
0001FC00
0001FC00
0001FC00
0001FC00
0001FC00
ENDCHAR
STARTCHAR 01AD
ENCODING 429
SWIDTH 380 0
DWIDTH 19 0
BBX 17 36 1 0
BITMAP
007E00
01FF00
03FF00
03FF00
07E000
07C000
07C000
07C000
0FC000
0FC000
3FFF80
FFFF80
FFFF80
FFFF80
FFFF80
0FC000
0FC000
0FC000
0FC000
0FC000
0FC000
0FC000
0FC000
0FC000
0FC000
0FC000
0FC000
0FC000
0FC000
0FC000
0FE200
0FFF00
0FFF80
07FF80
03FF00
00FC00
ENDCHAR
STARTCHAR 01AE
ENCODING 430
SWIDTH 600 0
DWIDTH 30 0
BBX 28 46 1 -10
BITMAP
FFFFFFF0
FFFFFFF0
FFFFFFF0
FFFFFFF0
FFFFFFF0
001F8000
001F8000
001F8000
001F8000
001F8000
001F8000
001F8000
001F8000
001F8000
001F8000
001F8000
001F8000
001F8000
001F8000
001F8000
001F8000
001F8000
001F8000
001F8000
001F8000
001F8000
001F8000
001F8000
001F8000
001F8000
001F8000
001F8000
001F8000
001F8000
001F8000
001F8000
001F8000
001F8000
001FC000
001FC000
001FE000
000FFF00
000FFF80
0007FF80
0003FF80
0000FF00
ENDCHAR
STARTCHAR 01AF
ENCODING 431
SWIDTH 860 0
DWIDTH 43 0
BBX 40 40 4 0
BITMAP
000000003F
000000007F
000000007F
000000007F
FC0001FC7F
FC0001FC3F
FC0001FC3E
FC0001FC3E
FC0001FCFC
FC0001FFF8
FC0001FFF0
FC0001FF80
FC0001FC00
FC0001FC00
FC0001FC00
FC0001FC00
FC0001FC00
FC0001FC00
FC0001FC00
FC0001FC00
FC0001FC00
FC0001FC00
FC0001FC00
FC0001FC00
FC0001FC00
FC0001FC00
FC0001F800
FC0001F800
FE0003F800
FE0003F800
FF0007F800
7F0007F000
7FC00FF000
3FF03FE000
3FFFFFE000
1FFFFFC000
0FFFFF8000
03FFFF0000
01FFFC0000
003FE00000
ENDCHAR
STARTCHAR 01B0
ENCODING 432
SWIDTH 660 0
DWIDTH 33 0
BBX 31 30 3 0
BITMAP
0000007E
0000007E
000000FE
0000007E
FC00FC7E
FC00FC3C
FC00FC7C
FC00FCF8
FC00FFF8
FC00FFE0
FC00FF80
FC00FC00
FC00FC00
FC00FC00
FC00FC00
FC00FC00
FC00FC00
FC00FC00
FC00FC00
FC00FC00
FC00FC00
FC00FC00
FC00FC00
FE01FC00
FF07FC00
7FFFFC00
7FFFFC00
3FFE7C00
1FFC7C00
07F07C00
ENDCHAR
STARTCHAR 01B1
ENCODING 433
SWIDTH 820 0
DWIDTH 41 0
BBX 37 36 2 0
BITMAP
7FFF07FFF0
FFFF07FFF8
FFFF07FFF8
FFFF07FFF8
FFFF07FFF8
007F07F000
01FF07FC00
03FF07FE00
07F800FF00
0FF0007F80
1FE0003FC0
1FC0001FC0
3F80000FE0
3F80000FE0
7F00000FE0
7F000007F0
7F000007F0
7F000007F0
7E000007F0
7E000007F0
7E000007F0
7E000007F0
7F000007F0
7F000007F0
7F000007E0
3F80000FE0
3F80000FE0
1FC0001FC0
1FE0003F80
0FF000FF80
07FE03FF00
03FFFFFE00
01FFFFFC00
007FFFF000
001FFFC000
0003FE0000
ENDCHAR
STARTCHAR 01B2
ENCODING 434
SWIDTH 740 0
DWIDTH 37 0
BBX 31 36 4 0
BITMAP
FC007F80
FC00FFE0
FC007FF0
FC007FF8
FC007FF8
FC0003FC
FC0001FC
FC0000FC
FC0000FE
FC0000FE
FC0000FE
FC0000FE
FC0000FE
FC0000FE
FC0000FE
FC0000FC
FC0001FC
FC0001FC
FC0001FC
FC0001F8
FC0003F8
FC0003F8
FC0007F0
FC0007F0
FC000FE0
FC000FE0
FE001FC0
FE003F80
FE007F80
7F00FF00
7F83FE00
7FFFFC00
3FFFF000
1FFFE000
0FFF8000
01FC0000
ENDCHAR
STARTCHAR 01B3
ENCODING 435
SWIDTH 740 0
DWIDTH 37 0
BBX 37 36 0 0
BITMAP
FE00000FF0
7F00003FF8
7F00007FF0
3F8000FFF0
3F8001FFF0
1FC001FC00
1FE003F800
0FE003F000
07F007F000
07F007E000
03F80FE000
03F81FC000
01FC1F8000
00FC3F8000
00FE3F0000
007E7F0000
007F7E0000
003FFC0000
001FFC0000
001FF80000
000FF80000
000FF00000
0007F00000
0007F00000
0007F00000
0007F00000
0007F00000
0007F00000
0007F00000
0007F00000
0007F00000
0007F00000
0007F00000
0007F00000
0007F00000
0007F00000
ENDCHAR
STARTCHAR 01B4
ENCODING 436
SWIDTH 600 0
DWIDTH 30 0
BBX 30 34 0 -8
BITMAP
FE0001FC
7E0007FC
7F000FFC
3F001FF8
3F801F80
3F803F00
1F803F00
1FC07E00
0FC07E00
0FE07C00
07E0FC00
07E0F800
03F1F800
03F1F800
03F9F000
01FBF000
01FBE000
00FFE000
00FFC000
007FC000
007FC000
007F8000
003F8000
003F0000
003F0000
003E0000
007E0000
007E0000
00FC0000
00FC0000
01F80000
01F80000
03F00000
03F00000
ENDCHAR
STARTCHAR 01B5
ENCODING 437
SWIDTH 600 0
DWIDTH 30 0
BBX 28 36 1 0
BITMAP
7FFFFFF0
7FFFFFF0
7FFFFFF0
7FFFFFF0
7FFFFFE0
00001FE0
00003FC0
00003F80
00007F80
0000FF00
0001FE00
0001FC00
0003FC00
0007F800
0007F000
3FFFFFE0
3FFFFFE0
3FFFFFE0
3FFFFFE0
3FFFFFE0
00FF0000
00FE0000
01FE0000
03FC0000
03F80000
07F80000
0FF00000
0FE00000
1FE00000
3FC00000
7F800000
7FFFFFF0
FFFFFFF0
FFFFFFF0
FFFFFFF0
FFFFFFF0
ENDCHAR
STARTCHAR 01B6
ENCODING 438
SWIDTH 460 0
DWIDTH 23 0
BBX 21 26 1 0
BITMAP
7FFFF8
7FFFF8
7FFFF8
7FFFF0
7FFFF0
0007F0
000FE0
000FC0
001F80
003F80
003F00
7FFFF0
7FFFF0
7FFFF0
7FFFF0
03F000
07E000
0FC000
1FC000
1F8000
3F0000
7FFFF0
FFFFF0
FFFFF0
FFFFF0
FFFFF0
ENDCHAR
STARTCHAR 01B7
ENCODING 439
SWIDTH 600 0
DWIDTH 30 0
BBX 27 36 1 0
BITMAP
7FFFFFC0
7FFFFFC0
7FFFFFC0
7FFFFF80
7FFFFF80
0000FF00
0001FE00
0003FC00
0007F800
000FF000
001FE000
003FC000
007F8000
00FF0000
01FFF800
01FFFE00
01FFFF00
01FFFF80
0003FF80
00007FC0
00001FC0
00001FC0
00000FE0
00000FE0
00000FE0
00000FC0
00001FC0
10001FC0
3C003FC0
7E007F80
FF81FF00
FFFFFE00
3FFFFC00
1FFFF800
07FFE000
00FF0000
ENDCHAR
STARTCHAR 01B8
ENCODING 440
SWIDTH 600 0
DWIDTH 30 0
BBX 27 36 2 0
BITMAP
7FFFFF80
7FFFFF80
7FFFFF80
7FFFFF80
3FFFFF80
1FE00000
0FF00000
07F80000
03FC0000
01FE0000
00FF0000
007F8000
003FC000
001FE000
03FFE000
0FFFF000
1FFFF000
3FFFF000
7FF80000
7F800000
FF000000
FE000000
FE000000
FE000000
FE000000
FE000000
FE000000
7F000300
7F000780
3F800FC0
3FE03FE0
1FFFFFC0
0FFFFF80
07FFFE00
01FFFC00
003FE000
ENDCHAR
STARTCHAR 01B9
ENCODING 441
SWIDTH 440 0
DWIDTH 22 0
BBX 21 35 2 -9
BITMAP
7FFFF0
7FFFF0
7FFFF0
7FFFF0
7FFFF0
3F8000
1F8000
0FC000
07E000
03F000
03F800
01FC00
00FC00
007E00
03FF00
0FFF00
3FFF00
7FFF00
7F0000
FE0000
FC0000
FC0000
FC0000
FC0000
FC0000
FC0000
FC0000
FE0000
7F0060
7F81F0
3FFFF8
1FFFF8
0FFFF0
07FFE0
00FF00
ENDCHAR
STARTCHAR 01BA
ENCODING 442
SWIDTH 440 0
DWIDTH 22 0
BBX 20 35 1 -9
BITMAP
FFFFE0
FFFFE0
FFFFE0
FFFFE0
FFFFC0
001F80
003F00
007E00
00FC00
01F800
03F800
07FF00
07FFC0
07FFE0
001FE0
0007E0
0003F0
0003F0
0007F0
0007F0
000FE0
00FFE0
0FFFC0
3FFF80
7FFF00
7FF800
FF0000
FC0000
FC0000
FC0000
FFF000
7FF800
7FF800
3FF800
07F000
ENDCHAR
STARTCHAR 01BB
ENCODING 443
SWIDTH 580 0
DWIDTH 29 0
BBX 26 36 2 0
BITMAP
007F0000
03FFE000
0FFFF000
1FFFF800
3FFFFC00
3FC1FE00
7F00FE00
7E007F00
FE007F00
FC007F00
08007F00
00007F00
00007E00
00007E00
0000FE00
0001FC00
FFFFFFC0
FFFFFFC0
FFFFFFC0
FFFFFFC0
FFFFFFC0
003F8000
007F0000
00FE0000
01FC0000
03F80000
07F80000
0FF00000
1FE00000
3FC00000
7FFFFF00
FFFFFF00
FFFFFF00
FFFFFF00
FFFFFF00
FFFFFF00
ENDCHAR
STARTCHAR 01BC
ENCODING 444
SWIDTH 580 0
DWIDTH 29 0
BBX 26 36 1 0
BITMAP
7FFFFF80
7FFFFF80
7FFFFF80
7FFFFF80
1FFFFF00
03F00000
03F00000
03F00000
07E00000
07E00000
07E00000
0FC00000
0FFFC000
0FFFF000
1FFFFC00
1FFFFE00
1FFFFF00
0700FF80
00003F80
00003FC0
00001FC0
00001FC0
00000FC0
00000FC0
00000FC0
00001FC0
00001FC0
10001FC0
3C003F80
7E007F80
FF81FF00
7FFFFE00
3FFFFC00
1FFFF800
07FFE000
00FF8000
ENDCHAR
STARTCHAR 01BD
ENCODING 445
SWIDTH 460 0
DWIDTH 23 0
BBX 20 26 1 0
BITMAP
7FFFE0
7FFFE0
7FFFE0
7FFFE0
3FFFC0
07C000
0F8000
0F8000
0F8000
1FFC00
1FFF80
3FFFC0
3FFFE0
3FFFE0
040FF0
0003F0
0003F0
0003F0
0003F0
3803F0
FE0FE0
7FFFE0
7FFFC0
1FFF80
0FFF00
03F800
ENDCHAR
STARTCHAR 01BE
ENCODING 446
SWIDTH 440 0
DWIDTH 22 0
BBX 20 34 1 0
BITMAP
01F000
01F000
01F000
03F000
03F000
03F000
03F000
03F000
1FFFC0
3FFFC0
3FFFC0
3FFFC0
3FFFC0
07F000
07F000
07F000
03F800
03FC00
01FF00
00FF80
003FC0
001FE0
0007F0
0007F0
0003F0
0003F0
0003F0
7007F0
7C0FE0
FFFFE0
FFFFC0
3FFF80
1FFF00
03F800
ENDCHAR
STARTCHAR 01BF
ENCODING 447
SWIDTH 560 0
DWIDTH 28 0
BBX 24 34 3 -8
BITMAP
F81FC0
F8FFF0
FDFFF8
FFFFFC
FFFFFE
FFC1FE
FF00FE
FE007F
FC007F
FC007F
FC007F
FC007E
FC007E
FC007E
FC00FE
FC00FC
FC01FC
FC03F8
FC07F0
FC0FE0
FC3FC0
FCFF80
FFFF00
FFFC00
FFF800
FFE000
FF0000
FC0000
FC0000
FC0000
FC0000
FC0000
FC0000
FC0000
ENDCHAR
STARTCHAR 01C0
ENCODING 448
SWIDTH 220 0
DWIDTH 11 0
BBX 5 47 3 -8
BITMAP
F8
F8
F8
F8
F8
F8
F8
F8
F8
F8
F8
F8
F8
F8
F8
F8
F8
F8
F8
F8
F8
F8
F8
F8
F8
F8
F8
F8
F8
F8
F8
F8
F8
F8
F8
F8
F8
F8
F8
F8
F8
F8
F8
F8
F8
F8
F8
ENDCHAR
STARTCHAR 01C1
ENCODING 449
SWIDTH 520 0
DWIDTH 26 0
BBX 20 47 3 -8
BITMAP
F801F0
F801F0
F801F0
F801F0
F801F0
F801F0
F801F0
F801F0
F801F0
F801F0
F801F0
F801F0
F801F0
F801F0
F801F0
F801F0
F801F0
F801F0
F801F0
F801F0
F801F0
F801F0
F801F0
F801F0
F801F0
F801F0
F801F0
F801F0
F801F0
F801F0
F801F0
F801F0
F801F0
F801F0
F801F0
F801F0
F801F0
F801F0
F801F0
F801F0
F801F0
F801F0
F801F0
F801F0
F801F0
F801F0
F801F0
ENDCHAR
STARTCHAR 01C2
ENCODING 450
SWIDTH 540 0
DWIDTH 27 0
BBX 23 47 2 -10
BITMAP
00FE00
00FE00
00FE00
00FE00
00FE00
00FE00
00FE00
00FE00
00FE00
00FE00
00FE00
00FE00
00FE00
00FE00
00FE00
00FE00
FFFFFE
FFFFFE
FFFFFE
FFFFFE
FFFFFE
00FE00
00FE00
00FE00
00FE00
00FE00
FFFFFE
FFFFFE
FFFFFE
FFFFFE
FFFFFE
00FE00
00FE00
00FE00
00FE00
00FE00
00FE00
00FE00
00FE00
00FE00
00FE00
00FE00
00FE00
00FE00
00FE00
00FE00
00FE00
ENDCHAR
STARTCHAR 01C3
ENCODING 451
SWIDTH 220 0
DWIDTH 11 0
BBX 7 36 2 0
BITMAP
7C
7C
7C
7C
7C
7C
7C
7C
7C
7C
7C
7C
7C
7C
7C
7C
7C
7C
7C
7C
7C
7C
7C
00
00
00
00
00
38
FC
FE
FE
FE
FE
FC
38
ENDCHAR
STARTCHAR 01C4
ENCODING 452
SWIDTH 1380 0
DWIDTH 69 0
BBX 63 46 4 0
BITMAP
00000000007E07E0
00000000003F0FC0
00000000001F9F80
00000000000FBF00
000000000007FE00
000000000003FC00
000000000001F800
0000000000000000
0000000000000000
0000000000000000
FFFFC0000FFFFFFE
FFFFFC000FFFFFFE
FFFFFF000FFFFFFE
FFFFFF800FFFFFFE
FFFFFFC00FFFFFFC
FE007FE0000003FC
FE000FF0000007F8
FE0007F800000FF0
FE0003FC00000FF0
FE0001FC00001FE0
FE0000FE00003FC0
FE0000FE00003F80
FE0000FE00007F80
FE00007F0000FF00
FE00007F0000FE00
FE00007F0001FE00
FE00007F0003FC00
FE00007F0007F800
FE00007F0007F800
FE00007F000FF000
FE00007F001FE000
FE00007F001FC000
FE00007F003FC000
FE0000FE007F8000
FE0000FE007F0000
FE0000FE00FF0000
FE0001FC01FE0000
FE0003FC03FC0000
FE0007F803F80000
FE000FF007F80000
FE007FF00FF00000
FFFFFFE00FFFFFFE
FFFFFF801FFFFFFE
FFFFFF001FFFFFFE
FFFFFC001FFFFFFE
FFFFE0001FFFFFFE
ENDCHAR
STARTCHAR 01C5
ENCODING 453
SWIDTH 1220 0
DWIDTH 61 0
BBX 55 36 4 0
BITMAP
FFFFC00007E07E
FFFFFC0001F0F8
FFFFFF0001F9F8
FFFFFF8000FFF0
FFFFFFC0007FE0
FE007FE0003FC0
FE000FF0001F80
FE0007F8000000
FE0003FC000000
FE0001FC000000
FE0000FE0FFFFE
FE0000FE0FFFFE
FE0000FE0FFFFE
FE00007F0FFFFE
FE00007F0FFFFE
FE00007F0000FC
FE00007F0001F8
FE00007F0003F8
FE00007F0003F0
FE00007F0007E0
FE00007F000FC0
FE00007F001FC0
FE00007F001F80
FE0000FE003F00
FE0000FE007E00
FE0000FE00FE00
FE0001FC00FC00
FE0003FC01F800
FE0007F803F000
FE000FF007F000
FE007FF007E000
FFFFFFE00FFFFE
FFFFFF801FFFFE
FFFFFF001FFFFE
FFFFFC001FFFFE
FFFFE0001FFFFE
ENDCHAR
STARTCHAR 01C6
ENCODING 454
SWIDTH 1040 0
DWIDTH 52 0
BBX 48 37 2 0
BITMAP
00007E000000
00007E03F03F
00007E00F87C
00007E00FCFC
00007E007FF8
00007E003FF0
00007E001FE0
00007E000FC0
00007E000000
00007E000000
00007E000000
01FC7E07FFFF
07FF7E07FFFF
0FFFFE07FFFF
1FFFFE07FFFF
3FFFFE07FFFF
3FC1FE00007E
7F00FE0000FC
7E007E0001FC
FE007E0001F8
FE007E0003F0
FC007E0007E0
FC007E000FE0
FC007E000FC0
FC007E001F80
FC007E003F00
FC007E007F00
FC007E007E00
FE007E00FC00
FE007E01F800
7F00FE03F800
7F83FE03F000
3FFFFE07FFFF
3FFFBE0FFFFF
1FFF3E0FFFFF
0FFE3E0FFFFF
03F83E0FFFFF
ENDCHAR
STARTCHAR 01C7
ENCODING 455
SWIDTH 960 0
DWIDTH 48 0
BBX 41 36 4 0
BITMAP
FE0000003F80
FE0000003F80
FE0000003F80
FE0000003F80
FE0000003F80
FE0000003F80
FE0000003F80
FE0000003F80
FE0000003F80
FE0000003F80
FE0000003F80
FE0000003F80
FE0000003F80
FE0000003F80
FE0000003F80
FE0000003F80
FE0000003F80
FE0000003F80
FE0000003F80
FE0000003F80
FE0000003F80
FE0000003F80
FE0000003F80
FE0000003F80
FE0000003F80
FE0000003F80
FE0000003F80
FE0000003F00
FE0000007F00
FE000000FF00
FE000001FE00
FFFFF8FFFE00
FFFFF8FFFC00
FFFFF8FFF800
FFFFF8FFE000
FFFFF8FF8000
ENDCHAR
STARTCHAR 01C8
ENCODING 456
SWIDTH 780 0
DWIDTH 39 0
BBX 33 46 4 -9
BITMAP
0000001E00
FE00003F00
FE00003F80
FE00007F80
FE00007F80
FE00003F80
FE00003F00
FE00001E00
FE00000000
FE00000000
FE00000000
FE00003F00
FE00003F00
FE00003F00
FE00003F00
FE00003F00
FE00003F00
FE00003F00
FE00003F00
FE00003F00
FE00003F00
FE00003F00
FE00003F00
FE00003F00
FE00003F00
FE00003F00
FE00003F00
FE00003F00
FE00003F00
FE00003F00
FE00003F00
FE00003F00
FFFFF83F00
FFFFF83F00
FFFFF83F00
FFFFF83F00
FFFFF83F00
0000003F00
0000003F00
0000003F00
0000007F00
000007FF00
000007FE00
000007FE00
000007FC00
000007F000
ENDCHAR
STARTCHAR 01C9
ENCODING 457
SWIDTH 520 0
DWIDTH 26 0
BBX 20 46 3 -9
BITMAP
FC03C0
FC07E0
FC07F0
FC0FF0
FC0FF0
FC07F0
FC07E0
FC03C0
FC0000
FC0000
FC0000
FC07E0
FC07E0
FC07E0
FC07E0
FC07E0
FC07E0
FC07E0
FC07E0
FC07E0
FC07E0
FC07E0
FC07E0
FC07E0
FC07E0
FC07E0
FC07E0
FC07E0
FC07E0
FC07E0
FC07E0
FC07E0
FC07E0
FC07E0
FC07E0
FC07E0
FC07E0
0007E0
0007E0
0007E0
000FE0
00FFE0
00FFC0
00FFC0
00FF80
00FE00
ENDCHAR
STARTCHAR 01CA
ENCODING 458
SWIDTH 1200 0
DWIDTH 60 0
BBX 53 36 4 0
BITMAP
F800007E0003F8
FC00007E0003F8
FE00007E0003F8
FF00007E0003F8
FF00007E0003F8
FF80007E0003F8
FFC0007E0003F8
FFE0007E0003F8
FFF0007E0003F8
FFF0007E0003F8
FFF8007E0003F8
FFFC007E0003F8
FDFE007E0003F8
FCFF007E0003F8
FCFF007E0003F8
FC7F807E0003F8
FC3FC07E0003F8
FC1FE07E0003F8
FC0FE07E0003F8
FC0FF07E0003F8
FC07F87E0003F8
FC03FC7E0003F8
FC01FE7E0003F8
FC00FE7E0003F8
FC00FF7E0003F8
FC007FFE0003F8
FC003FFE0003F8
FC001FFE0003F0
FC000FFE0007F0
FC000FFE000FF0
FC0007FE001FE0
FC0003FE0FFFE0
FC0001FE0FFFC0
FC0000FE0FFF80
FC0000FE0FFE00
FC00007E0FF800
ENDCHAR
STARTCHAR 01CB
ENCODING 459
SWIDTH 1020 0
DWIDTH 51 0
BBX 44 46 4 -9
BITMAP
0000000003C0
F800007E07E0
FC00007E07F0
FE00007E0FF0
FF00007E0FF0
FF00007E07F0
FF80007E07E0
FFC0007E03C0
FFE0007E0000
FFF0007E0000
FFF0007E0000
FFF8007E07E0
FFFC007E07E0
FDFE007E07E0
FCFF007E07E0
FCFF007E07E0
FC7F807E07E0
FC3FC07E07E0
FC1FE07E07E0
FC0FE07E07E0
FC0FF07E07E0
FC07F87E07E0
FC03FC7E07E0
FC01FE7E07E0
FC00FE7E07E0
FC00FF7E07E0
FC007FFE07E0
FC003FFE07E0
FC001FFE07E0
FC000FFE07E0
FC000FFE07E0
FC0007FE07E0
FC0003FE07E0
FC0001FE07E0
FC0000FE07E0
FC0000FE07E0
FC00007E07E0
0000000007E0
0000000007E0
0000000007E0
000000000FE0
00000000FFE0
00000000FFC0
00000000FFC0
00000000FF80
00000000FE00
ENDCHAR
STARTCHAR 01CC
ENCODING 460
SWIDTH 820 0
DWIDTH 41 0
BBX 36 46 3 -9
BITMAP
00000003C0
00000007E0
00000007F0
0000000FF0
0000000FF0
00000007F0
00000007E0
00000003C0
0000000000
0000000000
0000000000
F83F8007E0
F8FFE007E0
FFFFF007E0
FFFFF807E0
FFFFF807E0
FF83FC07E0
FF01FC07E0
FE00FC07E0
FC00FC07E0
FC00FC07E0
FC00FC07E0
FC00FC07E0
FC00FC07E0
FC00FC07E0
FC00FC07E0
FC00FC07E0
FC00FC07E0
FC00FC07E0
FC00FC07E0
FC00FC07E0
FC00FC07E0
FC00FC07E0
FC00FC07E0
FC00FC07E0
FC00FC07E0
FC00FC07E0
00000007E0
00000007E0
00000007E0
0000000FE0
000000FFE0
000000FFC0
000000FFC0
000000FF80
000000FE00
ENDCHAR
STARTCHAR 01CD
ENCODING 461
SWIDTH 700 0
DWIDTH 35 0
BBX 35 46 0 0
BITMAP
00FC0FC000
007E1F8000
003F3F0000
001F7E0000
000FFC0000
0007F80000
0003F00000
0000000000
0000000000
0000000000
0003F80000
0007F80000
0007FC0000
0007FC0000
000FFE0000
000FFE0000
001FFE0000
001FBF0000
001FBF0000
003F3F8000
003F1F8000
007F1F8000
007E0FC000
007E0FC000
00FC0FE000
00FC07E000
01FC07E000
01F807F000
01F803F000
03F803F000
03F001F800
07F001F800
07FFFFFC00
07FFFFFC00
0FFFFFFC00
0FFFFFFE00
1FFFFFFE00
1FC0007F00
1F80007F00
3F80003F00
3F80003F80
7F00003F80
7F00001FC0
7F00001FC0
FE00000FC0
FC00000FE0
ENDCHAR
STARTCHAR 01CE
ENCODING 462
SWIDTH 500 0
DWIDTH 25 0
BBX 22 36 1 0
BITMAP
1F81F8
07C3E0
07E7E0
03FFC0
01FF80
00FF00
007E00
000000
000000
000000
00FE00
07FFC0
1FFFE0
3FFFF0
7FFFF0
3F03F8
1C01F8
0001F8
0000FC
0000FC
0000FC
003FFC
03FFFC
0FFFFC
3FFFFC
7FC0FC
7F00FC
FE00FC
FC00FC
FC01FC
FC03FC
7E0FFC
7FFFFC
3FFEFC
1FFC7C
07E07C
ENDCHAR
STARTCHAR 01CF
ENCODING 463
SWIDTH 300 0
DWIDTH 15 0
BBX 18 46 -1 0
BITMAP
FC0FC0
7E1F80
3F3F00
1F7E00
0FFC00
07F800
03F000
000000
000000
000000
07F000
07F000
07F000
07F000
07F000
07F000
07F000
07F000
07F000
07F000
07F000
07F000
07F000
07F000
07F000
07F000
07F000
07F000
07F000
07F000
07F000
07F000
07F000
07F000
07F000
07F000
07F000
07F000
07F000
07F000
07F000
07F000
07F000
07F000
07F000
07F000
ENDCHAR
STARTCHAR 01D0
ENCODING 464
SWIDTH 260 0
DWIDTH 13 0
BBX 18 36 -2 0
BITMAP
FC0FC0
3E1F00
3F3F00
1FFE00
0FFC00
07F800
03F000
000000
000000
000000
07E000
07E000
07E000
07E000
07E000
07E000
07E000
07E000
07E000
07E000
07E000
07E000
07E000
07E000
07E000
07E000
07E000
07E000
07E000
07E000
07E000
07E000
07E000
07E000
07E000
07E000
ENDCHAR
STARTCHAR 01D1
ENCODING 465
SWIDTH 800 0
DWIDTH 40 0
BBX 37 46 2 0
BITMAP
007E07E000
003F0FC000
001F9F8000
000FBF0000
0007FE0000
0003FC0000
0001F80000
0000000000
0000000000
0000000000
0003FE0000
003FFFC000
00FFFFF000
01FFFFFC00
03FFFFFE00
07FE03FF00
0FF000FF80
1FE0003F80
3FC0001FC0
3F80001FE0
7F00000FE0
7F00000FE0
7F000007F0
FE000007F0
FE000007F0
FE000007F0
FE000003F0
FE000003F0
FE000003F8
FE000003F0
FE000007F0
FE000007F0
FE000007F0
7F000007F0
7F00000FE0
7F00000FE0
3F80001FE0
3FC0001FC0
1FE0003F80
0FF000FF80
07FC03FF00
03FFFFFE00
01FFFFFC00
00FFFFF000
003FFFC000
0003FE0000
ENDCHAR
STARTCHAR 01D2
ENCODING 466
SWIDTH 580 0
DWIDTH 29 0
BBX 25 36 2 0
BITMAP
1F81F800
07C3E000
07E7E000
03FFC000
01FF8000
00FF0000
007E0000
00000000
00000000
00000000
00FF0000
03FFE000
0FFFF000
1FFFFC00
3FFFFC00
3FC1FE00
7F007F00
7E007F00
FE003F00
FC003F80
FC003F80
FC001F80
FC001F80
FC001F80
FC001F80
FC003F80
FC003F80
FE003F00
7E007F00
7F007F00
3FC1FE00
3FFFFC00
1FFFFC00
0FFFF000
03FFE000
00FF0000
ENDCHAR
STARTCHAR 01D3
ENCODING 467
SWIDTH 740 0
DWIDTH 37 0
BBX 30 46 4 0
BITMAP
03F03F00
01F87E00
00FCFC00
007DF800
003FF000
001FE000
000FC000
00000000
00000000
00000000
FC0001FC
FC0001FC
FC0001FC
FC0001FC
FC0001FC
FC0001FC
FC0001FC
FC0001FC
FC0001FC
FC0001FC
FC0001FC
FC0001FC
FC0001FC
FC0001FC
FC0001FC
FC0001FC
FC0001FC
FC0001FC
FC0001FC
FC0001FC
FC0001FC
FC0001FC
FC0001FC
FC0001F8
FE0003F8
FE0003F8
FF0007F8
7F0007F0
7FC00FF0
3FF03FE0
3FFFFFE0
1FFFFFC0
0FFFFF80
03FFFF00
01FFFC00
003FE000
ENDCHAR
STARTCHAR 01D4
ENCODING 468
SWIDTH 560 0
DWIDTH 28 0
BBX 22 36 3 0
BITMAP
3F03F0
0F87C0
0FCFC0
07FF80
03FF00
01FE00
00FC00
000000
000000
000000
FC00FC
FC00FC
FC00FC
FC00FC
FC00FC
FC00FC
FC00FC
FC00FC
FC00FC
FC00FC
FC00FC
FC00FC
FC00FC
FC00FC
FC00FC
FC00FC
FC00FC
FC00FC
FC00FC
FE01FC
FF07FC
7FFFFC
7FFFFC
3FFE7C
1FFC7C
07F07C
ENDCHAR
STARTCHAR 01D5
ENCODING 469
SWIDTH 740 0
DWIDTH 37 0
BBX 30 50 4 0
BITMAP
01FFFE00
01FFFE00
01FFFE00
01FFFE00
00000000
00E01C00
01F03E00
03F87F00
03F87F00
03F87F00
01F03E00
00E01C00
00000000
00000000
FC0001FC
FC0001FC
FC0001FC
FC0001FC
FC0001FC
FC0001FC
FC0001FC
FC0001FC
FC0001FC
FC0001FC
FC0001FC
FC0001FC
FC0001FC
FC0001FC
FC0001FC
FC0001FC
FC0001FC
FC0001FC
FC0001FC
FC0001FC
FC0001FC
FC0001FC
FC0001FC
FC0001F8
FE0003F8
FE0003F8
FF0007F8
7F0007F0
7FC00FF0
3FF03FE0
3FFFFFE0
1FFFFFC0
0FFFFF80
03FFFF00
01FFFC00
003FE000
ENDCHAR
STARTCHAR 01D6
ENCODING 470
SWIDTH 560 0
DWIDTH 28 0
BBX 22 43 3 0
BITMAP
0FFFC0
0FFFC0
0FFFC0
0FFFC0
000000
000000
000000
0F03C0
1F87E0
1F87E0
3F87F0
1F87E0
1F87E0
0F03C0
000000
000000
000000
FC00FC
FC00FC
FC00FC
FC00FC
FC00FC
FC00FC
FC00FC
FC00FC
FC00FC
FC00FC
FC00FC
FC00FC
FC00FC
FC00FC
FC00FC
FC00FC
FC00FC
FC00FC
FC00FC
FE01FC
FF07FC
7FFFFC
7FFFFC
3FFE7C
1FFC7C
07F07C
ENDCHAR
STARTCHAR 01D7
ENCODING 471
SWIDTH 740 0
DWIDTH 37 0
BBX 30 54 4 0
BITMAP
00003FE0
00007F80
0000FF00
0000FE00
0001FC00
0003F800
0007F000
000FE000
00000000
00E01C00
01F03E00
03F87F00
03F87F00
03F87F00
01F03E00
00E01C00
00000000
00000000
FC0001FC
FC0001FC
FC0001FC
FC0001FC
FC0001FC
FC0001FC
FC0001FC
FC0001FC
FC0001FC
FC0001FC
FC0001FC
FC0001FC
FC0001FC
FC0001FC
FC0001FC
FC0001FC
FC0001FC
FC0001FC
FC0001FC
FC0001FC
FC0001FC
FC0001FC
FC0001FC
FC0001F8
FE0003F8
FE0003F8
FF0007F8
7F0007F0
7FC00FF0
3FF03FE0
3FFFFFE0
1FFFFFC0
0FFFFF80
03FFFF00
01FFFC00
003FE000
ENDCHAR
STARTCHAR 01D8
ENCODING 472
SWIDTH 560 0
DWIDTH 28 0
BBX 22 44 3 0
BITMAP
0007F8
000FE0
000FC0
001F80
003F00
003F00
007E00
000000
0F03C0
1F87E0
1F87E0
3F87F0
1F87E0
1F87E0
0F03C0
000000
000000
000000
FC00FC
FC00FC
FC00FC
FC00FC
FC00FC
FC00FC
FC00FC
FC00FC
FC00FC
FC00FC
FC00FC
FC00FC
FC00FC
FC00FC
FC00FC
FC00FC
FC00FC
FC00FC
FC00FC
FE01FC
FF07FC
7FFFFC
7FFFFC
3FFE7C
1FFC7C
07F07C
ENDCHAR
STARTCHAR 01D9
ENCODING 473
SWIDTH 740 0
DWIDTH 37 0
BBX 30 53 4 0
BITMAP
03F03F00
01F87E00
00FCFC00
007DF800
003FF000
001FE000
000FC000
00000000
00E01C00
01F03E00
03F87F00
03F87F00
03F87F00
01F03E00
00E01C00
00000000
00000000
FC0001FC
FC0001FC
FC0001FC
FC0001FC
FC0001FC
FC0001FC
FC0001FC
FC0001FC
FC0001FC
FC0001FC
FC0001FC
FC0001FC
FC0001FC
FC0001FC
FC0001FC
FC0001FC
FC0001FC
FC0001FC
FC0001FC
FC0001FC
FC0001FC
FC0001FC
FC0001FC
FC0001F8
FE0003F8
FE0003F8
FF0007F8
7F0007F0
7FC00FF0
3FF03FE0
3FFFFFE0
1FFFFFC0
0FFFFF80
03FFFF00
01FFFC00
003FE000
ENDCHAR
STARTCHAR 01DA
ENCODING 474
SWIDTH 560 0
DWIDTH 28 0
BBX 22 45 3 0
BITMAP
3E01F0
1F03E0
0F87C0
07CF80
03FF00
03FF00
01FE00
00FC00
000000
0F03C0
1F87E0
1F87E0
3F87F0
1F87E0
1F87E0
0F03C0
000000
000000
000000
FC00FC
FC00FC
FC00FC
FC00FC
FC00FC
FC00FC
FC00FC
FC00FC
FC00FC
FC00FC
FC00FC
FC00FC
FC00FC
FC00FC
FC00FC
FC00FC
FC00FC
FC00FC
FC00FC
FE01FC
FF07FC
7FFFFC
7FFFFC
3FFE7C
1FFC7C
07F07C
ENDCHAR
STARTCHAR 01DB
ENCODING 475
SWIDTH 740 0
DWIDTH 37 0
BBX 30 54 4 0
BITMAP
1FE00000
0FF00000
03F80000
01FC0000
00FE0000
007E0000
003F0000
001F8000
00000000
00E01C00
01F03E00
03F87F00
03F87F00
03F87F00
01F03E00
00E01C00
00000000
00000000
FC0001FC
FC0001FC
FC0001FC
FC0001FC
FC0001FC
FC0001FC
FC0001FC
FC0001FC
FC0001FC
FC0001FC
FC0001FC
FC0001FC
FC0001FC
FC0001FC
FC0001FC
FC0001FC
FC0001FC
FC0001FC
FC0001FC
FC0001FC
FC0001FC
FC0001FC
FC0001FC
FC0001F8
FE0003F8
FE0003F8
FF0007F8
7F0007F0
7FC00FF0
3FF03FE0
3FFFFFE0
1FFFFFC0
0FFFFF80
03FFFF00
01FFFC00
003FE000
ENDCHAR
STARTCHAR 01DC
ENCODING 476
SWIDTH 560 0
DWIDTH 28 0
BBX 22 45 3 0
BITMAP
3F0000
1FC000
0FE000
07E000
03F000
01F800
00F800
003C00
000000
0F03C0
1F87E0
1F87E0
3F87F0
1F87E0
1F87E0
0F03C0
000000
000000
000000
FC00FC
FC00FC
FC00FC
FC00FC
FC00FC
FC00FC
FC00FC
FC00FC
FC00FC
FC00FC
FC00FC
FC00FC
FC00FC
FC00FC
FC00FC
FC00FC
FC00FC
FC00FC
FC00FC
FE01FC
FF07FC
7FFFFC
7FFFFC
3FFE7C
1FFC7C
07F07C
ENDCHAR
STARTCHAR 01DD
ENCODING 477
SWIDTH 540 0
DWIDTH 27 0
BBX 23 26 2 0
BITMAP
03FC00
1FFF80
3FFFC0
7FFFE0
FFFFF0
7E07F8
3001FC
0001FC
0000FC
0000FE
00007E
00007E
FFFFFE
FFFFFE
FFFFFE
FFFFFE
F8007E
F800FC
FC00FC
FC01FC
7F07F8
7FFFF0
3FFFF0
1FFFC0
07FF80
01FC00
ENDCHAR
STARTCHAR 01DE
ENCODING 478
SWIDTH 700 0
DWIDTH 35 0
BBX 35 50 0 0
BITMAP
007FFF8000
007FFF8000
007FFF8000
007FFF8000
0000000000
0038070000
007C0F8000
00FE1FC000
00FE1FC000
00FE1FC000
007C0F8000
0038070000
0000000000
0000000000
0003F80000
0007F80000
0007FC0000
0007FC0000
000FFE0000
000FFE0000
001FFE0000
001FBF0000
001FBF0000
003F3F8000
003F1F8000
007F1F8000
007E0FC000
007E0FC000
00FC0FE000
00FC07E000
01FC07E000
01F807F000
01F803F000
03F803F000
03F001F800
07F001F800
07FFFFFC00
07FFFFFC00
0FFFFFFC00
0FFFFFFE00
1FFFFFFE00
1FC0007F00
1F80007F00
3F80003F00
3F80003F80
7F00003F80
7F00001FC0
7F00001FC0
FE00000FC0
FC00000FE0
ENDCHAR
STARTCHAR 01DF
ENCODING 479
SWIDTH 500 0
DWIDTH 25 0
BBX 22 43 1 0
BITMAP
07FFE0
07FFE0
07FFE0
07FFE0
000000
000000
000000
0781E0
0FC3F0
0FC3F0
1FC3F8
0FC3F0
0FC3F0
0781E0
000000
000000
000000
00FE00
07FFC0
1FFFE0
3FFFF0
7FFFF0
3F03F8
1C01F8
0001F8
0000FC
0000FC
0000FC
003FFC
03FFFC
0FFFFC
3FFFFC
7FC0FC
7F00FC
FE00FC
FC00FC
FC01FC
FC03FC
7E0FFC
7FFFFC
3FFEFC
1FFC7C
07E07C
ENDCHAR
STARTCHAR 01E0
ENCODING 480
SWIDTH 700 0
DWIDTH 35 0
BBX 35 52 0 0
BITMAP
007FFF8000
007FFF8000
007FFF8000
007FFF8000
0000000000
0000000000
0001E00000
0003F00000
0007F80000
0007F80000
0007F80000
0003F00000
0001E00000
0000000000
0000000000
0000000000
0003F80000
0007F80000
0007FC0000
0007FC0000
000FFE0000
000FFE0000
001FFE0000
001FBF0000
001FBF0000
003F3F8000
003F1F8000
007F1F8000
007E0FC000
007E0FC000
00FC0FE000
00FC07E000
01FC07E000
01F807F000
01F803F000
03F803F000
03F001F800
07F001F800
07FFFFFC00
07FFFFFC00
0FFFFFFC00
0FFFFFFE00
1FFFFFFE00
1FC0007F00
1F80007F00
3F80003F00
3F80003F80
7F00003F80
7F00001FC0
7F00001FC0
FE00000FC0
FC00000FE0
ENDCHAR
STARTCHAR 01E1
ENCODING 481
SWIDTH 500 0
DWIDTH 25 0
BBX 22 42 1 0
BITMAP
07FFE0
07FFE0
07FFE0
07FFE0
000000
003C00
007E00
00FF00
00FF00
00FF00
00FF00
007E00
003C00
000000
000000
000000
00FE00
07FFC0
1FFFE0
3FFFF0
7FFFF0
3F03F8
1C01F8
0001F8
0000FC
0000FC
0000FC
003FFC
03FFFC
0FFFFC
3FFFFC
7FC0FC
7F00FC
FE00FC
FC00FC
FC01FC
FC03FC
7E0FFC
7FFFFC
3FFEFC
1FFC7C
07E07C
ENDCHAR
STARTCHAR 01E2
ENCODING 482
SWIDTH 940 0
DWIDTH 47 0
BBX 45 43 0 0
BITMAP
000001FFFE00
000001FFFE00
000001FFFE00
000001FFFE00
000000000000
000000000000
000000000000
00003FFFFFF8
00007FFFFFF8
00007FFFFFF8
0000FFFFFFF8
0000FFFFFFF8
0001FFE00000
0001F7F00000
0003F7F00000
0003F7F00000
0007E3F00000
000FE3F00000
000FC3F00000
001FC3F00000
001F83F00000
003F83F80000
003F03FFFF80
007F03FFFF80
007E01FFFF80
00FE01FFFF80
00FC01FFFF80
01FC01F80000
01F801F80000
03FFFFFC0000
03FFFFFC0000
07FFFFFC0000
07FFFFFC0000
0FFFFFFC0000
0FC000FC0000
1FC000FC0000
1FC000FC0000
3F8000FC0000
3F8000FFFFF8
7F0000FFFFF8
7F0000FFFFF8
FE00007FFFF8
FC00007FFFF8
ENDCHAR
STARTCHAR 01E3
ENCODING 483
SWIDTH 800 0
DWIDTH 40 0
BBX 38 34 1 0
BITMAP
000FFFC000
000FFFC000
000FFFC000
000FFFC000
0000000000
0000000000
0000000000
0000000000
00FE00FE00
07FF83FF80
0FFFC7FFC0
1FFFCFFFE0
7FFFFFFFF0
3F03FF83F0
1C01FE01F8
0001FC00F8
0000FC00FC
0000FC00FC
003FFFFFFC
03FFFFFFFC
0FFFFFFFFC
1FFFFFFFFC
3FE0FC0000
7F00FC0000
7E00FC0000
FC01FC0000
FC01FE0000
FC01FF0070
FE03FF81F8
7F0FDFFFF8
7FFF8FFFFC
3FFF07FFF0
1FFE03FFC0
07F000FF00
ENDCHAR
STARTCHAR 01E4
ENCODING 484
SWIDTH 740 0
DWIDTH 37 0
BBX 35 36 2 0
BITMAP
0003FF0000
003FFFE000
00FFFFF800
01FFFFFE00
03FFFFFF00
0FFE01FE00
0FF0007C00
1FE0001C00
3FC0000000
3F80000000
7F80000000
7F00000000
7F00000000
FE00000000
FE00000000
FE00000000
FE000FFF00
FE000FFF00
FE000FFF00
FE000FFF00
FE000FFF00
FE00003F00
FE00003F00
7F000FFFE0
7F000FFFE0
7F800FFFE0
3F800FFFE0
3FC00FFFE0
1FE0003F00
0FF8003F00
07FE01FF00
03FFFFFF00
01FFFFFF00
00FFFFFC00
003FFFF000
0003FF0000
ENDCHAR
STARTCHAR 01E5
ENCODING 485
SWIDTH 560 0
DWIDTH 28 0
BBX 28 35 0 -9
BITMAP
003F8000
01FFE000
03FFFFC0
07FFFFC0
0FFFFFC0
0FE0FF80
1F807E00
1F803E00
1F803E00
1F803E00
1F803E00
0FC07E00
0FE0FC00
07FFFC00
03FFF800
01FFE000
03FF8000
07800000
0FC00000
0FFFE000
0FFFFE00
07FFFF00
03FFFF80
07FFFFC0
1F803FC0
FF000FF0
FFFFFFF0
FFFFFFF0
FFFFFFF0
3F000F80
1FC03F00
1FFFFE00
0FFFFC00
03FFF000
007FC000
ENDCHAR
STARTCHAR 01E6
ENCODING 486
SWIDTH 720 0
DWIDTH 36 0
BBX 32 46 2 0
BITMAP
003F03F0
001F87E0
000FCFC0
0007DF80
0003FF00
0001FE00
0000FC00
00000000
00000000
00000000
0003FF00
003FFFE0
00FFFFF8
01FFFFFE
03FFFFFF
0FFE01FE
0FF0007C
1FE0001C
3FC00000
3F800000
7F000000
7F000000
7F000000
FE000000
FE000000
FE000000
FE000000
FE000000
FE000FFF
FE000FFF
FE000FFF
FE000FFF
FE000FFF
7F00003F
7F00003F
7F80003F
3F80003F
3FC0003F
1FE0003F
0FF8003F
07FE01FF
03FFFFFF
01FFFFFF
007FFFFC
001FFFF0
0003FF00
ENDCHAR
STARTCHAR 01E7
ENCODING 487
SWIDTH 520 0
DWIDTH 26 0
BBX 25 45 1 -9
BITMAP
1F81F800
07C3E000
07E7E000
03FFC000
01FF8000
00FF0000
007E0000
00000000
00000000
00000000
00FE0000
07FF8000
0FFFFF80
1FFFFF80
3FFFFF80
3F83FF00
7F01F800
7E00F800
7E00F800
7E00F800
7E00F800
3F01F800
3F83F800
1FFFF000
0FFFE000
07FFC000
0FFE0000
1F000000
3E000000
3F800000
3FFFC000
3FFFF800
1FFFFE00
0FFFFE00
1FFFFF00
7E007F00
7C003F00
FC003F00
FC003F00
FF00FE00
7FFFFE00
7FFFFC00
3FFFF800
0FFFE000
01FF0000
ENDCHAR
STARTCHAR 01E8
ENCODING 488
SWIDTH 680 0
DWIDTH 34 0
BBX 31 46 4 0
BITMAP
07E07E00
03F0FC00
01F9F800
00FBF000
007FE000
003FC000
001F8000
00000000
00000000
00000000
FE0003FC
FE0007F8
FE000FF0
FE001FE0
FE003FC0
FE003F80
FE007F00
FE00FF00
FE01FE00
FE03FC00
FE03F800
FE07F000
FE0FF000
FE1FE000
FE3FC000
FFFF8000
FFFF0000
FFFF8000
FFFFC000
FFFFC000
FE1FE000
FE0FF000
FE07F800
FE03F800
FE03FC00
FE01FE00
FE00FF00
FE007F00
FE007F80
FE003FC0
FE001FE0
FE000FE0
FE000FF0
FE0007F8
FE0003FC
FE0001FE
ENDCHAR
STARTCHAR 01E9
ENCODING 489
SWIDTH 540 0
DWIDTH 27 0
BBX 30 46 -3 0
BITMAP
FC0FC000
7E1F8000
3F3F0000
1F7E0000
0FFC0000
07F80000
03F00000
00000000
00000000
03F00000
03F00000
03F00000
03F00000
03F00000
03F00000
03F00000
03F00000
03F00000
03F00000
03F00000
03F003F8
03F007F0
03F00FE0
03F00FC0
03F01FC0
03F03F80
03F07F00
03F0FE00
03F0FC00
03F1F800
03FFF800
03FFF000
03FFF800
03FFF800
03F1FC00
03F0FE00
03F0FE00
03F07F00
03F03F80
03F03F80
03F01FC0
03F00FE0
03F00FE0
03F007F0
03F003F8
03F001FC
ENDCHAR
STARTCHAR 01EA
ENCODING 490
SWIDTH 800 0
DWIDTH 40 0
BBX 37 44 2 -8
BITMAP
0003FE0000
003FFFC000
00FFFFF000
01FFFFFC00
03FFFFFE00
07FE03FF00
0FF000FF80
1FE0003F80
3FC0001FC0
3F80001FE0
7F00000FE0
7F00000FE0
7F000007F0
FE000007F0
FE000007F0
FE000007F0
FE000003F0
FE000003F8
FE000003F0
FE000003F0
FE000007F0
FE000007F0
FE000007F0
7F000007F0
7F00000FE0
7F00000FE0
3F80001FC0
3FC0001FC0
1FE0003F80
0FF000FF00
0FFC03FE00
07FFFFFC00
01FFFFF800
00FFFFE000
003FFF8000
0007F80000
0000F00000
0001E00000
0001E00000
0003E00000
0003FE0000
0003FE0000
0001FF0000
0000FC0000
ENDCHAR
STARTCHAR 01EB
ENCODING 491
SWIDTH 580 0
DWIDTH 29 0
BBX 25 34 2 -8
BITMAP
00FF0000
03FFE000
0FFFF000
1FFFFC00
3FFFFC00
3FC1FE00
7F007F00
7E007F00
FE003F00
FC003F80
FC003F80
FC001F80
FC001F80
FC001F80
FC001F80
FC003F80
FC003F80
FE003F00
7E007F00
7F007E00
7FC1FE00
3FFFFC00
1FFFF800
0FFFF000
07FFC000
00FE0000
003C0000
00780000
00780000
00F80000
00FF8000
00FF8000
007FC000
003F0000
ENDCHAR
STARTCHAR 01EC
ENCODING 492
SWIDTH 800 0
DWIDTH 40 0
BBX 37 52 2 -8
BITMAP
001FFFC000
001FFFC000
001FFFC000
001FFFC000
0000000000
0000000000
0000000000
0000000000
0003FE0000
003FFFC000
00FFFFF000
01FFFFFC00
03FFFFFE00
0FFE03FF00
0FF000FF80
1FE0003F80
3FC0001FC0
3F80001FE0
7F00000FE0
7F000007E0
7E000007F0
FE000007F0
FE000007F0
FE000003F0
FE000003F0
FE000003F8
FE000003F0
FE000007F0
FE000007F0
FE000007F0
FE000007F0
7F00000FF0
7F00000FE0
7F80001FE0
3FC0001FC0
1FE0003FC0
1FF000FF80
0FFE07FF00
07FFFFFE00
03FFFFFC00
01FFFFF800
007FFFE000
000FFF8000
0000F00000
0001E00000
0003C00000
0003C00000
0003E00000
0003FE0000
0003FE0000
0003FE0000
0000F80000
ENDCHAR
STARTCHAR 01ED
ENCODING 493
SWIDTH 580 0
DWIDTH 29 0
BBX 25 43 2 -8
BITMAP
07FFF000
07FFF000
07FFF000
07FFF000
00000000
00000000
00000000
00000000
00000000
00FF0000
03FFE000
0FFFF000
1FFFFC00
3FFFFC00
3FC1FE00
7F007F00
7E007F00
FE003F00
FC003F80
FC003F80
FC001F80
FC001F80
FC001F80
FC001F80
FC003F80
FC003F80
FE003F00
7E007F00
7F007E00
3F81FE00
1FFFFC00
1FFFF800
07FFF000
01FFC000
003C0000
00380000
00700000
00F00000
00F80000
00FF8000
00FF8000
007F8000
003F0000
ENDCHAR
STARTCHAR 01EE
ENCODING 494
SWIDTH 600 0
DWIDTH 30 0
BBX 27 46 1 0
BITMAP
0FC0FC00
07E1F800
03F3F000
01F7E000
00FFC000
007F8000
003F0000
00000000
00000000
00000000
7FFFFFC0
7FFFFFC0
7FFFFFC0
7FFFFF80
7FFFFF80
0000FF00
0001FE00
0003FC00
0007F800
000FF000
001FE000
003FC000
007F8000
00FF0000
01FFF800
01FFFE00
01FFFF00
01FFFF80
0003FF80
00007FC0
00001FC0
00001FC0
00000FE0
00000FE0
00000FE0
00000FC0
00001FC0
10001FC0
3C003FC0
7E007F80
FF81FF00
FFFFFE00
3FFFFC00
1FFFF800
07FFE000
00FF0000
ENDCHAR
STARTCHAR 01EF
ENCODING 495
SWIDTH 440 0
DWIDTH 22 0
BBX 22 45 -1 -9
BITMAP
1F81F8
07C3E0
07E7E0
03FFC0
01FF80
00FF00
007E00
000000
000000
000000
3FFFF8
3FFFF8
3FFFF8
3FFFF0
3FFFF0
0007E0
000FC0
001FC0
003F80
007F00
007E00
00FC00
01F800
03F800
07FF00
07FFC0
07FFE0
07FFF0
0007F8
0001F8
0001F8
0000FC
0000FC
0000FC
0000FC
0000FC
0001FC
0001F8
3003F8
7C0FF0
7FFFF0
FFFFE0
7FFFC0
1FFF00
07F800
ENDCHAR
STARTCHAR 01F0
ENCODING 496
SWIDTH 260 0
DWIDTH 13 0
BBX 18 45 -3 -9
BITMAP
FC0FC0
3E1F00
3F3F00
1FFE00
0FFC00
07F800
03F000
000000
000000
000000
03F000
03F000
03F000
03F000
03F000
03F000
03F000
03F000
03F000
03F000
03F000
03F000
03F000
03F000
03F000
03F000
03F000
03F000
03F000
03F000
03F000
03F000
03F000
03F000
03F000
03F000
03F000
03F000
03F000
07F000
7FF000
7FE000
7FE000
7FC000
7F0000
ENDCHAR
STARTCHAR 01F1
ENCODING 497
SWIDTH 1380 0
DWIDTH 69 0
BBX 63 36 4 0
BITMAP
FFFFC0000FFFFFFE
FFFFFC000FFFFFFE
FFFFFF000FFFFFFE
FFFFFF800FFFFFFE
FFFFFFC00FFFFFFC
FE007FE0000003FC
FE000FF0000007F8
FE0007F800000FF0
FE0003FC00000FF0
FE0001FC00001FE0
FE0000FE00003FC0
FE0000FE00003F80
FE0000FE00007F80
FE00007F0000FF00
FE00007F0000FE00
FE00007F0001FE00
FE00007F0003FC00
FE00007F0007F800
FE00007F0007F800
FE00007F000FF000
FE00007F001FE000
FE00007F001FC000
FE00007F003FC000
FE0000FE007F8000
FE0000FE007F0000
FE0000FE00FF0000
FE0001FC01FE0000
FE0003FC03FC0000
FE0007F803F80000
FE000FF007F80000
FE007FF00FF00000
FFFFFFE00FFFFFFE
FFFFFF801FFFFFFE
FFFFFF001FFFFFFE
FFFFFC001FFFFFFE
FFFFE0001FFFFFFE
ENDCHAR
STARTCHAR 01F2
ENCODING 498
SWIDTH 1220 0
DWIDTH 61 0
BBX 55 36 4 0
BITMAP
FFFFC000000000
FFFFFC00000000
FFFFFF00000000
FFFFFF80000000
FFFFFFC0000000
FE007FE0000000
FE000FF0000000
FE0007F8000000
FE0003FC000000
FE0001FC000000
FE0000FE0FFFFE
FE0000FE0FFFFE
FE0000FE0FFFFE
FE00007F0FFFFE
FE00007F0FFFFE
FE00007F0000FC
FE00007F0001F8
FE00007F0003F8
FE00007F0003F0
FE00007F0007E0
FE00007F000FC0
FE00007F001FC0
FE00007F001F80
FE0000FE003F00
FE0000FE007E00
FE0000FE00FE00
FE0001FC00FC00
FE0003FC01F800
FE0007F803F000
FE000FF007F000
FE007FF007E000
FFFFFFE00FFFFE
FFFFFF801FFFFE
FFFFFF001FFFFE
FFFFFC001FFFFE
FFFFE0001FFFFE
ENDCHAR
STARTCHAR 01F3
ENCODING 499
SWIDTH 1040 0
DWIDTH 52 0
BBX 48 37 2 0
BITMAP
00007E000000
00007E000000
00007E000000
00007E000000
00007E000000
00007E000000
00007E000000
00007E000000
00007E000000
00007E000000
00007E000000
01FC7E07FFFF
07FF7E07FFFF
0FFFFE07FFFF
1FFFFE07FFFF
3FFFFE07FFFF
3FC1FE00007E
7F00FE0000FC
7E007E0001FC
FE007E0001F8
FE007E0003F0
FC007E0007E0
FC007E000FE0
FC007E000FC0
FC007E001F80
FC007E003F00
FC007E007F00
FC007E007E00
FE007E00FC00
FE007E01F800
7F00FE03F800
7F83FE03F000
3FFFFE07FFFF
3FFFBE0FFFFF
1FFF3E0FFFFF
0FFE3E0FFFFF
03F83E0FFFFF
ENDCHAR
STARTCHAR 01F4
ENCODING 500
SWIDTH 720 0
DWIDTH 36 0
BBX 32 47 2 0
BITMAP
00000FF8
00001FE0
00003FC0
00003F80
00007F00
0000FE00
0001FC00
0003F800
00000000
00000000
00000000
0003FF00
003FFFE0
00FFFFF8
01FFFFFE
03FFFFFF
0FFE01FE
0FF0007C
1FE0001C
3FC00000
3F800000
7F000000
7F000000
7F000000
FE000000
FE000000
FE000000
FE000000
FE000000
FE000FFF
FE000FFF
FE000FFF
FE000FFF
FE000FFF
7F00003F
7F00003F
7F80003F
3F80003F
3FC0003F
1FE0003F
0FF8003F
07FE01FF
03FFFFFF
01FFFFFF
007FFFFC
001FFFF0
0003FF00
ENDCHAR
STARTCHAR 01F5
ENCODING 501
SWIDTH 520 0
DWIDTH 26 0
BBX 25 45 1 -9
BITMAP
0007F800
000FE000
000FC000
001F8000
003F0000
003F0000
007E0000
00000000
00000000
00000000
00FE0000
07FF8000
0FFFFF80
1FFFFF80
3FFFFF80
3F83FF00
7F01F800
7E00F800
7E00F800
7E00F800
7E00F800
3F01F800
3F83F800
1FFFF000
0FFFE000
07FFC000
0FFE0000
1F000000
3E000000
3F800000
3FFFC000
3FFFF800
1FFFFE00
0FFFFE00
1FFFFF00
7E007F00
7C003F00
FC003F00
FC003F00
FF00FE00
7FFFFE00
7FFFFC00
3FFFF800
0FFFE000
01FF0000
ENDCHAR
STARTCHAR 01F6
ENCODING 502
SWIDTH 1060 0
DWIDTH 53 0
BBX 48 36 4 0
BITMAP
FE0000FE0000
FE0000FE0000
FE0000FE0000
FE0000FE0000
FE0000FE0000
FE0000FE0000
FE0000FE0000
FE0000FE0000
FE0000FE0000
FE0000FE0000
FE0000FE0FE0
FE0000FE1FF8
FE0000FE0FFC
FE0000FC0FFE
FE0000FC0FFE
FFFFFFFC00FE
FFFFFFFC007E
FFFFFFFC007F
FFFFFFFC007F
FFFFFFFC007F
FE0000FC007F
FE0000FC007F
FE0000FC007E
FE0000FC007E
FE0000FC007E
FE0000FC007E
FE0000FE00FE
FE0000FE00FC
FE0000FE01FC
FE0000FF03F8
FE00007F87F8
FE00007FFFF0
FE00003FFFE0
FE00001FFFC0
FE00000FFF00
FE000001FC00
ENDCHAR
STARTCHAR 01F7
ENCODING 503
SWIDTH 720 0
DWIDTH 36 0
BBX 30 44 4 -8
BITMAP
FC07F800
FE1FFF00
FE7FFF80
FFFFFFE0
FFFFFFE0
FFF81FF0
FFE007F8
FFC003F8
FF8003F8
FF0001FC
FE0001FC
FE0001FC
FE0001FC
FE0001FC
FE0001FC
FE0001FC
FE0001F8
FE0003F8
FE0003F8
FE0007F0
FE0007F0
FE000FE0
FE001FE0
FE003FC0
FE007F80
FE00FF00
FE03FE00
FE07FC00
FE1FF800
FE7FF000
FFFFE000
FFFF8000
FFFE0000
FFFC0000
FFF00000
FF800000
FE000000
FE000000
FE000000
FE000000
FE000000
FE000000
FE000000
FE000000
ENDCHAR
STARTCHAR 01F8
ENCODING 504
SWIDTH 780 0
DWIDTH 39 0
BBX 31 47 4 0
BITMAP
007F0000
003F8000
001FC000
000FC000
0007E000
0003F000
0001F000
00000800
00000000
00000000
00000000
F800007E
FC00007E
FE00007E
FF00007E
FF00007E
FF80007E
FFC0007E
FFE0007E
FFF0007E
FFF0007E
FFF8007E
FFFC007E
FDFE007E
FCFF007E
FCFF007E
FC7F807E
FC3FC07E
FC1FE07E
FC0FE07E
FC0FF07E
FC07F87E
FC03FC7E
FC01FE7E
FC00FE7E
FC00FF7E
FC007FFE
FC003FFE
FC001FFE
FC000FFE
FC000FFE
FC0007FE
FC0003FE
FC0001FE
FC0000FE
FC0000FE
FC00007E
ENDCHAR
STARTCHAR 01F9
ENCODING 505
SWIDTH 560 0
DWIDTH 28 0
BBX 22 36 3 0
BITMAP
1FC000
0FE000
07F000
03F000
01F800
00FC00
007C00
000200
000000
000000
F83F80
F8FFE0
FFFFF0
FFFFF8
FFFFF8
FF83FC
FF01FC
FE00FC
FC00FC
FC00FC
FC00FC
FC00FC
FC00FC
FC00FC
FC00FC
FC00FC
FC00FC
FC00FC
FC00FC
FC00FC
FC00FC
FC00FC
FC00FC
FC00FC
FC00FC
FC00FC
ENDCHAR
STARTCHAR 01FA
ENCODING 506
SWIDTH 700 0
DWIDTH 35 0
BBX 35 53 0 0
BITMAP
00001FF000
00003FC000
00007F8000
0000FE0000
0001FC0000
0003F00000
0000000000
0001E00000
0007F80000
0007380000
000E1C0000
000E1C0000
000E1C0000
0007380000
0007F80000
0001E00000
0000000000
0003F80000
0007F80000
0007FC0000
0007FC0000
000FFE0000
000FFE0000
001FFE0000
001FBF0000
001FBF0000
003F3F8000
003F1F8000
007F1F8000
007E0FC000
007E0FC000
00FC0FE000
00FC07E000
01FC07E000
01F807F000
01F803F000
03F803F000
03F001F800
07F001F800
07FFFFFC00
07FFFFFC00
0FFFFFFC00
0FFFFFFE00
1FFFFFFE00
1FC0007F00
1F80007F00
3F80003F00
3F80003F80
7F00003F80
7F00001FC0
7F00001FC0
FE00000FC0
FC00000FE0
ENDCHAR
STARTCHAR 01FB
ENCODING 507
SWIDTH 500 0
DWIDTH 25 0
BBX 22 47 1 0
BITMAP
0003FC
0007F0
0007E0
000FC0
000FC0
001F80
003F00
003C00
000000
003C00
00FF00
01FF80
01C380
03C3C0
03C3C0
01C380
01FF80
00FF00
003C00
000000
000000
00FE00
07FFC0
1FFFE0
3FFFF0
7FFFF0
3F03F8
1C01F8
0001F8
0000FC
0000FC
0000FC
003FFC
03FFFC
0FFFFC
3FFFFC
7FC0FC
7F00FC
FE00FC
FC00FC
FC01FC
FC03FC
7E0FFC
7FFFFC
3FFEFC
1FFC7C
07E07C
ENDCHAR
STARTCHAR 01FC
ENCODING 508
SWIDTH 940 0
DWIDTH 47 0
BBX 45 47 0 0
BITMAP
000000007FC0
00000000FF00
00000001FE00
00000001FC00
00000003F800
00000007F000
0000000FE000
0000001FC000
000000000000
000000000000
000000000000
00003FFFFFF8
00007FFFFFF8
00007FFFFFF8
0000FFFFFFF8
0000FFFFFFF8
0001FFE00000
0001F7F00000
0003F7F00000
0003F7F00000
0007E3F00000
000FE3F00000
000FC3F00000
001FC3F00000
001F83F00000
003F83F80000
003F03FFFF80
007F03FFFF80
007E01FFFF80
00FE01FFFF80
00FC01FFFF80
01FC01F80000
01F801F80000
03FFFFFC0000
03FFFFFC0000
07FFFFFC0000
07FFFFFC0000
0FFFFFFC0000
0FC000FC0000
1FC000FC0000
1FC000FC0000
3F8000FC0000
3F8000FFFFF8
7F0000FFFFF8
7F0000FFFFF8
FE00007FFFF8
FC00007FFFF8
ENDCHAR
STARTCHAR 01FD
ENCODING 509
SWIDTH 800 0
DWIDTH 40 0
BBX 38 36 1 0
BITMAP
00000FF000
00001FC000
00001F8000
00003F0000
00007E0000
00007E0000
0000FC0000
0000000000
0000000000
0000000000
00FE00FE00
07FF83FF80
0FFFC7FFC0
1FFFCFFFE0
7FFFFFFFF0
3F03FF83F0
1C01FE01F8
0001FC00F8
0000FC00FC
0000FC00FC
003FFFFFFC
03FFFFFFFC
0FFFFFFFFC
1FFFFFFFFC
3FE0FC0000
7F00FC0000
7E00FC0000
FC01FC0000
FC01FE0000
FC01FF0070
FE03FF81F8
7F0FDFFFF8
7FFF8FFFFC
3FFF07FFF0
1FFE03FFC0
07F000FF00
ENDCHAR
STARTCHAR 01FE
ENCODING 510
SWIDTH 800 0
DWIDTH 40 0
BBX 37 49 2 -2
BITMAP
00000FF800
00001FE000
00003FC000
00003F8000
00007F0000
0000FE0000
0001FC0000
0003F80000
0000000000
00000003F0
00000003C0
0003FE07C0
003FFFCF80
00FFFFFF00
01FFFFFF00
03FFFFFE00
07FE03FF00
0FF000FF80
1FE000FFC0
3FC001FFC0
3F8003FFE0
7F0003EFE0
7F0007CFF0
7F000F87F0
FE001F87F0
FE001F07F0
FE003E07F0
FE007C03F0
FE007C03F8
FE00F803F0
FE01F003F0
FE03F007F0
FE03E007F0
FE07C007F0
7F0F8007F0
7F0F800FE0
7F1F000FE0
3FBE001FE0
3FFC001FC0
1FFC003F80
1FF800FF80
0FFE03FF00
07FFFFFE00
03FFFFFC00
07FFFFF000
0FBFFFC000
1F07FE0000
1F00000000
7E00000000
ENDCHAR
STARTCHAR 01FF
ENCODING 511
SWIDTH 580 0
DWIDTH 29 0
BBX 27 37 1 -1
BITMAP
0003FC00
0007F000
0007E000
000FC000
001F8000
001F8000
003F0000
000000E0
000003C0
000007C0
007F8F80
01FFFF00
07FFFE00
0FFFFE00
1FFFFF00
1FE0FF00
3F80FF80
3F01FF80
7F01FFC0
7E03EFC0
7E07CFC0
7E0F8FC0
7E1F0FC0
7E1E0FC0
7E3E0FC0
7E7C0FC0
7EF80FC0
7EF01F80
3FE01F80
3FE03F80
1FC0FF00
0FFFFE00
0FFFFE00
1FFFF800
3FFFF000
3C3F8000
F8000000
ENDCHAR
STARTCHAR 0200
ENCODING 512
SWIDTH 700 0
DWIDTH 35 0
BBX 35 46 0 0
BITMAP
0FC3E00000
07E1F00000
03F0F80000
01F87C0000
00FC7C0000
003C3E0000
001F1F0000
0000000000
0000000000
0000000000
0003F80000
0007F80000
0007FC0000
0007FC0000
000FFE0000
000FFE0000
001FFE0000
001FBF0000
001FBF0000
003F3F8000
003F1F8000
007F1F8000
007E0FC000
007E0FC000
00FC0FE000
00FC07E000
01FC07E000
01F807F000
01F803F000
03F803F000
03F001F800
07F001F800
07FFFFFC00
07FFFFFC00
0FFFFFFC00
0FFFFFFE00
1FFFFFFE00
1FC0007F00
1F80007F00
3F80003F00
3F80003F80
7F00003F80
7F00001FC0
7F00001FC0
FE00000FC0
FC00000FE0
ENDCHAR
STARTCHAR 0201
ENCODING 513
SWIDTH 500 0
DWIDTH 25 0
BBX 22 36 1 0
BITMAP
FC7C00
3E3E00
1F1F00
0F8F00
078F80
03C780
01E3C0
000000
000000
000000
00FE00
07FFC0
1FFFE0
3FFFF0
7FFFF0
3F03F8
1C01F8
0001F8
0000FC
0000FC
0000FC
003FFC
03FFFC
0FFFFC
3FFFFC
7FC0FC
7F00FC
FE00FC
FC00FC
FC01FC
FC03FC
7E0FFC
7FFFFC
3FFEFC
1FFC7C
07E07C
ENDCHAR
STARTCHAR 0202
ENCODING 514
SWIDTH 700 0
DWIDTH 35 0
BBX 35 46 0 0
BITMAP
0007F00000
001FFC0000
003FFF0000
007FFF0000
007E1F8000
007C0F8000
00780F8000
0000000000
0000000000
0000000000
0003F80000
0007F80000
0007FC0000
0007FC0000
000FFE0000
000FFE0000
001FFE0000
001FBF0000
001FBF0000
003F3F8000
003F1F8000
007F1F8000
007E0FC000
007E0FC000
00FC0FE000
00FC07E000
01FC07E000
01F807F000
01F803F000
03F803F000
03F001F800
07F001F800
07FFFFFC00
07FFFFFC00
0FFFFFFC00
0FFFFFFE00
1FFFFFFE00
1FC0007F00
1F80007F00
3F80003F00
3F80003F80
7F00003F80
7F00001FC0
7F00001FC0
FE00000FC0
FC00000FE0
ENDCHAR
STARTCHAR 0203
ENCODING 515
SWIDTH 500 0
DWIDTH 25 0
BBX 22 36 1 0
BITMAP
007E00
01FF80
03FFC0
07FFE0
07C3E0
0781E0
0F81F0
000000
000000
000000
00FE00
07FFC0
1FFFE0
3FFFF0
7FFFF0
3F03F8
1C01F8
0001F8
0000FC
0000FC
0000FC
003FFC
03FFFC
0FFFFC
3FFFFC
7FC0FC
7F00FC
FE00FC
FC00FC
FC01FC
FC03FC
7E0FFC
7FFFFC
3FFEFC
1FFC7C
07E07C
ENDCHAR
STARTCHAR 0204
ENCODING 516
SWIDTH 580 0
DWIDTH 29 0
BBX 24 46 3 0
BITMAP
FC3E00
7E1F00
3F0F80
1F87C0
0FC7C0
03C3E0
01F1F0
000000
000000
000000
7FFFFF
7FFFFF
7FFFFF
7FFFFF
7FFFFF
7F0000
7F0000
7F0000
7F0000
7F0000
7F0000
7F0000
7F0000
7F0000
7F0000
7FFFF0
7FFFF0
7FFFF0
7FFFF0
7FFFF0
7F0000
7F0000
7F0000
7F0000
7F0000
7F0000
7F0000
7F0000
7F0000
7F0000
7F0000
7FFFFF
7FFFFF
7FFFFF
7FFFFF
7FFFFF
ENDCHAR
STARTCHAR 0205
ENCODING 517
SWIDTH 540 0
DWIDTH 27 0
BBX 23 36 2 0
BITMAP
FC7C00
3E3E00
1F1F00
0F8F00
078F80
03C780
01E3C0
000000
000000
000000
00FF00
03FFC0
0FFFE0
1FFFF0
3FFFF8
3F81FC
7F00FC
7E007E
FC007E
FC003E
FFFFFE
FFFFFE
FFFFFE
FFFFFE
FC0000
FC0000
FC0000
FE0000
7E0000
7F0038
3FC0FC
3FFFFE
1FFFFC
0FFFF8
03FFE0
00FF00
ENDCHAR
STARTCHAR 0206
ENCODING 518
SWIDTH 580 0
DWIDTH 29 0
BBX 23 46 4 0
BITMAP
00FE00
03FF80
07FFE0
0FFFE0
0FC3F0
0F81F0
0F01F0
000000
000000
000000
FFFFFE
FFFFFE
FFFFFE
FFFFFE
FFFFFE
FE0000
FE0000
FE0000
FE0000
FE0000
FE0000
FE0000
FE0000
FE0000
FE0000
FFFFE0
FFFFE0
FFFFE0
FFFFE0
FFFFE0
FE0000
FE0000
FE0000
FE0000
FE0000
FE0000
FE0000
FE0000
FE0000
FE0000
FE0000
FFFFFE
FFFFFE
FFFFFE
FFFFFE
FFFFFE
ENDCHAR
STARTCHAR 0207
ENCODING 519
SWIDTH 540 0
DWIDTH 27 0
BBX 23 36 2 0
BITMAP
007E00
01FF80
03FFC0
07FFE0
07C3E0
0781E0
0F81F0
000000
000000
000000
00FF00
03FFC0
0FFFE0
1FFFF0
3FFFF8
3F81FC
7F00FC
7E007E
FC007E
FC003E
FFFFFE
FFFFFE
FFFFFE
FFFFFE
FC0000
FC0000
FC0000
FE0000
7E0000
7F0038
3FC0FC
3FFFFE
1FFFFC
0FFFF8
03FFE0
00FF00
ENDCHAR
STARTCHAR 0208
ENCODING 520
SWIDTH 300 0
DWIDTH 15 0
BBX 20 46 -5 0
BITMAP
FC3E00
7E1F00
3F0F80
1F87C0
0FC7C0
03C3E0
01F1F0
000000
000000
000000
007F00
007F00
007F00
007F00
007F00
007F00
007F00
007F00
007F00
007F00
007F00
007F00
007F00
007F00
007F00
007F00
007F00
007F00
007F00
007F00
007F00
007F00
007F00
007F00
007F00
007F00
007F00
007F00
007F00
007F00
007F00
007F00
007F00
007F00
007F00
007F00
ENDCHAR
STARTCHAR 0209
ENCODING 521
SWIDTH 260 0
DWIDTH 13 0
BBX 18 36 -5 0
BITMAP
FC7C00
3E3E00
1F1F00
0F8F00
078F80
03C780
01E3C0
000000
000000
000000
00FC00
00FC00
00FC00
00FC00
00FC00
00FC00
00FC00
00FC00
00FC00
00FC00
00FC00
00FC00
00FC00
00FC00
00FC00
00FC00
00FC00
00FC00
00FC00
00FC00
00FC00
00FC00
00FC00
00FC00
00FC00
00FC00
ENDCHAR
STARTCHAR 020A
ENCODING 522
SWIDTH 300 0
DWIDTH 15 0
BBX 16 46 0 0
BITMAP
0FE0
3FF8
7FFE
7FFE
FC3F
F81F
F01F
0000
0000
0000
0FE0
0FE0
0FE0
0FE0
0FE0
0FE0
0FE0
0FE0
0FE0
0FE0
0FE0
0FE0
0FE0
0FE0
0FE0
0FE0
0FE0
0FE0
0FE0
0FE0
0FE0
0FE0
0FE0
0FE0
0FE0
0FE0
0FE0
0FE0
0FE0
0FE0
0FE0
0FE0
0FE0
0FE0
0FE0
0FE0
ENDCHAR
STARTCHAR 020B
ENCODING 523
SWIDTH 260 0
DWIDTH 13 0
BBX 16 36 -1 0
BITMAP
07E0
1FF8
3FFC
7FFE
7C3E
781E
F81F
0000
0000
0000
0FC0
0FC0
0FC0
0FC0
0FC0
0FC0
0FC0
0FC0
0FC0
0FC0
0FC0
0FC0
0FC0
0FC0
0FC0
0FC0
0FC0
0FC0
0FC0
0FC0
0FC0
0FC0
0FC0
0FC0
0FC0
0FC0
ENDCHAR
STARTCHAR 020C
ENCODING 524
SWIDTH 800 0
DWIDTH 40 0
BBX 37 46 2 0
BITMAP
07E1F00000
03F0F80000
01F87C0000
00FC3E0000
007E3E0000
001E1F0000
000F8F8000
0000000000
0000000000
0000000000
0003FE0000
003FFFC000
00FFFFF000
01FFFFFC00
03FFFFFE00
07FE03FF00
0FF000FF80
1FE0003F80
3FC0001FC0
3F80001FE0
7F00000FE0
7F00000FE0
7F000007F0
FE000007F0
FE000007F0
FE000007F0
FE000003F0
FE000003F0
FE000003F8
FE000003F0
FE000007F0
FE000007F0
FE000007F0
7F000007F0
7F00000FE0
7F00000FE0
3F80001FE0
3FC0001FC0
1FE0003F80
0FF000FF80
07FC03FF00
03FFFFFE00
01FFFFFC00
00FFFFF000
003FFFC000
0003FE0000
ENDCHAR
STARTCHAR 020D
ENCODING 525
SWIDTH 580 0
DWIDTH 29 0
BBX 25 36 2 0
BITMAP
FC7C0000
3E3E0000
1F1F0000
0F8F0000
078F8000
03C78000
01E3C000
00000000
00000000
00000000
00FF0000
03FFE000
0FFFF000
1FFFFC00
3FFFFC00
3FC1FE00
7F007F00
7E007F00
FE003F00
FC003F80
FC003F80
FC001F80
FC001F80
FC001F80
FC001F80
FC003F80
FC003F80
FE003F00
7E007F00
7F007F00
3FC1FE00
3FFFFC00
1FFFFC00
0FFFF000
03FFE000
00FF0000
ENDCHAR
STARTCHAR 020E
ENCODING 526
SWIDTH 800 0
DWIDTH 40 0
BBX 37 46 2 0
BITMAP
0003F80000
000FFE0000
001FFF8000
003FFF8000
003F0FC000
003E07C000
003C07C000
0000000000
0000000000
0000000000
0003FE0000
003FFFC000
00FFFFF000
01FFFFFC00
03FFFFFE00
07FE03FF00
0FF000FF80
1FE0003F80
3FC0001FC0
3F80001FE0
7F00000FE0
7F00000FE0
7F000007F0
FE000007F0
FE000007F0
FE000007F0
FE000003F0
FE000003F0
FE000003F8
FE000003F0
FE000007F0
FE000007F0
FE000007F0
7F000007F0
7F00000FE0
7F00000FE0
3F80001FE0
3FC0001FC0
1FE0003F80
0FF000FF80
07FC03FF00
03FFFFFE00
01FFFFFC00
00FFFFF000
003FFFC000
0003FE0000
ENDCHAR
STARTCHAR 020F
ENCODING 527
SWIDTH 580 0
DWIDTH 29 0
BBX 25 36 2 0
BITMAP
007E0000
01FF8000
03FFC000
07FFE000
07C3E000
0781E000
0F81F000
00000000
00000000
00000000
00FF0000
03FFE000
0FFFF000
1FFFFC00
3FFFFC00
3FC1FE00
7F007F00
7E007F00
FE003F00
FC003F80
FC003F80
FC001F80
FC001F80
FC001F80
FC001F80
FC003F80
FC003F80
FE003F00
7E007F00
7F007F00
3FC1FE00
3FFFFC00
1FFFFC00
0FFFF000
03FFE000
00FF0000
ENDCHAR
STARTCHAR 0210
ENCODING 528
SWIDTH 640 0
DWIDTH 32 0
BBX 30 46 2 0
BITMAP
FC3E0000
7E1F0000
3F0F8000
1F87C000
0FC7C000
03C3E000
01F1F000
00000000
00000000
00000000
3FFFC000
3FFFF800
3FFFFE00
3FFFFF00
3FFFFF80
3F807FC0
3F801FC0
3F801FE0
3F800FE0
3F800FE0
3F800FE0
3F800FE0
3F800FE0
3F800FE0
3F801FC0
3F803FC0
3F80FF80
3FFFFF00
3FFFFE00
3FFFFC00
3FFFE000
3FFFF000
3F87F800
3F83FC00
3F81FC00
3F80FE00
3F80FF00
3F807F00
3F803F80
3F803FC0
3F801FE0
3F800FE0
3F800FF0
3F8007F8
3F8003F8
3F8003FC
ENDCHAR
STARTCHAR 0211
ENCODING 529
SWIDTH 380 0
DWIDTH 19 0
BBX 19 36 -1 0
BITMAP
FC7C00
3E3E00
1F1F00
0F8F00
078F80
03C780
01E3C0
000000
000000
000000
0F83E0
0F8FE0
0FDFE0
0FFFE0
0FFFE0
0FFFE0
0FF800
0FF000
0FE000
0FE000
0FC000
0FC000
0FC000
0FC000
0FC000
0FC000
0FC000
0FC000
0FC000
0FC000
0FC000
0FC000
0FC000
0FC000
0FC000
0FC000
ENDCHAR
STARTCHAR 0212
ENCODING 530
SWIDTH 640 0
DWIDTH 32 0
BBX 28 46 4 0
BITMAP
01FC0000
07FF0000
0FFFC000
1FFFC000
1F87E000
1F03E000
1E03E000
00000000
00000000
00000000
FFFF0000
FFFFE000
FFFFF800
FFFFFC00
FFFFFE00
FE01FF00
FE007F00
FE007F80
FE003F80
FE003F80
FE003F80
FE003F80
FE003F80
FE003F80
FE007F00
FE00FF00
FE03FE00
FFFFFC00
FFFFF800
FFFFF000
FFFF8000
FFFFC000
FE1FE000
FE0FF000
FE07F000
FE03F800
FE03FC00
FE01FC00
FE00FE00
FE00FF00
FE007F80
FE003F80
FE003FC0
FE001FE0
FE000FE0
FE000FF0
ENDCHAR
STARTCHAR 0213
ENCODING 531
SWIDTH 380 0
DWIDTH 19 0
BBX 16 36 3 0
BITMAP
07E0
1FF8
3FFC
7FFE
7C3E
781E
F81F
0000
0000
0000
F83E
F8FE
FDFE
FFFE
FFFE
FFFE
FF80
FF00
FE00
FE00
FC00
FC00
FC00
FC00
FC00
FC00
FC00
FC00
FC00
FC00
FC00
FC00
FC00
FC00
FC00
FC00
ENDCHAR
STARTCHAR 0214
ENCODING 532
SWIDTH 740 0
DWIDTH 37 0
BBX 30 46 4 0
BITMAP
3F0F8000
1F87C000
0FC3E000
07E1F000
03F1F000
00F0F800
007C7C00
00000000
00000000
00000000
FC0001FC
FC0001FC
FC0001FC
FC0001FC
FC0001FC
FC0001FC
FC0001FC
FC0001FC
FC0001FC
FC0001FC
FC0001FC
FC0001FC
FC0001FC
FC0001FC
FC0001FC
FC0001FC
FC0001FC
FC0001FC
FC0001FC
FC0001FC
FC0001FC
FC0001FC
FC0001FC
FC0001F8
FE0003F8
FE0003F8
FF0007F8
7F0007F0
7FC00FF0
3FF03FE0
3FFFFFE0
1FFFFFC0
0FFFFF80
03FFFF00
01FFFC00
003FE000
ENDCHAR
STARTCHAR 0215
ENCODING 533
SWIDTH 560 0
DWIDTH 28 0
BBX 23 36 2 0
BITMAP
FC7C00
3E3E00
1F1F00
0F8F00
078F80
03C780
01E3C0
000000
000000
000000
7E007E
7E007E
7E007E
7E007E
7E007E
7E007E
7E007E
7E007E
7E007E
7E007E
7E007E
7E007E
7E007E
7E007E
7E007E
7E007E
7E007E
7E007E
7E007E
7F00FE
7F83FE
3FFFFE
3FFFFE
1FFF3E
0FFE3E
03F83E
ENDCHAR
STARTCHAR 0216
ENCODING 534
SWIDTH 740 0
DWIDTH 37 0
BBX 30 46 4 0
BITMAP
001FC000
007FF000
00FFFC00
01FFFC00
01F87E00
01F03E00
01E03E00
00000000
00000000
00000000
FC0001FC
FC0001FC
FC0001FC
FC0001FC
FC0001FC
FC0001FC
FC0001FC
FC0001FC
FC0001FC
FC0001FC
FC0001FC
FC0001FC
FC0001FC
FC0001FC
FC0001FC
FC0001FC
FC0001FC
FC0001FC
FC0001FC
FC0001FC
FC0001FC
FC0001FC
FC0001FC
FC0001F8
FE0003F8
FE0003F8
FF0007F8
7F0007F0
7FC00FF0
3FF03FE0
3FFFFFE0
1FFFFFC0
0FFFFF80
03FFFF00
01FFFC00
003FE000
ENDCHAR
STARTCHAR 0217
ENCODING 535
SWIDTH 560 0
DWIDTH 28 0
BBX 22 36 3 0
BITMAP
00FC00
03FF00
07FF80
0FFFC0
0F87C0
0F03C0
1F03E0
000000
000000
000000
FC00FC
FC00FC
FC00FC
FC00FC
FC00FC
FC00FC
FC00FC
FC00FC
FC00FC
FC00FC
FC00FC
FC00FC
FC00FC
FC00FC
FC00FC
FC00FC
FC00FC
FC00FC
FC00FC
FE01FC
FF07FC
7FFFFC
7FFFFC
3FFE7C
1FFC7C
07F07C
ENDCHAR
STARTCHAR 0218
ENCODING 536
SWIDTH 540 0
DWIDTH 27 0
BBX 25 46 1 -10
BITMAP
003FC000
01FFF800
07FFFE00
0FFFFF00
0FFFFE00
1FE0FE00
3F801C00
3F000800
3F000000
3F000000
3F000000
3F800000
3FC00000
3FF00000
3FFE0000
1FFF8000
0FFFF000
07FFF800
03FFFC00
00FFFE00
001FFF00
0003FF00
0000FF00
00003F80
00003F80
00003F80
00003F00
00003F00
38003F00
7E007F00
7F81FE00
FFFFFC00
7FFFF800
1FFFF000
07FFE000
00FF0000
00000000
00000000
00000000
003E0000
003E0000
003E0000
003C0000
007C0000
007C0000
00780000
ENDCHAR
STARTCHAR 0219
ENCODING 537
SWIDTH 440 0
DWIDTH 22 0
BBX 19 36 1 -10
BITMAP
01FC00
0FFF00
1FFFC0
3FFFE0
3FFFC0
7F03C0
7E0000
7E0000
7E0000
7F0000
3FC000
3FF800
1FFF00
07FF80
00FFC0
001FE0
0007E0
0003E0
0003E0
3007E0
7E0FE0
7FFFE0
FFFFC0
7FFF80
1FFF00
03F800
000000
000000
000000
00F800
00F800
00F800
00F000
01F000
01F000
01E000
ENDCHAR
STARTCHAR 021A
ENCODING 538
SWIDTH 600 0
DWIDTH 30 0
BBX 28 46 1 -10
BITMAP
FFFFFFF0
FFFFFFF0
FFFFFFF0
FFFFFFF0
FFFFFFF0
001F8000
001F8000
001F8000
001F8000
001F8000
001F8000
001F8000
001F8000
001F8000
001F8000
001F8000
001F8000
001F8000
001F8000
001F8000
001F8000
001F8000
001F8000
001F8000
001F8000
001F8000
001F8000
001F8000
001F8000
001F8000
001F8000
001F8000
001F8000
001F8000
001F8000
001F8000
00000000
00000000
00000000
000F8000
000F8000
000F8000
000F0000
001F0000
001F0000
001E0000
ENDCHAR
STARTCHAR 021B
ENCODING 539
SWIDTH 380 0
DWIDTH 19 0
BBX 17 44 1 -10
BITMAP
03C000
07C000
07C000
07C000
07C000
0FC000
0FC000
0FC000
3FFF80
FFFF80
FFFF80
FFFF80
FFFF80
0FC000
0FC000
0FC000
0FC000
0FC000
0FC000
0FC000
0FC000
0FC000
0FC000
0FC000
0FC000
0FC000
0FC000
0FC000
0FE200
0FFF00
0FFF80
07FF80
03FF00
00FC00
000000
000000
000000
00F800
00F800
00F800
00F000
01F000
01F000
01E000
ENDCHAR
STARTCHAR 021C
ENCODING 540
SWIDTH 600 0
DWIDTH 30 0
BBX 27 36 1 0
BITMAP
7FFFFFC0
7FFFFFC0
7FFFFFC0
7FFFFF80
7FFFFF80
0000FF00
0001FE00
0003FC00
0007F800
000FF000
001FE000
003FC000
007F8000
00FF0000
01FFF800
01FFFE00
01FFFF00
01FFFF80
0003FF80
00007FC0
00001FC0
00001FC0
00000FE0
00000FE0
00000FE0
00000FC0
00001FC0
10001FC0
3C003FC0
7E007F80
FF81FF00
FFFFFE00
3FFFFC00
1FFFF800
07FFE000
00FF0000
ENDCHAR
STARTCHAR 021D
ENCODING 541
SWIDTH 440 0
DWIDTH 22 0
BBX 22 35 -1 -9
BITMAP
3FFFF8
3FFFF8
3FFFF8
3FFFF0
3FFFF0
0007E0
000FC0
001FC0
003F80
007F00
007E00
00FC00
01F800
03F000
07FF00
07FFC0
07FFE0
07FFF0
0007F8
0001F8
0001FC
0000FC
0000FC
0000FC
0000FC
0000FC
0001F8
0001F8
3003F8
7C0FF0
7FFFF0
FFFFE0
7FFFC0
1FFF00
07F800
ENDCHAR
STARTCHAR 021E
ENCODING 542
SWIDTH 780 0
DWIDTH 39 0
BBX 31 46 4 0
BITMAP
03F03F00
01F87E00
00FCFC00
007DF800
003FF000
001FE000
000FC000
00000000
00000000
00000000
FE0000FE
FE0000FE
FE0000FE
FE0000FE
FE0000FE
FE0000FE
FE0000FE
FE0000FE
FE0000FE
FE0000FE
FE0000FE
FE0000FE
FE0000FE
FE0000FE
FE0000FE
FFFFFFFE
FFFFFFFE
FFFFFFFE
FFFFFFFE
FFFFFFFE
FE0000FE
FE0000FE
FE0000FE
FE0000FE
FE0000FE
FE0000FE
FE0000FE
FE0000FE
FE0000FE
FE0000FE
FE0000FE
FE0000FE
FE0000FE
FE0000FE
FE0000FE
FE0000FE
ENDCHAR
STARTCHAR 021F
ENCODING 543
SWIDTH 560 0
DWIDTH 28 0
BBX 28 46 -3 0
BITMAP
FC0FC000
7E1F8000
3F3F0000
1F7E0000
0FFC0000
07F80000
03F00000
00000000
00000000
03F00000
03F00000
03F00000
03F00000
03F00000
03F00000
03F00000
03F00000
03F00000
03F00000
03F00000
03F07E00
03F3FF80
03F7FFC0
03FFFFE0
03FFFFE0
03FE0FF0
03FC07F0
03F803F0
03F003F0
03F003F0
03F003F0
03F003F0
03F003F0
03F003F0
03F003F0
03F003F0
03F003F0
03F003F0
03F003F0
03F003F0
03F003F0
03F003F0
03F003F0
03F003F0
03F003F0
03F003F0
ENDCHAR
STARTCHAR 0220
ENCODING 544
SWIDTH 740 0
DWIDTH 37 0
BBX 29 44 4 -8
BITMAP
FC07F800
FE1FFE00
FE7FFF80
FEFFFFC0
FFFFFFE0
FFF81FF0
FFE007F0
FFC007F8
FF8003F8
FF0003F8
FE0003F8
FE0001F8
FE0001F8
FE0001F8
FE0001F8
FE0001F8
FE0001F8
FE0001F8
FE0001F8
FE0001F8
FE0001F8
FE0001F8
FE0001F8
FE0001F8
FE0001F8
FE0001F8
FE0001F8
FE0001F8
FE0001F8
FE0001F8
FE0001F8
FE0001F8
FE0001F8
FE0001F8
FE0001F8
FE0001F8
000001F8
000001F8
000001F8
000001F8
000001F8
000001F8
000001F8
000001F8
ENDCHAR
STARTCHAR 0221
ENCODING 545
SWIDTH 640 0
DWIDTH 32 0
BBX 33 46 2 -9
BITMAP
00007E0000
00007E0000
00007E0000
00007E0000
00007E0000
00007E0000
00007E0000
00007E0000
00007E0000
00007E0000
00007E0000
01FC7E0000
07FF7E0000
0FFFFE0000
1FFFFE0000
3FFFFE0000
3FC1FE0000
7F00FE0000
7E007E0000
FE007E0000
FE007E0000
FC007E0000
FC007E0000
FC007E0000
FC007E0000
FC007E0000
FC007E0000
FC007E0000
FE007E0000
FE007E0000
7F00FE0000
7F83FE0000
3FFFFE0000
3FFFBE0000
1FFF3E0000
0FFE3EFC00
03F83FFE00
00003FFF00
00001FFF00
00001F8F80
00001F0780
00003F8F80
00007FFF00
00007FFF00
0000FBFE00
000030F800
ENDCHAR
STARTCHAR 0222
ENCODING 546
SWIDTH 660 0
DWIDTH 33 0
BBX 28 36 2 0
BITMAP
3F800FC0
3F800FE0
7F0007E0
7F0007E0
7F0007E0
7F0007E0
7F0007E0
7F0007E0
3F800FE0
3FC01FC0
1FE03FC0
0FF8FF80
07FFFE00
03FFFC00
00FFF000
01FFFC00
03FFFF00
0FFBFF80
1FE0FFC0
3FC03FE0
7F800FE0
7F0007F0
7E0007F0
FE0003F0
FE0003F0
FE0003F0
FE0003F0
FE0007F0
7F0007F0
7F800FF0
7FE03FE0
3FFFFFC0
1FFFFF80
0FFFFF00
03FFFC00
007FE000
ENDCHAR
STARTCHAR 0223
ENCODING 547
SWIDTH 540 0
DWIDTH 27 0
BBX 24 36 2 0
BITMAP
7E007C
7E00FC
FE007E
FE007E
FC007E
FC007E
FE007E
7E00FC
7F00FC
7F01FC
3FC3F8
1FE7F0
0FFFC0
07FF80
01FF80
03FFC0
0FFFF0
1FCFF8
3F87FC
7F01FC
7E00FE
FE00FE
FC007E
FC007E
FC007F
FC007E
FC007E
FC007E
FE00FE
FE00FE
7F83FC
7FFFFC
3FFFF8
1FFFF0
07FFC0
01FF00
ENDCHAR
STARTCHAR 0224
ENCODING 548
SWIDTH 620 0
DWIDTH 31 0
BBX 28 45 1 -9
BITMAP
7FFFFFF0
7FFFFFF0
7FFFFFF0
7FFFFFF0
7FFFFFE0
00001FE0
00003FC0
00007F80
00007F80
0000FF00
0001FE00
0001FC00
0003FC00
0007F800
0007F000
000FF000
001FE000
003FC000
003FC000
007F8000
00FF0000
00FE0000
01FE0000
03FC0000
03F80000
07F80000
0FF00000
1FE00000
1FC00000
3FC00000
7F800000
7FFFFFF0
FFFFFFF0
FFFFFFF0
FFFFFFF0
FFFFFFF0
000003F0
000003F0
000003F0
000007F0
0001FFE0
0001FFE0
0001FFC0
0001FF80
0000FE00
ENDCHAR
STARTCHAR 0225
ENCODING 549
SWIDTH 460 0
DWIDTH 23 0
BBX 21 35 1 -9
BITMAP
7FFFF0
7FFFF0
7FFFF0
7FFFF0
7FFFF0
0007E0
000FC0
001FC0
001F80
003F00
007E00
00FE00
00FC00
01F800
03F000
07F000
07E000
0FC000
1F8000
3F8000
3F0000
7FFFF8
FFFFF8
FFFFF8
FFFFF8
FFFFF8
0000F8
0000F8
0001F8
0001F8
003FF0
003FF0
007FE0
007FC0
001F80
ENDCHAR
STARTCHAR 0226
ENCODING 550
SWIDTH 700 0
DWIDTH 35 0
BBX 35 46 0 0
BITMAP
0001E00000
0003F00000
0007F80000
0007F80000
0007F80000
0003F00000
0001E00000
0000000000
0000000000
0000000000
0003F80000
0007F80000
0007FC0000
0007FC0000
000FFE0000
000FFE0000
001FFE0000
001FBF0000
001FBF0000
003F3F8000
003F1F8000
007F1F8000
007E0FC000
007E0FC000
00FC0FE000
00FC07E000
01FC07E000
01F807F000
01F803F000
03F803F000
03F001F800
07F001F800
07FFFFFC00
07FFFFFC00
0FFFFFFC00
0FFFFFFE00
1FFFFFFE00
1FC0007F00
1F80007F00
3F80003F00
3F80003F80
7F00003F80
7F00001FC0
7F00001FC0
FE00000FC0
FC00000FE0
ENDCHAR
STARTCHAR 0227
ENCODING 551
SWIDTH 500 0
DWIDTH 25 0
BBX 22 37 1 0
BITMAP
003C00
007E00
00FF00
00FF00
00FF00
00FF00
007E00
003C00
000000
000000
000000
00FE00
07FFC0
1FFFE0
3FFFF0
7FFFF0
3F03F8
1C01F8
0001F8
0000FC
0000FC
0000FC
003FFC
03FFFC
0FFFFC
3FFFFC
7FC0FC
7F00FC
FE00FC
FC00FC
FC01FC
FC03FC
7E0FFC
7FFFFC
3FFEFC
1FFC7C
07E07C
ENDCHAR
STARTCHAR 0228
ENCODING 552
SWIDTH 580 0
DWIDTH 29 0
BBX 23 45 4 -9
BITMAP
FFFFFE
FFFFFE
FFFFFE
FFFFFE
FFFFFE
FE0000
FE0000
FE0000
FE0000
FE0000
FE0000
FE0000
FE0000
FE0000
FE0000
FFFFE0
FFFFE0
FFFFE0
FFFFE0
FFFFE0
FE0000
FE0000
FE0000
FE0000
FE0000
FE0000
FE0000
FE0000
FE0000
FE0000
FE0000
FFFFFE
FFFFFE
FFFFFE
FFFFFE
FFFFFE
003C00
003C00
003F00
007F80
0007C0
0007C0
007FC0
00FF80
00FE00
ENDCHAR
STARTCHAR 0229
ENCODING 553
SWIDTH 540 0
DWIDTH 27 0
BBX 23 35 2 -9
BITMAP
00FF00
03FFC0
0FFFE0
1FFFF0
3FFFF8
3F81FC
7F00FC
7E007E
FC007E
FC003E
FFFFFE
FFFFFE
FFFFFE
FFFFFE
FC0000
FC0000
FC0000
FE0000
7E0000
7F0018
3F807C
3FFFFC
1FFFFE
0FFFF8
07FFF0
00FFC0
003C00
003C00
007F00
003F80
0007C0
0007C0
00FF80
00FF80
00FE00
ENDCHAR
STARTCHAR 022A
ENCODING 554
SWIDTH 800 0
DWIDTH 40 0
BBX 37 50 2 0
BITMAP
003FFFC000
003FFFC000
003FFFC000
003FFFC000
0000000000
001C038000
003E07C000
007F0FE000
007F0FE000
007F0FE000
003E07C000
001C038000
0000000000
0000000000
0003FE0000
003FFFC000
00FFFFF000
01FFFFFC00
03FFFFFE00
07FE03FF00
0FF000FF80
1FE0003F80
3FC0001FC0
3F80001FE0
7F00000FE0
7F00000FE0
7F000007F0
FE000007F0
FE000007F0
FE000007F0
FE000003F0
FE000003F0
FE000003F8
FE000003F0
FE000007F0
FE000007F0
FE000007F0
7F000007F0
7F00000FE0
7F00000FE0
3F80001FE0
3FC0001FC0
1FE0003F80
0FF000FF80
07FC03FF00
03FFFFFE00
01FFFFFC00
00FFFFF000
003FFFC000
0003FE0000
ENDCHAR
STARTCHAR 022B
ENCODING 555
SWIDTH 580 0
DWIDTH 29 0
BBX 25 43 2 0
BITMAP
07FFE000
07FFE000
07FFE000
07FFE000
00000000
00000000
00000000
0781E000
0FC3F000
0FC3F000
1FC3F800
0FC3F000
0FC3F000
0781E000
00000000
00000000
00000000
00FF0000
03FFE000
0FFFF000
1FFFFC00
3FFFFC00
3FC1FE00
7F007F00
7E007F00
FE003F00
FC003F80
FC003F80
FC001F80
FC001F80
FC001F80
FC001F80
FC003F80
FC003F80
FE003F00
7E007F00
7F007F00
3FC1FE00
3FFFFC00
1FFFFC00
0FFFF000
03FFE000
00FF0000
ENDCHAR
STARTCHAR 022C
ENCODING 556
SWIDTH 800 0
DWIDTH 40 0
BBX 37 50 2 0
BITMAP
003FFFC000
003FFFC000
003FFFC000
003FFFC000
0000000000
000F81E000
001FC1E000
003FF3E000
003FFFC000
003C7FC000
00783F8000
00780F0000
0000000000
0000000000
0003FE0000
003FFFC000
00FFFFF000
01FFFFFC00
03FFFFFE00
07FE03FF00
0FF000FF80
1FE0003F80
3FC0001FC0
3F80001FE0
7F00000FE0
7F00000FE0
7F000007F0
FE000007F0
FE000007F0
FE000007F0
FE000003F0
FE000003F0
FE000003F8
FE000003F0
FE000007F0
FE000007F0
FE000007F0
7F000007F0
7F00000FE0
7F00000FE0
3F80001FE0
3FC0001FC0
1FE0003F80
0FF000FF80
07FC03FF00
03FFFFFE00
01FFFFFC00
00FFFFF000
003FFFC000
0003FE0000
ENDCHAR
STARTCHAR 022D
ENCODING 557
SWIDTH 580 0
DWIDTH 29 0
BBX 25 43 2 0
BITMAP
07FFE000
07FFE000
07FFE000
07FFE000
00000000
00000000
00000000
01F0F000
03FFF000
07FFF000
0FFFE000
0F1FC000
0F078000
00000000
00000000
00000000
00000000
00FF0000
03FFE000
0FFFF000
1FFFFC00
3FFFFC00
3FC1FE00
7F007F00
7E007F00
FE003F00
FC003F80
FC003F80
FC001F80
FC001F80
FC001F80
FC001F80
FC003F80
FC003F80
FE003F00
7E007F00
7F007F00
3FC1FE00
3FFFFC00
1FFFFC00
0FFFF000
03FFE000
00FF0000
ENDCHAR
STARTCHAR 022E
ENCODING 558
SWIDTH 800 0
DWIDTH 40 0
BBX 37 46 2 0
BITMAP
0000F00000
0001F80000
0003FC0000
0003FC0000
0003FC0000
0001F80000
0000F00000
0000000000
0000000000
0000000000
0003FE0000
003FFFC000
00FFFFF000
01FFFFFC00
03FFFFFE00
07FE03FF00
0FF000FF80
1FE0003F80
3FC0001FC0
3F80001FE0
7F00000FE0
7F00000FE0
7F000007F0
FE000007F0
FE000007F0
FE000007F0
FE000003F0
FE000003F0
FE000003F8
FE000003F0
FE000007F0
FE000007F0
FE000007F0
7F000007F0
7F00000FE0
7F00000FE0
3F80001FE0
3FC0001FC0
1FE0003F80
0FF000FF80
07FC03FF00
03FFFFFE00
01FFFFFC00
00FFFFF000
003FFFC000
0003FE0000
ENDCHAR
STARTCHAR 022F
ENCODING 559
SWIDTH 580 0
DWIDTH 29 0
BBX 25 37 2 0
BITMAP
003C0000
007E0000
00FF0000
00FF0000
00FF0000
00FF0000
007E0000
003C0000
00000000
00000000
00000000
00FF0000
03FFE000
0FFFF000
1FFFFC00
3FFFFC00
3FC1FE00
7F007F00
7E007F00
FE003F00
FC003F80
FC003F80
FC001F80
FC001F80
FC001F80
FC001F80
FC003F80
FC003F80
FE003F00
7E007F00
7F007F00
3FC1FE00
3FFFFC00
1FFFFC00
0FFFF000
03FFE000
00FF0000
ENDCHAR
ENDFONT
